<svg xmlns="http://www.w3.org/2000/svg" width="16" height="16" viewBox="0 0 16 16">
  <path d="M13.854 2.087a.36.36 0 0 0-.398-.048L2.276 7.572a.48.48 0 0 0-.273.427.514.514 0 0 0 .225.48l3.174 1.78a.24.24 0 0 0-.043.139v3.359a.24.24 0 0 0 .426.153l1.97-2.36 2.398 1.333a.48.48 0 0 0 .62-.072.48.48 0 0 0 .113-.201l3.102-10.13a.38.38 0 0 0-.134-.393ZM2.358 8.24l.124-.236L12.847 2.88l-7.08 7.015-3.285-1.847-.125.192Zm3.48 4.85v-2.595l1.467.82-1.467 1.776Zm4.526-.618-4.162-2.313 7.067-7.025-2.905 9.338Z"/>
</svg>
