<svg xmlns="http://www.w3.org/2000/svg" width="16" height="16" viewBox="0 0 16 16">
<path d="M4.49245 3C3.80773 3 3.30122 3.59952 3.32384 4.24971C3.34559 4.87422 3.31735 5.68326 3.11366 6.34288C2.90949 7.00461 2.56413 7.42277 2 7.47658V8.08593C2.56413 8.13964 2.90949 8.55789 3.11366 9.21962C3.31735 9.87925 3.34549 10.6883 3.32384 11.3128C3.30113 11.963 3.80773 12.5624 4.49245 12.5624H11.5085C12.1932 12.5624 12.6997 11.9629 12.6771 11.3128C12.6554 10.6883 12.6836 9.87925 12.8872 9.21962C13.0914 8.55799 13.4359 8.13973 14 8.08593V7.47658C13.4359 7.42286 13.0915 7.00461 12.8872 6.34288C12.6836 5.68326 12.6554 4.87422 12.6771 4.24971C12.6997 3.59952 12.1932 3 11.5084 3H4.49245ZM10.0368 8.88513C10.0368 9.78041 9.36877 10.3232 8.26026 10.3232H6.21651C6.20408 10.3232 6.19217 10.3182 6.18338 10.3094C6.1746 10.3007 6.16966 10.2887 6.16966 10.2763V5.28418C6.16965 5.27802 6.17085 5.27192 6.1732 5.26622C6.17555 5.26053 6.179 5.25535 6.18335 5.25099C6.1877 5.24663 6.19287 5.24317 6.19856 5.24081C6.20425 5.23845 6.21035 5.23724 6.21651 5.23724H8.24948C9.17386 5.23724 9.78044 5.73773 9.78044 6.50612C9.78044 7.04544 9.3724 7.52819 8.85244 7.61281V7.64105C9.56015 7.71862 10.0368 8.20852 10.0368 8.88513ZM8.05448 5.88227H6.9785V7.4013H7.88485C8.58531 7.4013 8.9716 7.11938 8.9716 6.61536C8.9716 6.14311 8.6395 5.88227 8.05448 5.88227V5.88227ZM6.9785 8.00407V9.67823H8.09426C8.82363 9.67823 9.21002 9.38572 9.21002 8.83581C9.21002 8.28599 8.81285 8.00407 8.04732 8.00407H6.9785Z"/>
</svg>
