<svg xmlns="http://www.w3.org/2000/svg" width="16" height="16" viewBox="0 0 16 16">
  <path d="M3.071 13.286h9.858c.59 0 1.071-.481 1.071-1.072V5.786c0-.59-.48-1.072-1.071-1.072h-2.19l-.226-.902A1.07 1.07 0 0 0 9.473 3H6.526a1.07 1.07 0 0 0-1.04.812l-.225.902h-2.19A1.073 1.073 0 0 0 2 5.786v6.428c0 .59.48 1.072 1.071 1.072Zm9.858-.429H3.07a.644.644 0 0 1-.642-.643V7.787l4.5 1.333v1.38a.214.214 0 0 0 .214.214h1.714a.214.214 0 0 0 .214-.214V9.12l4.5-1.333v4.427a.644.644 0 0 1-.642.643ZM8 9.857a.214.214 0 0 0-.214.214v.215h-.429v-.857h1.286v.857h-.429v-.215A.214.214 0 0 0 8 9.857Zm.643-.897V9H7.357v-.429h1.286v.39Zm-2.74-5.045a.642.642 0 0 1 .624-.486h2.947a.643.643 0 0 1 .624.486l.2.8H5.702l.2-.8Zm-3.474 1.87c0-.354.288-.642.642-.642h9.858c.354 0 .642.288.642.643V7.34l-4.5 1.333v-.316a.214.214 0 0 0-.214-.214H7.143a.214.214 0 0 0-.214.214v.316l-4.5-1.333V5.786Z"/>
</svg>
