<svg xmlns="http://www.w3.org/2000/svg" width="16" height="16" viewBox="0 0 16 16">
  <path d="M8 5.625a3 3 0 1 0 0 6 3 3 0 0 0 0-6Zm1.708 4.465a2.25 2.25 0 1 1-3.416-2.927 2.25 2.25 0 0 1 3.416 2.927Z"/>
  <path d="M8 7.125a1.5 1.5 0 0 0-1.5 1.5.188.188 0 0 0 .375 0C6.875 8.004 7.379 7.5 8 7.5a.188.188 0 0 0 0-.375Z"/>
  <path d="m13.06 5.266-1.626-.271-.515-1.288A1.12 1.12 0 0 0 9.875 3h-3.75c-.462 0-.872.277-1.045.707l-.514 1.288-1.625.27A1.12 1.12 0 0 0 2 6.376V12c0 .62.505 1.125 1.125 1.125h9.75c.62 0 1.125-.505 1.125-1.125V6.375a1.12 1.12 0 0 0-.94-1.11ZM13.25 12a.375.375 0 0 1-.375.375h-9.75A.375.375 0 0 1 2.75 12V6.375c0-.183.133-.34.313-.37l2.042-.34.672-1.68a.376.376 0 0 1 .348-.235h3.75c.153 0 .29.093.348.236l.672 1.68 2.042.34c.18.03.313.186.313.369V12Z"/>
</svg>
