<svg xmlns="http://www.w3.org/2000/svg" width="16" height="16" viewBox="0 0 16 16">
  <path d="M13.43 12.159c.361-.524.57-1.139.57-1.797 0-1.214-.71-2.282-1.784-2.898C12.19 4.994 9.913 3 7.11 3 4.287 3 2 5.018 2 7.507c0 .859.272 1.661.744 2.344l-.65 1.205c-.273.454.092.959.539.959a.63.63 0 0 0 .326-.094l1.275-.688a5.52 5.52 0 0 0 2.397.762c.661 1.085 1.959 1.822 3.452 1.822.818 0 1.576-.221 2.204-.599l.977.527a.484.484 0 0 0 .25.072c.343 0 .622-.386.413-.735l-.497-.923Zm-8.886-1.44-.294-.177-.302.162-1.275.688-.012.007-.011.007a.125.125 0 0 1-.017.008.06.06 0 0 1-.032-.03.065.065 0 0 1 .008-.019l.007-.011.007-.013.65-1.205.175-.324-.21-.303a3.504 3.504 0 0 1-.637-2.002c0-2.154 2.022-3.906 4.507-3.906 2.357 0 4.296 1.575 4.492 3.574a4.36 4.36 0 0 0-1.516-.269c-2.163 0-3.917 1.547-3.917 3.456 0 .338.055.674.164.993a4.871 4.871 0 0 1-1.787-.637Zm8.39 1.098-.209.303.175.324.321.596-.648-.35-.302-.163-.294.177a3.669 3.669 0 0 1-1.894.513c-1.828 0-3.315-1.28-3.315-2.855 0-1.574 1.487-2.855 3.315-2.855 1.829 0 3.316 1.281 3.316 2.855a2.554 2.554 0 0 1-.464 1.455Zm-1.64-1.305a.3.3 0 1 1-.087-.213.302.302 0 0 1 .089.213h-.002Zm-.902 0a.3.3 0 1 1-.087-.213.3.3 0 0 1 .089.213h-.002Zm-.901 0a.3.3 0 1 1-.087-.213.3.3 0 0 1 .089.213H9.49Z"/>
</svg>
