<svg xmlns="http://www.w3.org/2000/svg" width="16" height="16" viewBox="0 0 16 16">
  <path d="M13.4 7.668V7.35A5.054 5.054 0 0 0 8.65 2.6h-.318a4.987 4.987 0 0 0-2.261.536h-.003a5.067 5.067 0 0 0-2.801 4.53v.002c-.002.786.181 1.56.535 2.261a.6.6 0 0 1 .034.46l-.887 2.662 2.661-.887a.6.6 0 0 1 .46.034 4.986 4.986 0 0 0 2.262.535h.001a5.066 5.066 0 0 0 4.53-2.801l.001-.003a4.987 4.987 0 0 0 .536-2.26ZM2 14l1.267-3.8a5.587 5.587 0 0 1-.6-2.533A5.667 5.667 0 0 1 5.8 2.6 5.587 5.587 0 0 1 8.333 2h.334A5.653 5.653 0 0 1 14 7.333v.334a5.587 5.587 0 0 1-.6 2.533 5.666 5.666 0 0 1-5.067 3.133 5.587 5.587 0 0 1-2.533-.6L2 14Z"/>
</svg>
