<svg xmlns="http://www.w3.org/2000/svg" width="16" height="16" viewBox="0 0 16 16">
<path d="M13.7723 5.74309L8.28791 2.08684C8.10069 1.97152 7.90091 1.97059 7.71209 2.08684L2.22772 5.74309C2.08709 5.83684 2 6.00427 2 6.17162V9.82787C2 9.99531 2.08709 10.1627 2.22772 10.2564L7.71209 13.9132C7.89922 14.0284 8.09909 14.0295 8.28791 13.9132L13.7723 10.2564C13.9129 10.1627 14 9.99531 14 9.82796V6.17171C14 6.00427 13.9129 5.83684 13.7723 5.74309V5.74309ZM8.51572 3.47959L12.5535 6.17162L10.7522 7.37706L8.51562 5.88362V3.47977L8.51572 3.47959ZM7.48438 3.47959V5.88371L5.24769 7.37696L3.44638 6.17171L7.48438 3.47959V3.47959ZM3.03125 7.13584L4.32369 7.99974L3.03125 8.86365V7.13584V7.13584ZM7.48438 12.5199L3.44638 9.82787L5.24769 8.62252L7.48438 10.1159V12.5199V12.5199ZM8 9.21849L6.17862 7.99974L8 6.78099L9.82138 7.99974L8 9.21849ZM8.51562 12.5199V10.1159L10.7522 8.62252L12.5535 9.82787L8.51572 12.5199H8.51562ZM12.9688 8.86365L11.6763 7.99974L12.9688 7.13593V8.86365Z"/>
</svg>
