<svg xmlns="http://www.w3.org/2000/svg" width="16" height="16" viewBox="0 0 16 16">
<path fill-rule="evenodd" clip-rule="evenodd" d="M14 8C14 11.3137 11.3137 14 8 14C4.68629 14 2 11.3137 2 8C2 4.68629 4.68629 2 8 2C11.3137 2 14 4.68629 14 8ZM8.19194 4.05789L11.8482 6.49539C11.9419 6.55789 12 6.66952 12 6.78114V9.21864C12 9.3302 11.9419 9.44183 11.8482 9.50427L8.19194 11.9421C8.06606 12.0196 7.93281 12.019 7.80806 11.9421L4.15181 9.50427C4.05806 9.44183 4 9.3302 4 9.21858V6.78108C4 6.66952 4.05806 6.55789 4.15181 6.49539L7.80806 4.05789C7.93394 3.98039 8.06712 3.98102 8.19194 4.05789ZM11.0357 6.78108L8.34381 4.98639L8.34375 4.98652V6.58908L9.83481 7.5847L11.0357 6.78108ZM7.65625 6.58914V4.98639L4.96425 6.78114L6.16512 7.58464L7.65625 6.58914ZM5.54912 7.99983L4.6875 7.42389V8.57577L5.54912 7.99983ZM4.96425 9.21858L7.65625 11.0133V9.41058L6.16512 8.41502L4.96425 9.21858ZM6.78575 7.99983L8 8.81233L9.21425 7.99983L8 7.18733L6.78575 7.99983ZM8.34375 9.41058V11.0133H8.34381L11.0357 9.21858L9.83481 8.41502L8.34375 9.41058ZM10.4509 7.99983L11.3125 8.57577V7.42395L10.4509 7.99983Z" />
</svg>
