<svg xmlns="http://www.w3.org/2000/svg" width="16" height="16" viewBox="0 0 16 16">
<path d="M2 2L2.96172 12.7968L7.27706 14L11.6045 12.7924L12.5669 2H2ZM10.569 4.47359L10.2489 8.07035L10.2498 8.08976L10.2485 8.13443V8.13405L10.021 10.649L9.99598 10.8724L7.28347 11.6226V11.6227L7.28137 11.6245L4.57354 10.8701L4.39019 8.79085H5.71804L5.81225 9.84812L7.28385 10.247L7.28347 10.2477V10.2475L8.76053 9.84305L8.91662 8.12133H5.82889L5.8024 7.83028L5.74204 7.14842L5.71038 6.78229H9.03398L9.15487 5.44325H4.09273L4.06623 5.15239L4.00598 4.47034L3.97422 4.10421H10.6007L10.569 4.47359V4.47359Z"/>
</svg>
