<svg xmlns="http://www.w3.org/2000/svg" width="16" height="16" viewBox="0 0 16 16">
  <path d="M13.989 4.137V4.13a.214.214 0 0 0-.04-.066.214.214 0 0 0-.063-.046.213.213 0 0 0-.073-.017H2.2a.213.213 0 0 0-.073.017.214.214 0 0 0-.063.046.213.213 0 0 0-.05.074v.009A.211.211 0 0 0 2 4.209v7.428a.214.214 0 0 0 .214.214h11.572a.215.215 0 0 0 .214-.214V4.21a.214.214 0 0 0-.011-.072Zm-.418 6.943-3.534-3.156 3.534-3.23v6.386ZM2.43 4.694 5.857 7.83 2.43 11.004v-6.31Zm7.14 3.069a.203.203 0 0 0-.022.017v.009L8 9.204 2.767 4.423h10.466L9.57 7.763Zm-3.395.356 1.681 1.534a.214.214 0 0 0 .286 0l1.571-1.439 3.599 3.209H2.607l3.569-3.304Z"/>
</svg>
