<svg xmlns="http://www.w3.org/2000/svg" width="16" height="16" viewBox="0 0 16 16">
<path d="M2.3725 14L1.99733 13.6248L4.22719 11.395C2.2404 10.1057 1.42666 8.12417 1.41081 8.09775C1.38439 8.03435 1.38439 7.96565 1.41081 7.90225C1.43194 7.85997 3.22851 3.51123 7.99997 3.51123C9.32098 3.51123 10.4148 3.84412 11.3025 4.32497L13.6274 2L14.0026 2.37517L11.7728 4.60502C13.7596 5.89432 14.5733 7.87583 14.5891 7.90225C14.6156 7.96565 14.6156 8.03435 14.5891 8.09775C14.568 8.14531 12.7714 12.4941 7.99997 12.4941C6.67897 12.4941 5.58518 12.1612 4.69746 11.6803L2.3725 14ZM5.07791 11.2946C5.8758 11.6962 6.84277 11.9657 7.99997 11.9657C12.0739 11.9657 13.7701 8.63672 14.0555 8.00264C13.8705 7.5852 13.0779 6.01057 11.4029 4.9749L9.89165 6.48613C10.2351 6.89828 10.4412 7.42668 10.4412 8.00264C10.4412 9.31308 9.37382 10.3804 8.06338 10.3804C7.48742 10.3804 6.95902 10.1744 6.54687 9.83091L5.07791 11.2946ZM1.94449 8.00264C2.12943 8.42008 2.92203 9.99472 4.59707 11.0304L6.1717 9.45575C5.85995 9.05416 5.67501 8.55218 5.67501 8.00793C5.67501 6.69749 6.74238 5.63012 8.05281 5.63012C8.59707 5.63012 9.09905 5.81506 9.50063 6.12682L10.9115 4.71598C10.1241 4.30911 9.15717 4.03963 7.99997 4.03963C3.926 4.03963 2.22983 7.36856 1.94449 8.00264ZM6.91675 9.45575C7.23379 9.70409 7.63009 9.85205 8.0581 9.85205C9.07791 9.85205 9.9075 9.02246 9.9075 8.00264C9.9075 7.57464 9.75955 7.17834 9.5112 6.86129L6.91675 9.45575ZM8.0581 6.15324C7.03828 6.15324 6.20869 6.98283 6.20869 8.00264C6.20869 8.40423 6.33551 8.77411 6.55215 9.0753L9.13075 6.4967C8.82956 6.28005 8.45968 6.15324 8.0581 6.15324Z"/>
</svg>
