<svg xmlns="http://www.w3.org/2000/svg" width="16" height="16" viewBox="0 0 16 16">
<path d="M7.99998 12.7635C2.93948 12.7635 1.03409 8.15136 0.994861 8.10653C0.968347 8.03995 0.968347 7.96575 0.994861 7.89918C1.03409 7.84874 2.93948 3.23657 7.99998 3.23657C13.0605 3.23657 14.9659 7.84874 15.0051 7.89357C15.0316 7.96015 15.0316 8.03435 15.0051 8.10092C14.9659 8.15136 13.0605 12.7635 7.99998 12.7635ZM1.55527 8.00005C1.88031 8.67254 3.67922 12.2031 7.99998 12.2031C12.3207 12.2031 14.1196 8.67254 14.4447 8.00005C14.1196 7.32756 12.3207 3.79698 7.99998 3.79698C3.67922 3.79698 1.88031 7.32756 1.55527 8.00005ZM7.99998 10.5219C7.5012 10.5219 7.01363 10.374 6.59892 10.0969C6.1842 9.81978 5.86097 9.42592 5.6701 8.96512C5.47923 8.50431 5.42928 7.99725 5.52659 7.50806C5.6239 7.01887 5.86408 6.56952 6.21676 6.21684C6.56945 5.86415 7.0188 5.62397 7.50799 5.52667C7.99718 5.42936 8.50424 5.4793 8.96504 5.67017C9.42585 5.86104 9.81971 6.18428 10.0968 6.59899C10.3739 7.0137 10.5218 7.50128 10.5218 8.00005C10.5218 8.66888 10.2561 9.31032 9.78319 9.78326C9.31025 10.2562 8.66881 10.5219 7.99998 10.5219ZM7.99998 6.03862C7.61204 6.03862 7.23282 6.15365 6.91026 6.36918C6.58771 6.5847 6.3363 6.89104 6.18785 7.24944C6.03939 7.60785 6.00055 8.00223 6.07623 8.38271C6.15191 8.76319 6.33872 9.11268 6.61303 9.38699C6.88734 9.6613 7.23684 9.84811 7.61732 9.92379C7.9978 9.99948 8.39218 9.96063 8.75058 9.81218C9.10899 9.66372 9.41532 9.41232 9.63085 9.08976C9.84637 8.76721 9.96141 8.38798 9.96141 8.00005C9.96141 7.47985 9.75476 6.98095 9.38692 6.61311C9.01908 6.24527 8.52018 6.03862 7.99998 6.03862Z"/>
</svg>
