<svg width="16" height="16" viewBox="0 0 16 16" fill="none" xmlns="http://www.w3.org/2000/svg">
<path d="M8.67654 3.8278C8.45171 3.61393 8.57446 3.05652 8.57446 3.05652C8.57446 3.05652 8.58457 3.01588 8.60832 2.94935C8.74496 2.56673 9.3331 1.32765 11.0471 2.03571L10.6161 2.14913C10.6161 2.14913 11.9998 2.22481 11.9998 4.46297C11.9998 6.70113 11.9998 9.74849 11.9998 9.74849C11.9998 9.74849 10.9411 10.6897 9.61795 9.13601C8.2948 7.58229 8.6613 5.25764 8.6613 5.25764C8.6613 5.25764 8.90137 4.04166 8.67654 3.8278Z" fill="#635F5A"/>
<path d="M7.78101 3.44214C9.35332 3.44214 10.6279 4.71675 10.6279 6.28906V6.87886C10.6279 8.45118 9.35332 9.72579 7.78101 9.72579C6.20869 9.72579 4.93408 8.45118 4.93408 6.87886V6.28906C4.93408 4.71675 6.20869 3.44214 7.78101 3.44214Z" fill="#635F5A"/>
<path d="M4.07206 14.2695C4.07206 14.2695 3.89621 11.8773 6.1477 11.654H7.15717V11.189C7.15717 11.189 7.86726 11.494 8.58631 11.223L8.60899 11.654H9.78859C9.78859 11.654 11.8086 11.7333 11.7168 14.2922L4.07206 14.2695Z" fill="white"/>
<path d="M11.7101 14.3648H4.14669H4L4.03661 13.7393C4.10811 12.518 5.07037 11.5859 6.17154 11.5859H7.00959V11.7107H6.23839C5.17709 11.7107 4.24966 12.6079 4.18076 13.7834L4.15533 14.2174H11.6902L11.6761 13.7834C11.6072 12.6079 10.6797 11.7107 9.61844 11.7107H8.58617V11.5859H9.67857C10.7797 11.5859 11.742 12.518 11.8135 13.7393L11.8501 14.3648H11.7101Z" fill="#635F5A"/>
<path d="M7.83068 12.9924C7.22305 12.9924 6.73047 12.4998 6.73047 11.8922C6.73047 11.7859 6.74585 11.6832 6.77399 11.5859H6.77584H6.89259H7.09342V11.7107H6.86087C6.84986 11.7695 6.84389 11.8301 6.84389 11.8922C6.84389 12.4372 7.28569 12.879 7.83068 12.879C8.37566 12.879 8.81746 12.4372 8.81746 11.8922C8.81746 11.8301 8.81149 11.7695 8.80048 11.7107H8.56793V11.5859H8.76876H8.88551H8.88736C8.9155 11.6832 8.93088 11.7859 8.93088 11.8922C8.93088 12.4998 8.4383 12.9924 7.83068 12.9924Z" fill="#635F5A"/>
<path d="M7.15699 11.1365V11.8361C7.15699 12.1991 7.45152 12.4934 7.81485 12.4934C8.17817 12.4934 8.4727 12.1991 8.4727 11.8361V11.151C8.51088 11.1394 8.5487 11.1267 8.58613 11.1131V11.8409C8.58613 12.2701 8.23827 12.6182 7.80918 12.6182C7.38008 12.6182 7.03223 12.2701 7.03223 11.8409V11.0916C7.07332 11.1078 7.11494 11.1227 7.15699 11.1365Z" fill="#635F5A"/>
<path d="M7.83743 4.25879C9.27373 4.25879 10.3663 5.51842 10.3079 6.95977L10.2285 8.91578C10.0038 10.2438 9.08823 11.2025 7.84745 11.3364C6.63712 11.2092 5.70362 10.2434 5.44633 8.91578L5.36699 6.95977C5.30852 5.51842 6.40114 4.25879 7.83743 4.25879Z" fill="white"/>
<path fill-rule="evenodd" clip-rule="evenodd" d="M10.467 6.8768L10.3826 8.92058C10.1434 10.3082 9.16895 11.3099 7.84839 11.4498C6.56024 11.3169 5.56672 10.3078 5.29288 8.92058L5.20844 6.8768C5.14622 5.37078 6.30908 4.05463 7.83773 4.05463C9.36637 4.05463 10.5292 5.37078 10.467 6.8768ZM7.8379 4.21342C6.40161 4.21342 5.30899 5.47305 5.36746 6.9144L5.4468 8.87041C5.70409 10.1981 6.63759 11.1638 7.84793 11.291C9.0887 11.1571 10.0042 10.1984 10.229 8.87041L10.3083 6.9144C10.3668 5.47305 9.2742 4.21342 7.8379 4.21342Z" fill="#635F5A"/>
<path d="M9.06269 9.62598C8.85653 9.80499 8.39087 9.97531 7.84907 9.97531C7.30726 9.97531 6.8416 9.80499 6.63544 9.62598C6.63544 9.62598 6.61434 9.56794 6.64529 9.53699C6.67681 9.50547 6.72617 9.51233 6.72617 9.51233C6.93212 9.69147 7.30705 9.8392 7.84907 9.8392C8.39108 9.8392 8.76601 9.69147 8.97196 9.51233C8.97196 9.51233 9.02233 9.49362 9.04681 9.51809C9.09394 9.56523 9.06269 9.62598 9.06269 9.62598Z" fill="#635F5A"/>
<path d="M7.47461 10.2476H8.20052V10.361H7.47461V10.2476Z" fill="#635F5A"/>
<path d="M5.22709 7.12681C5.22678 7.12683 5.19924 7.10484 5.14725 7.08847C5.12126 7.0803 5.08896 7.07358 5.05214 7.07193C5.04295 7.07151 5.03349 7.07141 5.02381 7.07169C5.01412 7.07196 5.00422 7.07261 4.99415 7.07369C4.97402 7.07584 4.95323 7.0797 4.93231 7.08572C4.84854 7.10979 4.76309 7.16832 4.7129 7.28913C4.68771 7.34954 4.67109 7.42552 4.66669 7.52059C4.6656 7.54436 4.66526 7.56932 4.66574 7.59552C4.66622 7.62173 4.66753 7.64919 4.6697 7.67795C4.67404 7.73546 4.68189 7.79819 4.69358 7.86654C4.69332 7.86647 4.68268 8.0731 4.75654 8.31052C4.82599 8.54264 4.99274 8.82779 5.30063 8.90928C5.26522 8.31967 5.26412 7.71901 5.22709 7.12681Z" fill="white"/>
<path d="M5.2624 7.1506C5.2624 7.1506 4.72604 6.98441 4.74491 7.53582C4.74491 7.53582 4.82477 8.33538 4.85944 8.40907C4.85944 8.40907 5.07009 8.8746 5.41772 8.89524L5.42194 9.04529C5.42194 9.04529 4.81093 8.96695 4.69292 8.26281L4.59977 7.62314C4.59977 7.62314 4.52745 6.77659 5.22899 6.99183L5.2624 7.1506Z" fill="#635F5A"/>
<path d="M5.08505 8.26147C5.08505 8.26147 5.05503 8.28415 5.02925 8.28415C5.00346 8.28415 4.97381 8.26147 4.97381 8.26147L4.91846 7.70367C4.91846 7.70367 4.99483 7.42897 5.31891 7.57414L5.32657 7.73364C5.32657 7.73364 5.04224 7.6328 5.04812 7.75836C5.05378 7.87923 5.08505 8.26147 5.08505 8.26147Z" fill="#635F5A"/>
<path fill-rule="evenodd" clip-rule="evenodd" d="M10.4639 7.13805C10.6046 7.11376 10.9371 7.10191 10.9221 7.53686C10.9221 7.53686 10.8419 8.33588 10.8071 8.40952C10.8071 8.40952 10.6541 8.74599 10.3936 8.85932C10.4091 8.58748 10.4177 8.31342 10.4263 8.03903C10.4358 7.73825 10.4453 7.43709 10.4639 7.13805Z" fill="white"/>
<path d="M10.5805 8.26195C10.5805 8.26195 10.6106 8.28462 10.6365 8.28462C10.6624 8.28462 10.6922 8.26195 10.6922 8.26195L10.7478 7.70453C10.7478 7.70453 10.6711 7.43002 10.3456 7.57509L10.3379 7.73448C10.3379 7.73448 10.6235 7.63371 10.6176 7.75919C10.6119 7.87997 10.5805 8.26195 10.5805 8.26195Z" fill="#635F5A"/>
<path fill-rule="evenodd" clip-rule="evenodd" d="M8.04782 8.21729C8.06105 8.21729 8.07428 8.21729 8.08751 8.21729C8.16959 8.32875 8.20298 8.50004 8.24631 8.64829C8.25973 8.69424 8.24671 8.7746 8.23496 8.80709C8.19196 8.92606 8.05692 8.92393 7.94573 8.97722C7.91588 8.99153 7.89366 9.01624 7.855 9.02259C7.82979 9.00038 7.79935 8.99602 7.78694 8.96021C7.75631 8.91803 7.79579 8.89169 7.82664 8.87514C7.88263 8.84511 8.05548 8.81552 8.07617 8.76172C8.10178 8.73259 8.08475 8.64501 8.07617 8.61427C8.0542 8.53552 8.04365 8.46978 8.01379 8.39876C7.99395 8.35159 7.95913 8.30185 7.97976 8.24564C7.99686 8.2383 8.03381 8.22995 8.04782 8.21729Z" fill="#635F5A"/>
<path d="M6.47666 7.34393H6.63546C6.72316 7.34393 6.79425 7.41503 6.79425 7.50273C6.79425 7.59042 6.72316 7.66152 6.63546 7.66152H6.47666C6.38896 7.66152 6.31787 7.59042 6.31787 7.50273C6.31787 7.41503 6.38896 7.34393 6.47666 7.34393Z" fill="#635F5A"/>
<path d="M9.0626 7.34393H9.22139C9.30909 7.34393 9.38019 7.41503 9.38019 7.50273C9.38019 7.59042 9.30909 7.66152 9.22139 7.66152H9.0626C8.9749 7.66152 8.90381 7.59042 8.90381 7.50273C8.90381 7.41503 8.9749 7.34393 9.0626 7.34393Z" fill="#635F5A"/>
<path d="M9.20983 8.09253C9.36643 8.09253 9.49339 8.21948 9.49339 8.37609C9.49339 8.53269 9.36643 8.65965 9.20983 8.65965C9.05322 8.65965 8.92627 8.53269 8.92627 8.37609C8.92627 8.21948 9.05322 8.09253 9.20983 8.09253Z" fill="#FBF6F1"/>
<path d="M6.4652 8.09253C6.6218 8.09253 6.74876 8.21948 6.74876 8.37609C6.74876 8.53269 6.6218 8.65965 6.4652 8.65965C6.30859 8.65965 6.18164 8.53269 6.18164 8.37609C6.18164 8.21948 6.30859 8.09253 6.4652 8.09253Z" fill="#FBF6F1"/>
<path fill-rule="evenodd" clip-rule="evenodd" d="M10.3087 7.00896C10.2933 7.14002 10.2799 7.30039 10.2515 7.44377C10.1668 7.87252 9.79838 8.26976 9.16931 8.31502C8.54024 8.36028 8.00485 8.04359 7.97347 7.60768C7.96815 7.53377 7.95392 7.45082 7.943 7.37019C7.85398 7.32083 7.76222 7.32072 7.66773 7.36985C7.6567 7.45231 7.64193 7.53744 7.63649 7.61312C7.60501 8.05048 7.06793 8.36822 6.43688 8.32281C5.80583 8.27739 5.43625 7.87884 5.35124 7.44867C5.32282 7.30481 5.3093 7.14391 5.2939 7.01242L5.20117 7.00574L5.2142 6.82473L5.23682 6.82636L5.81072 6.86766L6.29516 6.90252L6.78049 6.93745L7.53644 6.99185C7.58858 6.99844 7.62325 7.0208 7.64557 7.05418C7.75414 7.1017 7.85957 7.10189 7.96188 7.05474C7.984 7.01921 8.01914 6.9953 8.0732 6.98846L8.82677 6.93424L9.31058 6.89943L9.79349 6.86468L10.3656 6.82352L10.3881 6.8219L10.4011 7.00231L10.3087 7.00896ZM7.33345 7.20456L5.85191 7.09794C5.65813 7.08124 5.58945 7.29899 5.57751 7.46495C5.55233 7.81484 5.94218 8.128 6.44828 8.16442C6.95437 8.20084 7.38505 7.94672 7.41022 7.59683C7.42217 7.43087 7.47637 7.32838 7.33345 7.20456ZM10.026 7.46C10.0141 7.29459 9.9456 7.07755 9.75244 7.0942L8.27555 7.20047C8.13308 7.32388 8.18712 7.42604 8.19902 7.59145C8.22412 7.94018 8.65345 8.19346 9.15795 8.15716C9.66245 8.12086 10.0511 7.80873 10.026 7.46Z" fill="#635F5A"/>
<path d="M5.41007 5.3703L6.23806 4.31546L6.98666 3.96385L7.99613 3.80505L9.15304 3.87311L10.7069 5.48372L10.2873 7.00359C10.2873 7.00359 10.1911 6.33329 9.67479 5.8013C9.19319 5.30508 8.88083 5.18315 8.88083 5.18315C8.88083 5.18315 8.6987 5.9181 7.48572 5.89204C5.31003 5.84531 5.40667 7.3904 5.33068 7.52534C5.32233 7.54017 5.31934 6.87883 5.31934 6.87883L5.41007 5.3703Z" fill="#635F5A"/>
</svg>
