<svg xmlns="http://www.w3.org/2000/svg" width="16" height="16" viewBox="0 0 16 16">
  <path d="M7.609 2c-3.078 0-4.99 1.78-4.99 4.639 0 .407.06.809.123 1.239.17 1.158.347 2.36-.685 3.66a.24.24 0 0 0-.053.196c.013.07.06.131.123.17.047.03 1.167.708 3.725.971C6.5 13.6 7.243 14 7.96 14c.72 0 1.47-.398 2.117-1.125 2.557-.265 3.746-.933 3.795-.962a.26.26 0 0 0 .123-.18.239.239 0 0 0-.052-.203c-1.048-1.25-.907-2.312-.756-3.44.054-.403.114-.822.114-1.248 0-1.704-.821-3.692-3.127-3.758C9.198 2.187 8.244 2 7.609 2Zm2.275 4.003a3.961 3.961 0 0 1 1.168 2.853c0 2.001-1.34 3.595-1.353 3.611-.002.003.003.005 0 .008-.553.646-1.17 1.003-1.739 1.003-.57 0-1.193-.36-1.748-1.01-.002-.004-.007-.006-.009-.009-.013-.011-1.335-1.18-1.335-2.894 0-1.305 1.208-1.58 2.275-1.818.22-.049.426-.092.615-.146 1.262-.363 1.867-1.134 2.126-1.598Zm-3.47 2.78c-.233 0-.422.175-.422.39 0 .217.19.392.422.392.233 0 .422-.175.422-.391 0-.216-.19-.391-.422-.391Zm3.092 0c-.233 0-.422.175-.422.39 0 .217.19.392.422.392.233 0 .422-.175.422-.391 0-.216-.189-.391-.422-.391Z"/>
</svg>
