<svg xmlns="http://www.w3.org/2000/svg" width="16" height="16" viewBox="0 0 16 16">
<path fill-rule="evenodd" clip-rule="evenodd" d="M8 6.333C7.081 6.333 6.3335 7.081 6.3335 8C6.3335 8.919 7.081 9.6665 8 9.6665C8.919 9.6665 9.6665 8.919 9.6665 8C9.6665 7.081 8.919 6.333 8 6.333ZM8 10.1665C6.805 10.1665 5.8335 9.195 5.8335 8C5.8335 6.805 6.805 5.833 8 5.833C9.195 5.833 10.1665 6.805 10.1665 8C10.1665 9.195 9.195 10.1665 8 10.1665ZM7.4035 13.5H8.5965C8.786 12.948 8.9305 12.2745 9.65 11.975C10.398 11.6665 10.983 12.073 11.4675 12.311L12.3105 11.467C12.0565 10.9435 11.6775 10.3675 11.976 9.6465C12.2595 8.962 12.8455 8.815 13.5 8.597V7.403C12.8825 7.1925 12.2645 7.049 11.9765 6.354C11.6905 5.664 12.005 5.1565 12.311 4.5325L11.4675 3.6895C10.909 3.963 10.357 4.318 9.6465 4.0235C8.9595 3.738 8.8185 3.1565 8.5965 2.5H7.4035C7.1915 3.1155 7.0515 3.734 6.354 4.023C6.1715 4.0995 5.995 4.136 5.8155 4.136C5.394 4.136 5.046 3.94 4.5325 3.6895L3.689 4.5325C3.976 5.12 4.3145 5.651 4.0235 6.354C3.738 7.0415 3.1565 7.181 2.5 7.403V8.597C3.113 8.806 3.734 8.9495 4.0235 9.646C4.314 10.3475 3.986 10.862 3.689 11.4675L4.5325 12.311C5.2575 11.9485 5.71 11.709 6.3535 11.9765C7.0425 12.2625 7.181 12.8455 7.4035 13.5ZM8.9505 14H7.049C6.7085 13.041 6.6565 12.6435 6.1625 12.4385C5.66 12.229 5.297 12.5045 4.4295 12.9145L3.085 11.57C3.5215 10.6515 3.7685 10.3375 3.5615 9.8375C3.3555 9.342 2.9655 9.294 2 8.951V7.049C2.953 6.71 3.356 6.658 3.5615 6.1625C3.767 5.667 3.526 5.356 3.085 4.4295L4.4295 3.0855C5.3 3.4995 5.6625 3.768 6.162 3.562C6.658 3.356 6.703 2.9695 7.0495 2H8.9505C9.2915 2.959 9.3445 3.357 9.8375 3.5615C10.338 3.7695 10.692 3.502 11.571 3.0855L12.9145 4.4295C12.4755 5.353 12.234 5.668 12.4385 6.162C12.644 6.658 13.0345 6.7055 14 7.049V8.9515C13.047 9.29 12.6435 9.3425 12.438 9.838C12.2365 10.3255 12.46 10.6185 12.915 11.57L11.571 12.9145C10.707 12.5045 10.3375 12.2295 9.843 12.437C9.349 12.642 9.303 13.01 8.9505 14Z"/>
</svg>
