<svg xmlns="http://www.w3.org/2000/svg" width="16" height="16" viewBox="0 0 16 16">
<path d="M13.7739 7.46426L8.53561 2.22624C8.23415 1.92459 7.74488 1.92459 7.44294 2.22624L6.35541 3.31407L7.73519 4.69385C8.05595 4.5856 8.42356 4.65821 8.67912 4.91377C8.80092 5.03567 8.88594 5.18939 8.92448 5.35734C8.96302 5.52529 8.95351 5.7007 8.89705 5.8635L10.2268 7.19349C10.5486 7.08258 10.9199 7.15424 11.1767 7.4116C11.5359 7.77057 11.5359 8.3525 11.1767 8.71165C11.0913 8.79706 10.9899 8.86482 10.8784 8.91105C10.7668 8.95728 10.6472 8.98107 10.5265 8.98107C10.4057 8.98107 10.2861 8.95728 10.1745 8.91105C10.063 8.86482 9.96162 8.79706 9.87624 8.71165C9.74798 8.58331 9.66054 8.41989 9.62494 8.24196C9.58935 8.06403 9.60717 7.87955 9.67618 7.71174L8.43611 6.47157L8.43592 9.73532C8.52589 9.77963 8.60804 9.83831 8.67912 9.90905C9.03828 10.268 9.03828 10.8498 8.67912 11.2095C8.31997 11.5684 7.73785 11.5684 7.37908 11.2095C7.02002 10.8499 6.99056 10.2681 7.34952 9.90905C7.43829 9.82038 7.52582 9.75338 7.62086 9.70852V6.41454C7.52582 6.36968 7.43838 6.30316 7.34943 6.21391C7.07752 5.9421 7.02667 5.54293 7.16619 5.20878L5.81349 3.84847L2.22536 7.44002C1.92361 7.74196 1.92551 8.23123 2.22727 8.53298L7.46642 13.771C7.76798 14.0726 8.25762 14.0726 8.55966 13.771L13.7735 8.55731C14.0753 8.25546 14.0756 7.76591 13.7739 7.46426V7.46426Z"/>
</svg>
