<svg xmlns="http://www.w3.org/2000/svg" width="16" height="16" viewBox="0 0 16 16" fill="none">
<path fill-rule="evenodd" clip-rule="evenodd" d="M8 14C11.3137 14 14 11.3137 14 8C14 4.68629 11.3137 2 8 2C4.68629 2 2 4.68629 2 8C2 11.3137 4.68629 14 8 14ZM8 4.7229C7.20225 4.72322 6.43063 5.00733 5.82315 5.52442C5.21568 6.0415 4.81197 6.75784 4.68423 7.5453C4.5565 8.33276 4.71307 9.13998 5.12595 9.82258C5.53882 10.5052 6.18107 11.0186 6.93781 11.2711C7.10563 11.302 7.1675 11.1982 7.1675 11.1094C7.1675 11.0707 7.16679 10.9891 7.16587 10.8835V10.8826C7.16488 10.7694 7.16366 10.6288 7.16282 10.4838C6.22813 10.687 6.03078 10.0875 6.03078 10.0875C5.87797 9.69915 5.65766 9.59532 5.65766 9.59532C5.35297 9.38673 5.6811 9.39118 5.6811 9.39118C6.01836 9.41462 6.19672 9.73759 6.19672 9.73759C6.49649 10.2511 6.98281 10.1027 7.17453 10.0167C7.20477 9.79946 7.29172 9.65134 7.38781 9.56743C6.64063 9.48306 5.85594 9.19524 5.85594 7.90735C5.85124 7.57343 5.97519 7.2505 6.20211 7.00548C6.16719 6.92087 6.05211 6.57915 6.23469 6.11626C6.23469 6.11626 6.51594 6.02603 7.15883 6.46079C7.70964 6.31005 8.29083 6.31005 8.84164 6.46079C9.48289 6.02603 9.76485 6.11626 9.76485 6.11626C9.94766 6.57915 9.83258 6.92087 9.79789 7.00548C10.0249 7.25043 10.1487 7.57345 10.1436 7.90735C10.1436 9.19806 9.3575 9.48189 8.60938 9.56532C8.72985 9.66962 8.83719 9.87399 8.83719 10.1876C8.83719 10.4881 8.83552 10.7494 8.8344 10.9227V10.9228L8.83439 10.9241V10.9249C8.83385 11.0098 8.83344 11.0733 8.83344 11.1096C8.83344 11.1992 8.89391 11.3039 9.0643 11.2709C9.82104 11.0182 10.4632 10.5046 10.8759 9.8218C11.2887 9.13904 11.445 8.33171 11.317 7.54424C11.189 6.75676 10.785 6.04051 10.1773 5.52361C9.5696 5.00671 8.79781 4.72289 8 4.7229V4.7229ZM5.85497 9.55717C5.87887 9.56865 5.90512 9.5635 5.91262 9.54686V9.54662C5.92106 9.52998 5.907 9.50748 5.88262 9.496C5.85825 9.48452 5.83247 9.48967 5.82473 9.50655C5.817 9.52342 5.83106 9.54569 5.85497 9.55717V9.55717ZM6.0488 9.69899C6.03286 9.71375 6.00192 9.70696 5.98013 9.68352C5.95833 9.66008 5.95411 9.62868 5.97028 9.61321C5.98645 9.59774 6.01716 9.60524 6.03919 9.62868C6.06122 9.65211 6.06544 9.68352 6.0488 9.69899ZM6.10623 9.86354C6.12685 9.8926 6.1606 9.9069 6.18123 9.8926H6.18146C6.20185 9.87783 6.20279 9.84127 6.18146 9.81174C6.16013 9.78221 6.12685 9.76932 6.10623 9.78362C6.0856 9.79791 6.0856 9.83448 6.10623 9.86354ZM6.36258 10.0794C6.34407 10.0998 6.30493 10.0942 6.27633 10.0665C6.24774 10.0389 6.23883 10.0009 6.25712 9.98073C6.2754 9.96057 6.31524 9.9662 6.34407 9.99362C6.3729 10.021 6.38204 10.0592 6.36258 10.0794ZM6.52906 10.2151C6.56609 10.2263 6.60476 10.2143 6.61296 10.1881H6.61273C6.6207 10.1611 6.59515 10.1311 6.55788 10.1192C6.52062 10.1072 6.48124 10.1194 6.47374 10.1461C6.46624 10.1729 6.49202 10.2038 6.52906 10.2151V10.2151ZM6.88807 10.208C6.88807 10.2357 6.85667 10.2586 6.81776 10.2593C6.77885 10.26 6.7451 10.2378 6.74463 10.2103C6.74417 10.1829 6.77604 10.1597 6.81635 10.159C6.85667 10.1583 6.88901 10.1806 6.88901 10.208H6.88807ZM7.08141 10.2268C7.12055 10.2195 7.14868 10.1916 7.14399 10.1647V10.1644C7.13883 10.137 7.10251 10.1204 7.0636 10.1277C7.02469 10.1349 6.99634 10.1637 7.00126 10.1905C7.00618 10.2172 7.04227 10.2341 7.08141 10.2268V10.2268Z" fill="black"/>
</svg>
