<svg xmlns="http://www.w3.org/2000/svg" width="16" height="16" viewBox="0 0 16 16"><path fill-rule="evenodd" clip-rule="evenodd" d="M8 14c3.3137 0 6-2.6863 6-6 0-3.31371-2.6863-6-6-6-3.31371 0-6 2.68629-6 6 0 3.3137 2.68629 6 6 6Zm0-9.2771c-.79775.00032-1.56937.28443-2.17685.80152-.60747.51708-1.01118 1.23342-1.13892 2.02088-.12773.78746.02884 1.59468.44172 2.27728.41287.68262 1.05512 1.19602 1.81186 1.44852.16782.0309.22969-.0729.22969-.1617 0-.0387-.00071-.1203-.00163-.2259v-.0009c-.00099-.1132-.00221-.2538-.00305-.3988-.93469.2032-1.13204-.3963-1.13204-.3963-.15281-.38835-.37312-.49218-.37312-.49218-.30469-.20859.02344-.20414.02344-.20414.33726.02344.51562.34641.51562.34641.29977.51351.78609.36511.97781.27911.03024-.21724.11719-.36536.21328-.44927-.74718-.08437-1.53187-.37219-1.53187-1.66008-.0047-.33392.11925-.65685.34617-.90187-.03492-.08461-.15-.42633.03258-.88922 0 0 .28125-.09023.92414.34453.55081-.15074 1.132-.15074 1.68281 0 .64125-.43476.92321-.34453.92321-.34453.18281.46289.06773.80461.03304.88922.22701.24495.35081.56797.34571.90187 0 1.29071-.7861 1.57454-1.53422 1.65797.12047.1043.22781.30867.22781.62228 0 .3005-.00167.5618-.00279.7351v.0001l-.00001.0013v.0008c-.00054.0849-.00095.1484-.00095.1847 0 .0896.06047.1943.23086.1613.75674-.2527 1.3989-.7663 1.8116-1.4491.4128-.68276.5691-1.49009.4411-2.27756-.128-.78748-.532-1.50373-1.1397-2.02063C9.5696 5.00671 8.79781 4.72289 8 4.7229ZM5.85497 9.55717c.0239.01148.05015.00633.05765-.01031v-.00024c.00844-.01664-.00562-.03914-.03-.05062-.02437-.01148-.05015-.00633-.05789.01055-.00773.01687.00633.03914.03024.05062Zm.19383.14182c-.01594.01476-.04688.00797-.06867-.01547-.0218-.02344-.02602-.05484-.00985-.07031.01617-.01547.04688-.00797.06891.01547.02203.02343.02625.05484.00961.07031Zm.05743.16455c.02062.02906.05437.04336.075.02906h.00023c.02039-.01477.02133-.05133 0-.08086s-.05461-.04242-.07523-.02812c-.02063.01429-.02063.05086 0 .07992Zm.25635.21586c-.01851.0204-.05765.0148-.08625-.0129-.02859-.0276-.0375-.0656-.01921-.08577.01828-.02016.05812-.01453.08695.01289.02883.02738.03797.06558.01851.08578Zm.16648.1357c.03703.0112.0757-.0008.0839-.027h-.00023c.00797-.027-.01758-.057-.05485-.0689-.03726-.012-.07664.0002-.08414.0269-.0075.0268.01828.0577.05532.069Zm.35901-.0071c0 .0277-.0314.0506-.07031.0513-.03891.0007-.07266-.0215-.07313-.049-.00046-.0274.03141-.0506.07172-.0513.04032-.0007.07266.0216.07266.049h-.00094Zm.19334.0188c.03914-.0073.06727-.0352.06258-.0621v-.0003c-.00516-.0274-.04148-.044-.08039-.0367-.03891.0072-.06726.036-.06234.0628.00492.0267.04101.0436.08015.0363Z"/></svg>