<svg xmlns="http://www.w3.org/2000/svg" width="16" height="16" viewBox="0 0 16 16">
<path d="M14.6719 6.30399L8.12794 3.64799C8.09594 3.63199 8.04794 3.63199 8.01594 3.64799L1.53594 6.30399C1.47194 6.31999 1.43994 6.38399 1.43994 6.43199C1.43994 6.49599 1.47194 6.54399 1.53594 6.57599L2.28794 6.91199V6.92799V9.27999L1.27994 11.36C1.23194 11.472 1.23194 11.6 1.29594 11.712C1.35994 11.824 1.47194 11.888 1.59994 11.888H3.16794C3.29594 11.888 3.40794 11.824 3.47194 11.712C3.53594 11.6 3.55194 11.472 3.48794 11.36L2.47994 9.27999V7.00799H2.51194L3.71194 7.53599V10.224C3.71194 10.816 4.17594 11.376 5.03994 11.776C5.85594 12.16 6.94394 12.368 8.09594 12.368C9.24794 12.368 10.3359 12.16 11.1519 11.776C11.9999 11.376 12.4799 10.816 12.4799 10.224V7.51999L14.6559 6.57599C14.7039 6.55999 14.7519 6.49599 14.7519 6.43199C14.7679 6.38399 14.7359 6.31999 14.6719 6.30399ZM3.29594 11.584C3.26394 11.632 3.21594 11.648 3.16794 11.648H1.59994C1.55194 11.648 1.50394 11.616 1.47194 11.584C1.43994 11.536 1.43994 11.488 1.47194 11.44L2.39994 9.53599L3.31194 11.44C3.32794 11.488 3.31194 11.536 3.29594 11.584ZM12.2079 10.224C12.2079 10.464 12.1119 10.688 11.9199 10.912C11.7119 11.136 11.4239 11.344 11.0559 11.52C10.2719 11.888 9.23194 12.096 8.11194 12.096C6.99194 12.096 5.95194 11.888 5.16794 11.52C4.79994 11.344 4.51194 11.136 4.30394 10.912C4.11194 10.688 4.01594 10.464 4.01594 10.224V7.66399L8.01594 9.42399C8.03194 9.43999 8.04794 9.43999 8.07994 9.43999C8.09594 9.43999 8.12794 9.43999 8.14394 9.42399L12.2239 7.64799V10.224H12.2079ZM12.2879 7.29599L8.06394 9.13599L3.91994 7.31199L3.07194 6.94399L7.90394 6.28799C7.95194 6.35199 8.01594 6.39999 8.11194 6.39999C8.23994 6.39999 8.35194 6.28799 8.35194 6.15999C8.35194 6.03199 8.23994 5.91999 8.11194 5.91999C7.99994 5.91999 7.91994 5.98399 7.88794 6.07999L2.71994 6.78399L1.98394 6.46399L8.09594 3.95199L14.2399 6.44799L12.2879 7.29599Z"/>
</svg>
