<svg xmlns="http://www.w3.org/2000/svg" width="16" height="16" viewBox="0 0 16 16">
<path d="M2 2V14H14V2H2ZM8.34742 12.2252C8.1703 12.5852 7.83219 12.8216 7.44042 12.9357C6.8384 13.074 6.26259 12.9952 5.83424 12.7381C5.54758 12.5622 5.32371 12.2915 5.17174 11.9796L6.08566 11.4199C6.09363 11.4233 6.11763 11.4667 6.1497 11.5227C6.26624 11.718 6.36675 11.8562 6.56432 11.9533C6.75843 12.0195 7.18458 12.0619 7.34912 11.7203C7.44963 11.5465 7.41766 10.988 7.41766 10.37C7.41757 9.39901 7.42208 8.432 7.42208 7.472H8.54614C8.54614 8.528 8.5519 9.52813 8.54614 10.5586C8.54854 11.1903 8.60336 11.7534 8.34742 12.2252ZM13.0105 11.9077C12.6198 13.2442 10.4414 13.2876 9.57085 12.4046C9.38691 12.1967 9.27162 12.0882 9.16189 11.8483C9.62451 11.5821 9.62451 11.5821 10.0747 11.3217C10.3192 11.6975 10.5452 11.9042 10.952 11.9888C11.5038 12.0562 12.059 11.8666 11.9345 11.2805C11.8065 10.8019 10.8045 10.6854 10.1227 10.1735C9.4304 9.70861 9.26816 8.57888 9.83706 7.93338C10.0267 7.69462 10.35 7.51645 10.6892 7.43082L11.0433 7.38502C11.7231 7.3713 12.148 7.55082 12.4599 7.8991C12.5467 7.98704 12.6175 8.08189 12.75 8.28742C12.3879 8.51821 12.389 8.516 11.8703 8.85181C11.7596 8.61315 11.5757 8.46339 11.3814 8.3983C11.0798 8.30691 10.6994 8.40627 10.6205 8.72499C10.5932 8.8232 10.5988 8.91459 10.6423 9.07683C10.7645 9.35552 11.1746 9.47667 11.5425 9.64573C12.6015 10.0752 12.9591 10.5357 13.047 11.0839C13.1317 11.5558 13.0266 11.862 13.0105 11.9077V11.9077Z"/>
</svg>
