<svg xmlns="http://www.w3.org/2000/svg" width="16" height="16" viewBox="0 0 16 16">
<path d="M13.6596 7.90958C13.6596 7.18698 13.1121 6.5789 12.3771 6.40539L14.0232 2H5.86533L7.51523 6.41929C6.80334 6.6068 6.27858 7.20427 6.27858 7.91325C6.27858 8.43424 6.56585 8.89625 7.00221 9.18108C6.83011 9.40344 6.63086 9.60851 6.40512 9.80297C5.98022 10.1645 5.50901 10.4422 5.00004 10.6265C4.54066 10.345 4.34169 9.84816 4.5215 9.40335C5.22202 9.20889 5.73146 8.6148 5.73146 7.91653C5.73146 7.05857 4.9619 6.36349 4.01985 6.36349C3.07423 6.36349 2.30513 7.06185 2.30513 7.9201C2.30513 8.34406 2.49631 8.73298 2.80274 9.01076C2.77588 9.05961 2.7492 9.10799 2.72233 9.16013C2.46587 9.6398 2.17484 10.1817 2.06361 10.7898C1.84163 12.0055 2.20527 12.982 3.08194 13.5343C3.57588 13.8437 4.11971 14 4.70543 14C5.71192 14 6.73429 13.5413 7.7218 13.0965C8.42637 12.7805 9.15366 12.4502 9.86959 12.2906C10.1338 12.2316 10.4094 12.1967 10.7004 12.1586C11.2897 12.0822 11.8985 12.0022 12.446 11.7138C13.0853 11.377 13.5217 10.814 13.6482 10.1678C13.7436 9.67089 13.6482 9.17075 13.403 8.73298C13.5705 8.4911 13.66 8.20378 13.6595 7.90958H13.6596ZM12.9132 7.90958C12.9132 8.39244 12.4805 8.78512 11.9484 8.78512C11.4163 8.78512 10.9836 8.39244 10.9836 7.90958C10.9836 7.75317 11.0296 7.6039 11.1099 7.47538C11.1404 7.42653 11.1789 7.37815 11.217 7.33635C11.2573 7.29336 11.3023 7.25495 11.351 7.22184L11.3551 7.21817C11.3855 7.19732 11.42 7.17637 11.4545 7.15579C11.4545 7.15579 11.4582 7.15579 11.4582 7.15213C11.4735 7.14518 11.489 7.13485 11.5045 7.12789C11.5081 7.12789 11.5118 7.12423 11.5157 7.12423C11.5312 7.11765 11.5503 7.1107 11.5693 7.10366C11.5874 7.09733 11.6053 7.09038 11.6229 7.0828C11.6267 7.0828 11.6306 7.07904 11.6343 7.07904C11.6497 7.07585 11.6651 7.0688 11.6802 7.06552C11.6843 7.06552 11.692 7.06185 11.6956 7.06185C11.7147 7.05856 11.7301 7.0549 11.7492 7.05152H11.7532L11.8105 7.0409C11.8145 7.0409 11.8218 7.0409 11.8258 7.03762C11.8412 7.03762 11.8564 7.03395 11.8718 7.03395H11.8908C11.9099 7.03395 11.9294 7.03066 11.9521 7.03066H12.002C12.017 7.03066 12.0288 7.03066 12.0439 7.03395H12.0516C12.0824 7.03771 12.1128 7.0409 12.1436 7.04795C12.58 7.13118 12.9132 7.48572 12.9132 7.90958V7.90958ZM6.93316 2.6947H12.955L11.573 6.39477C11.5157 6.40539 11.4581 6.42258 11.4009 6.43987L9.94634 3.7475L8.48762 6.42249C8.43003 6.4053 8.36878 6.39468 8.30781 6.38435L6.93316 2.6947ZM9.67034 7.60709C9.59772 7.28045 9.41388 6.98877 9.15366 6.77336L9.94634 5.3213L10.7463 6.80455C10.5089 7.01995 10.3367 7.29445 10.2677 7.60709H9.67034ZM7.75262 7.05847C7.77169 7.05471 7.78709 7.05152 7.80616 7.04786H7.81753C7.83294 7.04457 7.84844 7.04457 7.86347 7.04081H7.87887C7.89428 7.04081 7.90565 7.03752 7.92105 7.03752H8.07042C8.08545 7.03752 8.09719 7.04081 8.10856 7.04081C8.11626 7.04081 8.11993 7.04081 8.12763 7.04457C8.14304 7.04786 8.1544 7.04786 8.16991 7.05152C8.17348 7.05152 8.17751 7.05152 8.18522 7.05481C8.20438 7.05847 8.22345 7.06176 8.23876 7.06542H8.24252C8.25793 7.06871 8.27334 7.072 8.28837 7.07904C8.29241 7.07904 8.29607 7.08271 8.30377 7.08271C8.31514 7.086 8.33055 7.08966 8.34191 7.09661C8.34595 7.09661 8.34962 7.0999 8.35366 7.0999C8.36869 7.10694 8.38419 7.11061 8.39959 7.11756H8.40326C8.42233 7.12414 8.43773 7.13109 8.45314 7.1418H8.4569C8.47221 7.14875 8.48762 7.15899 8.50302 7.16594C8.50678 7.16594 8.50678 7.1697 8.51035 7.1697C8.52576 7.17627 8.53722 7.18689 8.55262 7.19384L8.55666 7.19713C8.60251 7.22841 8.64469 7.26326 8.68649 7.29812L8.69053 7.3014C8.72876 7.33954 8.7669 7.38135 8.79772 7.42653C8.8972 7.56557 8.95479 7.72893 8.95479 7.90611C8.95479 8.38906 8.52209 8.78136 7.99001 8.78136C7.45792 8.78136 7.02523 8.38906 7.02523 7.90611C7.02128 7.49953 7.33138 7.1557 7.75262 7.05847V7.05847ZM3.98537 7.03386C4.51755 7.03386 4.95015 7.42653 4.95015 7.90939C4.95015 8.39235 4.51755 8.78493 3.98537 8.78493C3.45329 8.78493 3.02059 8.39235 3.02059 7.90939C3.02059 7.42653 3.45329 7.03386 3.98537 7.03386V7.03386ZM12.8901 10.0463C12.806 10.4906 12.5032 10.88 12.0593 11.1126C11.642 11.3317 11.129 11.401 10.5892 11.4704C10.2946 11.5086 9.98448 11.5504 9.68575 11.6164C8.8895 11.7937 8.12397 12.1412 7.38127 12.4744C6.43189 12.9019 5.53578 13.3048 4.70543 13.3048C4.27274 13.3048 3.88598 13.1937 3.51867 12.961C2.67649 12.433 2.71829 11.4429 2.81815 10.9009C2.90984 10.3934 3.16639 9.91749 3.41148 9.46244C3.42651 9.43454 3.43826 9.4103 3.45329 9.3824C3.53774 9.4103 3.62576 9.43125 3.71755 9.44515C3.57222 10.1817 3.98537 10.9424 4.78942 11.3178L4.93503 11.3871L5.09182 11.335C5.7619 11.1196 6.38201 10.7688 6.9295 10.2997C7.2396 10.0356 7.50386 9.75084 7.72584 9.44149C7.81387 9.45548 7.90198 9.45915 7.99001 9.45915C8.78635 9.45915 9.45606 8.9622 9.64761 8.29512H10.2905C10.4821 8.96558 11.1521 9.45905 11.9484 9.45905C12.2662 9.45905 12.5609 9.3792 12.8133 9.24374C12.9132 9.50424 12.9436 9.77507 12.8901 10.0463V10.0463Z"/>
</svg>
