<svg xmlns="http://www.w3.org/2000/svg" width="16" height="16" viewBox="0 0 16 16">
<path d="M13.5028 2H7.72559C7.72559 3.44 8.89159 4.606 10.3315 4.606H11.394V5.63425C11.394 7.07425 12.56 8.24025 14 8.24025V2.49712C13.9999 2.36529 13.9475 2.23886 13.8543 2.14564C13.7611 2.05242 13.6347 2.00003 13.5028 2Z"/>
<path d="M10.6402 4.88001H4.86279C4.86279 6.31988 6.02842 7.48588 7.46829 7.48588H8.53129V8.51413C8.53129 9.95413 9.69729 11.1201 11.1373 11.1201V5.37701C11.1371 5.24522 11.0847 5.11889 10.9915 5.02571C10.8983 4.93252 10.772 4.88008 10.6402 4.87988V4.88001Z"/>
<path d="M7.77738 7.75977H2C2 9.19977 3.1655 10.3658 4.6055 10.3658H5.6685V11.394C5.6685 12.8345 6.8345 14 8.27437 14V8.25739C8.27424 8.12557 8.22185 7.99918 8.12869 7.90593C8.03553 7.81267 7.90919 7.76016 7.77738 7.75989V7.75977Z"/>
</svg>
