<svg width="16" height="16" xmlns="http://www.w3.org/2000/svg"><path d="M8.124 11.915c-.08-.018-.158-.042-.236-.066l-.058-.017a6.934 6.934 0 0 1-.227-.074l-.03-.011a6.765 6.765 0 0 1-.2-.074l-.057-.023a6.226 6.226 0 0 1-.215-.09l-.043-.018a8.745 8.745 0 0 1-.182-.085l-.053-.025c-.047-.023-.094-.048-.14-.072l-.095-.049a5.463 5.463 0 0 1-.168-.095l-.057-.031a7.584 7.584 0 0 1-.22-.135l-.06-.04a5.476 5.476 0 0 1-.155-.103l-.05-.036a8.95 8.95 0 0 1-.149-.106l-.065-.05a6.338 6.338 0 0 1-.133-.104l-.06-.048a8.436 8.436 0 0 1-.166-.14l-.018-.015a7.944 7.944 0 0 1-.174-.159l-.05-.047a5.491 5.491 0 0 1-.125-.123l-.05-.05a6.943 6.943 0 0 1-.153-.162l-.008-.008a6.341 6.341 0 0 1-.156-.178l-.04-.048a6.485 6.485 0 0 1-.113-.14l-.041-.05a7.565 7.565 0 0 1-.13-.173c-1.17-1.597-1.591-3.799-.655-5.607l-.83 1.052c-1.062 1.527-.93 3.514-.119 5.136l.06.116.038.073.024.042.042.076.077.133.045.072c.029.048.059.094.09.141l.038.06c.042.062.085.125.13.187l.004.005.022.03c.038.053.078.105.118.157l.045.057c.036.046.073.09.11.135l.042.05c.05.06.1.117.152.175l.004.003.006.006c.05.056.102.11.155.164l.05.05c.04.041.082.082.124.122l.05.048c.056.053.113.104.17.155l.003.002.03.025c.05.044.102.088.154.13l.064.052c.042.034.085.067.129.1l.068.052c.048.036.096.07.145.104l.052.037.015.01c.046.032.093.063.14.093l.06.04c.073.046.146.091.22.135l.06.034c.055.032.11.063.166.093l.09.047.119.061.027.013.048.024.187.086.04.018c.072.031.144.061.218.09l.053.021c.068.026.136.052.205.076l.026.01c.076.026.153.05.23.074l.055.017c.078.024.156.052.237.067 5.138.937 6.63-3.088 6.63-3.088-1.253 1.633-3.478 2.064-5.586 1.584ZM6.273 7.751c.115.165.242.361.395.494.056.061.114.12.173.179l.045.045c.057.056.116.11.176.163l.007.006.002.002c.067.059.136.115.206.17l.046.037c.07.054.142.106.215.157l.007.005.098.064.046.031c.053.034.106.066.16.098l.022.013.141.079.05.026.1.05.014.008c.068.033.136.065.206.095l.045.02.169.068.072.026c.052.02.103.036.155.054l.07.022c.074.023.147.052.224.065C13.084 10.385 14 7.331 14 7.331c-.826 1.189-2.425 1.756-4.13 1.313a4.872 4.872 0 0 1-.225-.065l-.068-.022a4.45 4.45 0 0 1-.157-.054l-.07-.026a5.529 5.529 0 0 1-.17-.068l-.046-.02a4.603 4.603 0 0 1-.206-.096c-.036-.017-.07-.035-.104-.053l-.06-.03a4.286 4.286 0 0 1-.132-.075l-.03-.017a4.625 4.625 0 0 1-.16-.098l-.048-.032a5.62 5.62 0 0 1-.317-.225l-.049-.037c-.746-.59-1.338-1.396-1.62-2.31-.295-.947-.231-2.01.28-2.874l-.628.886c-.768 1.106-.726 2.586-.127 3.755.1.197.214.387.34.568Zm4.181-1.368.099.034.043.014c.047.015.093.032.141.04 2.19.424 2.785-1.123 2.943-1.351-.52.75-1.395.93-2.468.669a3.21 3.21 0 0 1-1.109-.538c-.96-.73-1.557-2.119-.93-3.251l-.34.467c-.452.667-.497 1.495-.182 2.23.331.782 1.01 1.395 1.803 1.686Z"/></svg>