<svg xmlns="http://www.w3.org/2000/svg" width="16" height="16" viewBox="0 0 16 16">
<path fill-rule="evenodd" clip-rule="evenodd" d="M8 14C11.3137 14 14 11.3137 14 8C14 4.68629 11.3137 2 8 2C4.68629 2 2 4.68629 2 8C2 11.3137 4.68629 14 8 14ZM4.72574 6.85156H6.11957V11.3319H4.72574V6.85156ZM5.423 4.625C5.58268 4.62509 5.73874 4.67253 5.87145 4.7613C6.00417 4.85008 6.10759 4.97621 6.16863 5.12376C6.22967 5.2713 6.24559 5.43364 6.21438 5.59023C6.18318 5.74682 6.10624 5.89065 5.9933 6.00352C5.88036 6.11639 5.73649 6.19325 5.57988 6.22436C5.42327 6.25548 5.26095 6.23946 5.11344 6.17834C4.96593 6.11721 4.83985 6.01372 4.75115 5.88095C4.66245 5.74818 4.61511 5.59209 4.61511 5.43242C4.61514 5.32636 4.63606 5.22134 4.67668 5.12336C4.7173 5.02539 4.77682 4.93637 4.85184 4.86139C4.92685 4.78642 5.01591 4.72695 5.11391 4.68639C5.21191 4.64583 5.31694 4.62497 5.423 4.625ZM8.32812 6.8516H6.99219V11.331H8.38437V9.11496C8.38437 8.53043 8.495 7.96418 9.21945 7.96418C9.93406 7.96418 9.94297 8.63262 9.94297 9.15223V11.3319H11.3352V8.87496C11.3352 7.6684 11.0748 6.74051 9.66477 6.74051C8.98742 6.74051 8.53297 7.1127 8.34734 7.46426H8.32812V6.8516Z"/>
</svg>
