<svg xmlns="http://www.w3.org/2000/svg" width="16" height="16" viewBox="0 0 16 16">
<path id="left" d="M5.68134 11.7509L5.65472 11.6977C5.60156 11.5913 5.60156 11.4849 5.62818 11.3519H2.75553L7.0114 3.79792L8.79353 7.01643L9.37864 6.59079L7.59651 3.37229C7.56997 3.31913 7.35716 3 7.0114 3C6.85174 3 6.61239 3.05316 6.4262 3.39891L2.11717 11.0328C2.09055 11.1126 1.90435 11.4584 2.06392 11.7509C2.17033 11.9106 2.32999 12.0701 2.70237 12.0701H6.31979C5.94741 12.0701 5.76122 11.9106 5.68134 11.751V11.7509Z"/>
<path id="right" d="M13.8737 11.059L10.4158 4.83492C10.3626 4.78176 10.1765 4.43591 9.83061 4.43591C9.67104 4.43591 9.43169 4.5157 9.2455 4.83492L8.79333 5.57969V7.01606L9.8307 5.23393L13.2619 11.3516H11.9586C11.9804 11.4783 11.9618 11.6085 11.9053 11.724L11.8787 11.7506C11.7191 12.0431 11.3201 12.0698 11.267 12.0698H13.2885C13.3682 12.0698 13.7406 12.0432 13.9268 11.7506C14.0066 11.6176 14.0599 11.3782 13.8737 11.059V11.059Z"/>
<path id="center" d="M11.9855 11.7509V11.7243L12.0121 11.6711C12.0386 11.5647 12.0653 11.4583 12.0386 11.3519L11.9323 11.0328L9.21932 6.29822L8.82031 5.58008H8.79369L8.39468 6.29822L5.68168 11.0327L5.57537 11.3519C5.5496 11.4872 5.56825 11.6271 5.62853 11.7509C5.73493 11.9105 5.8945 12.0701 6.26688 12.0701H11.3207C11.4005 12.0701 11.7995 12.0435 11.9857 11.7509H11.9855ZM8.79359 7.01636L11.2673 11.3519H6.31995L8.79359 7.01636Z"/>
</svg>
