<svg xmlns="http://www.w3.org/2000/svg" width="16" height="16" viewBox="0 0 16 16">
  <path d="M9.253 2h-4.69A1.562 1.562 0 0 0 3 3.563v9.374A1.563 1.563 0 0 0 4.563 14.5h6.875A1.563 1.563 0 0 0 13 12.937V5.75L9.253 2Zm2.543 3.438H10.5a.938.938 0 0 1-.938-.938V3.198l2.234 2.24Zm.579 7.5a.938.938 0 0 1-.938.937H4.564a.938.938 0 0 1-.938-.938V3.563a.938.938 0 0 1 .938-.938h4.375V4.5A1.563 1.563 0 0 0 10.5 6.063h1.875v6.875Z"/>
  <path d="M10.186 10.877c-.008-.079-.084-.47-.75-.453a6.3 6.3 0 0 0-.769.05c-.1-.107-.449-.493-.6-.807.042-.13.206-.667.197-1.03-.007-.326-.068-.7-.471-.7h-.007a.358.358 0 0 0-.275.112c-.105.117-.135.308-.102.641.031.318.17.676.21.775-.032.1-.155.477-.31.847a8.303 8.303 0 0 1-.29.634c-.128.046-.639.24-.885.474-.23.219-.438.478-.244.747.064.09.184.143.322.145h.005c.247 0 .51-.163.722-.447.32-.43.49-.722.541-.811.122-.034.574-.16.728-.199.131-.032.285-.06.355-.073.12.116.595.537 1.069.521.22-.008.379-.066.472-.172a.34.34 0 0 0 .083-.255Zm-3.968 1.106a.11.11 0 0 1-.095-.01c-.027-.017-.03-.03-.025-.05.036-.159.42-.425.663-.552-.14.237-.364.56-.543.612ZM7.772 8.21c.027 0 .09 0 .093.238.001.16-.06.419-.11.596a1.727 1.727 0 0 1-.086-.508c0-.24.062-.326.102-.326Zm.214 2.417a3.437 3.437 0 0 0-.317.095l.056-.129c.08-.186.162-.41.213-.557.115.18.242.353.38.517a5.86 5.86 0 0 0-.332.074Zm1.677.33c-.141.06-.455-.03-.72-.235.278-.036.638-.045.755.052a.083.083 0 0 1 .033.069c0 .06-.022.095-.068.114Z"/>
</svg>
