<svg xmlns="http://www.w3.org/2000/svg" width="16" height="16" viewBox="0 0 16 16">
  <path d="M11.636 1H4.364c-.362 0-.709.138-.965.384-.255.247-.399.58-.399.929v11.374c0 .349.144.682.4.929.255.246.602.384.964.384h7.272C12.39 15 13 14.412 13 13.687V2.313a1.29 1.29 0 0 0-.4-.929A1.391 1.391 0 0 0 11.637 1Zm.455 12.688a.447.447 0 0 1-.455.437H4.364a.464.464 0 0 1-.322-.128.43.43 0 0 1-.133-.31v-.876h8.182v.877Zm0-1.315H3.909V3.625h8.182v8.748Zm0-9.185H3.909v-.876a.43.43 0 0 1 .133-.309.464.464 0 0 1 .322-.128h7.272c.25 0 .455.196.455.438v.874Z"/>
  <path d="M8.91 2.531a.215.215 0 0 1-.067.155.232.232 0 0 1-.161.064H7.318a.232.232 0 0 1-.16-.064.215.215 0 0 1 0-.31.232.232 0 0 1 .16-.063h1.364a.23.23 0 0 1 .16.064.215.215 0 0 1 .067.154Zm-.455 10.936c0 .12-.103.219-.228.219h-.454a.232.232 0 0 1-.16-.064.215.215 0 0 1-.001-.31.232.232 0 0 1 .16-.064h.455c.06 0 .118.023.161.064a.215.215 0 0 1 .067.155Z"/>
</svg>
