<svg xmlns="http://www.w3.org/2000/svg" width="16" height="16" viewBox="0 0 16 16">
<path fill-rule="evenodd" clip-rule="evenodd" d="M2 7.74239C2 7.80958 2.01978 7.85393 2.03087 7.89703C2.10313 8.17736 2.25844 8.41792 2.44271 8.63737C2.70516 8.95009 3.02659 9.20184 3.35585 9.43858C3.64143 9.64388 3.93284 9.84459 4.21957 10.0484C4.26879 10.0833 4.31534 10.1236 4.36877 10.1665C4.32279 10.1913 4.28456 10.2132 4.2448 10.2334C3.86642 10.4253 3.50237 10.6405 3.1668 10.9011C2.96456 11.0582 2.76901 11.2252 2.6309 11.4434C2.40868 11.7944 2.33003 12.1682 2.49566 12.5675C2.54402 12.6841 2.61781 12.7848 2.72189 12.8593C2.75563 12.8833 2.79348 12.9072 2.83295 12.9166C2.93407 12.9404 3.0371 12.956 3.13946 12.9748L3.42935 12.9746C3.74991 12.946 4.0417 12.8362 4.3054 12.6543C4.71752 12.3698 4.99517 11.9885 5.11455 11.499C5.20133 11.1433 5.20487 10.7872 5.1026 10.4331C5.09281 10.4003 5.08152 10.3679 5.06877 10.3361C5.05634 10.3043 5.04172 10.2733 5.02452 10.2337L5.6817 9.85578L5.69154 9.86419C5.6796 9.90328 5.66688 9.94227 5.65608 9.98175C5.578 10.2669 5.5261 10.5571 5.54474 10.8531C5.56462 11.1685 5.65264 11.4638 5.8373 11.7273C5.98659 11.9404 6.34232 11.9483 6.50098 11.7344C6.55727 11.6584 6.61185 11.579 6.65285 11.4942C6.75999 11.273 6.8592 11.0478 6.96156 10.8242L6.97944 10.7832C6.97208 10.8891 6.96347 10.9821 6.95956 11.0752C6.95344 11.2206 6.96194 11.3651 7.01164 11.5034C7.05418 11.6217 7.12653 11.7101 7.26205 11.7257C7.35476 11.7363 7.42864 11.6939 7.49679 11.6401C7.60236 11.5567 7.68987 11.4526 7.75399 11.3343C7.93568 11.0007 8.12224 10.669 8.28692 10.327C8.46507 9.95699 8.62086 9.57621 8.78631 9.19993L8.81364 9.13322C8.85273 9.28681 8.87997 9.43725 8.93015 9.57966C8.98845 9.74491 9.06061 9.90624 9.13918 10.0631C9.17635 10.1372 9.17205 10.1852 9.12054 10.2474C8.90492 10.5073 8.69302 10.7704 8.48094 11.0333C8.43401 11.0913 8.38728 11.1504 8.34818 11.2137C8.32447 11.2537 8.30888 11.298 8.30231 11.3441C8.29573 11.3865 8.30582 11.4298 8.33046 11.4649C8.3551 11.5 8.39239 11.5242 8.43449 11.5325C8.51947 11.5508 8.6066 11.557 8.69331 11.5509C8.98931 11.5291 9.25807 11.4252 9.49567 11.2492C9.80353 11.0211 9.90235 10.7099 9.8278 10.3411C9.80764 10.241 9.77199 10.1437 9.73729 10.0473C9.72171 10.0038 9.72066 9.97333 9.74905 9.93281C9.99516 9.58138 10.2054 9.20853 10.401 8.82709C10.4087 8.81208 10.4166 8.79708 10.4302 8.78102C10.4936 9.11076 10.589 9.42855 10.7599 9.7169C10.6727 9.80092 10.5864 9.87709 10.5083 9.96101C10.3364 10.1459 10.1873 10.3466 10.1095 10.5913C10.076 10.6968 10.0503 10.8041 10.0652 10.9168C10.0883 11.0918 10.2317 11.2055 10.4038 11.1657C10.7722 11.0804 11.0902 10.9068 11.3225 10.5994C11.4789 10.3923 11.4931 10.1614 11.4277 9.91952C11.4097 9.85377 11.3884 9.78906 11.3654 9.71365C11.4563 9.68546 11.5449 9.65162 11.6366 9.63069C12.1125 9.52212 12.5832 9.54104 13.0418 9.71289C13.3095 9.81324 13.5257 9.98117 13.654 10.2453C13.8107 10.5683 13.7241 10.8747 13.4197 11.0789C13.3913 11.0979 13.3588 11.1129 13.3353 11.1367C13.3277 11.1454 13.3221 11.1556 13.3187 11.1666C13.3154 11.1777 13.3143 11.1893 13.3157 11.2007C13.3177 11.2125 13.3487 11.2272 13.3666 11.227C13.4667 11.2262 13.5478 11.1738 13.6257 11.1199C13.8209 10.9848 13.9633 10.8031 13.994 10.5639L14 10.5459L13.9926 10.3901C13.9897 10.3812 13.9948 10.3723 13.9942 10.3655C13.9527 10.0171 13.7666 9.74691 13.4959 9.53512C13.1824 9.28996 12.8123 9.18903 12.4208 9.17307C12.1033 9.15941 11.7862 9.20822 11.4875 9.31672C11.4018 9.34779 11.3168 9.38458 11.2306 9.41928C11.219 9.39835 11.2066 9.37828 11.1964 9.35754C11.1079 9.17632 11.0006 9.00314 10.9769 8.79536C10.9601 8.64779 10.9395 8.50041 10.9745 8.35446C11.0083 8.21406 11.0522 8.07605 11.0936 7.93756C11.1149 7.86626 11.0999 7.82631 11.0319 7.79419C11.0082 7.78237 10.9829 7.77406 10.9568 7.76953C10.7895 7.74526 10.6245 7.75912 10.4625 7.80624C10.4052 7.82296 10.3635 7.85507 10.3508 7.91854C10.3435 7.95495 10.3287 7.98984 10.3184 8.02577C10.2761 8.17516 10.246 8.32741 10.1776 8.46973C10.0061 8.8267 9.81041 9.17021 9.61008 9.51122C9.58838 9.54802 9.56554 9.58415 9.53821 9.62878C9.46786 9.48159 9.39283 9.34951 9.37009 9.19467C9.34438 9.01958 9.32412 8.84477 9.3677 8.67101C9.4001 8.54141 9.44244 8.4142 9.48143 8.28632C9.49988 8.22553 9.49137 8.19361 9.43632 8.16159C9.40851 8.14544 9.37706 8.1311 9.34572 8.12642C9.17421 8.10029 8.99898 8.11463 8.834 8.16828C8.7821 8.1851 8.75486 8.21865 8.739 8.27217C8.69236 8.43006 8.6526 8.59178 8.58713 8.74193C8.322 9.34979 8.04922 9.95451 7.77673 10.5591C7.71987 10.6854 7.65325 10.8072 7.58912 10.9302C7.57287 10.9613 7.54917 10.9887 7.5289 11.018C7.51266 10.9988 7.50635 10.9856 7.50644 10.9724C7.50692 10.8947 7.49765 10.8147 7.51246 10.7396C7.55796 10.5124 7.60824 10.2862 7.66328 10.0611C7.70821 9.87508 7.76049 9.69081 7.81028 9.50606C7.82701 9.44422 7.82729 9.3864 7.78285 9.33441C7.7082 9.24734 7.55222 9.22822 7.45971 9.29532L7.4188 9.31845L7.42673 9.2525C7.44623 9.11114 7.45015 8.97026 7.41134 8.83101C7.36298 8.65744 7.23912 8.55756 7.05905 8.5631C6.97513 8.56568 6.88701 8.58002 6.80931 8.61061C6.48253 8.73868 6.23126 8.96548 6.01736 9.23835C5.99753 9.26369 5.97296 9.28492 5.94501 9.30086C5.66851 9.45416 5.39115 9.60556 5.11388 9.75752L4.80526 9.9266C4.72249 9.84765 4.64728 9.76574 4.56193 9.69626C4.30129 9.4837 4.03645 9.27639 3.77399 9.06622C3.54136 8.87994 3.31599 8.68592 3.14357 8.43924C3.01531 8.25573 2.93263 8.05492 2.9247 7.82803C2.91467 7.53891 2.99667 7.27473 3.14386 7.02882C3.33214 6.71418 3.58896 6.46167 3.87129 6.23295C4.16997 5.99114 4.49301 5.78585 4.82782 5.59842C5.29624 5.33625 5.77804 5.10419 6.29463 4.95099C6.82431 4.79386 7.36174 4.70392 7.91608 4.76662C8.134 4.79128 8.3456 4.84117 8.53991 4.94774C8.68872 5.02926 8.81077 5.13602 8.86755 5.3029C8.92355 5.4671 8.92183 5.6335 8.88303 5.80028C8.80418 6.13804 8.61924 6.41646 8.38651 6.66524C8.00478 7.07307 7.53913 7.35072 7.01489 7.53413C6.71347 7.63972 6.39986 7.70662 6.08159 7.73321C5.82076 7.7551 5.56538 7.73197 5.31841 7.64127C5.15488 7.58115 5.01247 7.48921 4.89797 7.35578C4.87752 7.33189 4.85133 7.30599 4.8132 7.32835C4.77583 7.35034 4.76923 7.38589 4.78175 7.42192C4.80268 7.48175 4.82199 7.54407 4.85458 7.59759C4.93649 7.73188 5.05596 7.82927 5.18747 7.9128C5.44008 8.07347 5.72241 8.12747 6.01516 8.13999C6.4594 8.1592 6.89284 8.09287 7.32016 7.97368C7.93023 7.80356 8.46068 7.50307 8.88609 7.02901C9.24029 6.63428 9.49329 6.1888 9.54748 5.65089C9.57395 5.38834 9.54576 5.13115 9.42285 4.89163C9.28952 4.63214 9.07753 4.43917 8.82406 4.30623C8.45494 4.11268 8.05658 4 7.64541 4H7.23348C6.73552 4 6.25411 4.1427 5.78616 4.31292C5.43196 4.44185 5.08463 4.59401 4.74744 4.76241C4.01313 5.12933 3.32928 5.57175 2.76757 6.1801C2.48773 6.48317 2.25079 6.81759 2.1145 7.21137C2.07336 7.32893 2.03793 7.44841 2.00832 7.5694L2 7.74239ZM4.66907 11.0114C4.63724 11.4376 4.44408 11.7831 4.12839 12.0629C3.95081 12.2202 3.74714 12.3323 3.50992 12.3716C3.4239 12.3859 3.33587 12.3893 3.25243 12.3537C3.13344 12.3028 3.10677 12.1972 3.10448 12.0847C3.10094 11.9054 3.16374 11.7433 3.24985 11.5891C3.36225 11.388 3.52702 11.2347 3.70298 11.0915C3.98015 10.8658 4.28084 10.6749 4.58878 10.4946L4.61201 10.4851C4.6596 10.6609 4.68226 10.8346 4.66907 11.0114V11.0114ZM7.07358 9.15922C7.05112 9.29532 7.02302 9.43151 6.98326 9.56341C6.84582 10.02 6.66929 10.4624 6.47842 10.8989C6.44316 10.9797 6.39183 11.0533 6.3472 11.1299C6.3396 11.1417 6.33051 11.1524 6.32015 11.1618C6.26491 11.2164 6.21253 11.2135 6.18462 11.1421C6.15213 11.0592 6.13215 10.9704 6.11495 10.8826C6.10338 10.8236 6.10615 10.7616 6.10252 10.7012C6.10625 10.2717 6.23728 9.88139 6.4596 9.51801C6.55125 9.36814 6.65103 9.22535 6.80348 9.13054C6.8509 9.10106 6.90221 9.07834 6.95592 9.06306C7.03716 9.04022 7.08705 9.07778 7.07358 9.15922V9.15922ZM8.71405 11.2493L9.30366 10.5608C9.32823 10.8165 8.89364 11.3269 8.71405 11.2493ZM10.5972 10.786C10.5555 10.8099 10.5101 10.8271 10.4674 10.8492C10.4283 10.8695 10.4154 10.849 10.4143 10.8154C10.4137 10.7921 10.4167 10.7688 10.4231 10.7465C10.5028 10.4656 10.6493 10.2259 10.8673 10.031L10.8826 10.0231C10.9863 10.3132 10.8664 10.6318 10.5972 10.786Z"/>
</svg>
