<svg xmlns="http://www.w3.org/2000/svg" width="16" height="16" viewBox="0 0 16 16">
  <path d="M6.5 2a4.5 4.5 0 0 1 3.977 6.603l3.129 3.128-.003.002a1.323 1.323 0 1 1-1.87 1.87h.001l-3.128-3.128A4.5 4.5 0 1 1 6.5 2Zm5.702 11.134a.661.661 0 1 0 .933-.933l.003-.002-3.024-3.025c-.265.357-.58.672-.936.937l3.024 3.023ZM6.5 10.25a3.75 3.75 0 1 0-.001-7.5 3.75 3.75 0 0 0 .001 7.5Z"/>
  <path d="M6.5 3.875A2.625 2.625 0 0 1 9.125 6.5a.188.188 0 0 1-.375 0A2.25 2.25 0 0 0 6.5 4.25a.188.188 0 0 1 0-.375Z"/>
</svg>
