<svg xmlns="http://www.w3.org/2000/svg" width="16" height="16" viewBox="0 0 16 16">
<path d="M11.9909 2.00119L11.325 2.0427L11.3769 3.42744C11.3796 3.50401 11.2912 3.54871 11.231 3.50122L10.7851 3.14967L10.2568 3.55054C10.2432 3.56087 10.2269 3.56711 10.2099 3.56854C10.1929 3.56996 10.1758 3.56652 10.1607 3.5586C10.1456 3.55067 10.133 3.53861 10.1245 3.52381C10.1159 3.50901 10.1118 3.49209 10.1125 3.47502L10.172 2.11475L3.56581 2.52785C3.40866 2.53764 3.26157 2.60847 3.15594 2.72523C3.0503 2.84199 2.99449 2.99541 3.00043 3.15275L3.37221 13.0577C3.37789 13.2091 3.44027 13.3527 3.54697 13.4602C3.65367 13.5677 3.79689 13.6311 3.94818 13.6378L12.0014 13.9994C12.0828 14.003 12.1641 13.9901 12.2404 13.9615C12.3167 13.9328 12.3864 13.8891 12.4453 13.8328C12.5042 13.7765 12.5511 13.7088 12.5831 13.6339C12.6152 13.559 12.6317 13.4783 12.6318 13.3969V2.60336C12.6318 2.52095 12.615 2.4394 12.5822 2.36376C12.5495 2.28811 12.5016 2.21998 12.4416 2.16358C12.3815 2.10714 12.3106 2.06362 12.233 2.03568C12.1555 2.00775 12.0731 1.99601 11.9909 2.00119V2.00119ZM7.99761 4.04184C9.56834 4.04184 10.4261 4.88201 10.4261 6.48048C10.2138 6.64547 8.63272 6.75787 8.63272 6.52315C8.66605 5.6274 8.26508 5.5882 8.0423 5.5882C7.8306 5.5882 7.47413 5.65196 7.47413 6.13181C7.47413 7.31535 10.5264 7.25149 10.5264 9.64004C10.5264 10.9837 9.43465 11.7258 8.0423 11.7258C6.60526 11.7258 5.34958 11.1444 5.49136 9.12879C5.54703 8.89214 7.37387 8.94839 7.37387 9.12879C7.35171 9.96048 7.54097 10.2051 8.01986 10.2051C8.3875 10.2051 8.5547 10.0026 8.5547 9.66132C8.5547 8.44572 5.54703 8.40314 5.54703 6.17458C5.54703 4.89501 6.42717 4.04184 7.99771 4.04184H7.99761Z"/>
</svg>
