<svg xmlns="http://www.w3.org/2000/svg" width="16" height="16" viewBox="0 0 16 16">
  <path d="M10.127 5.873A3.026 3.026 0 0 0 8 4.983a2.96 2.96 0 0 0-2.127.89c-.54.54-.89 1.302-.89 2.127 0 .825.35 1.587.89 2.127.54.54 1.302.89 2.127.89a2.96 2.96 0 0 0 2.127-.89c.54-.54.89-1.302.89-2.127a2.96 2.96 0 0 0-.89-2.127Zm-.571 3.683A2.195 2.195 0 0 1 8 10.19a2.195 2.195 0 0 1-1.556-.635A2.195 2.195 0 0 1 5.81 8c0-.604.238-1.159.635-1.556A2.195 2.195 0 0 1 8 5.81c.604 0 1.159.238 1.556.635s.635.952.635 1.556c0 .604-.238 1.159-.635 1.556Zm4.032-1.968h-1.223a.42.42 0 0 0-.413.412c0 .222.19.412.413.412h1.223A.42.42 0 0 0 14 8a.42.42 0 0 0-.412-.412ZM8 11.952a.42.42 0 0 0-.412.413v1.223c0 .222.19.412.412.412a.42.42 0 0 0 .412-.412v-1.223A.42.42 0 0 0 8 11.952Zm4.238-.286-.873-.873c-.143-.158-.413-.158-.572 0a.403.403 0 0 0 0 .572l.873.873a.402.402 0 0 0 .572 0 .402.402 0 0 0 0-.572ZM8 2a.42.42 0 0 0-.412.412v1.223c0 .222.19.413.412.413a.42.42 0 0 0 .412-.413V2.412A.42.42 0 0 0 8 2Zm4.254 1.762a.402.402 0 0 0-.571 0l-.873.873a.402.402 0 0 0 0 .572c.143.158.412.158.57 0l.874-.873a.402.402 0 0 0 0-.572ZM3.635 7.588H2.412A.42.42 0 0 0 2 8a.41.41 0 0 0 .412.412h1.223A.42.42 0 0 0 4.048 8a.42.42 0 0 0-.413-.412Zm1.555 3.205c-.142-.158-.412-.158-.57 0l-.874.873a.402.402 0 0 0 0 .572.402.402 0 0 0 .571 0l.873-.873a.402.402 0 0 0 0-.572Zm0-6.158-.873-.873a.402.402 0 0 0-.57 0 .402.402 0 0 0 0 .572l.872.873a.403.403 0 1 0 .571-.572Z"/>
</svg>
