<svg xmlns="http://www.w3.org/2000/svg" width="16" height="16" viewBox="0 0 16 16">
<path d="M8 4C6.39997 4 5.40031 4.79969 5 6.39972C5.59981 5.59994 6.30003 5.30003 7.09981 5.5C7.55647 5.61381 7.88281 5.94494 8.24422 6.31188C8.83241 6.90878 9.51322 7.59981 11 7.59981C12.5999 7.59981 13.5997 6.80003 14 5.19963C13.4001 5.99988 12.7 6.29978 11.9001 6.09981C11.4435 5.98591 11.1176 5.65488 10.7557 5.28794C10.1679 4.69103 9.48725 4 8 4V4ZM5 7.59981C3.40006 7.59981 2.40031 8.39959 2 10C2.59981 9.19975 3.29994 8.89984 4.09981 9.09981C4.55647 9.21372 4.88281 9.54475 5.24422 9.91169C5.83241 10.5086 6.51322 11.1996 8 11.1996C9.59994 11.1996 10.5997 10.3999 11 8.79991C10.4001 9.59969 9.69997 9.89959 8.90009 9.69963C8.44353 9.58581 8.11756 9.25469 7.75569 8.88775C7.16787 8.29084 6.48725 7.59981 5 7.59981Z"/>
</svg>
