<svg xmlns="http://www.w3.org/2000/svg" width="16" height="16" viewBox="0 0 16 16">
<path fill-rule="evenodd" clip-rule="evenodd" d="M14 8C14 11.3137 11.3137 14 8 14C4.68629 14 2 11.3137 2 8C2 4.68629 4.68629 2 8 2C11.3137 2 14 4.68629 14 8ZM10.5683 6.13306C10.8415 6.10067 11.1084 6.02751 11.36 5.91602C11.1755 6.19269 10.9432 6.43428 10.674 6.62946C10.6766 6.68853 10.6779 6.74798 10.6779 6.80782C10.6779 8.62986 9.29114 10.7306 6.75521 10.7306C6.00589 10.7313 5.2722 10.5162 4.64185 10.1111C4.75075 10.1239 4.86031 10.1303 4.96997 10.1303C5.59081 10.1314 6.19395 9.92351 6.68231 9.54017C6.39443 9.53498 6.11538 9.43989 5.88423 9.26821C5.65308 9.09652 5.48141 8.85685 5.39325 8.58275C5.59991 8.62242 5.8129 8.6144 6.01599 8.55931C5.70396 8.49619 5.42336 8.3271 5.22178 8.08071C5.0202 7.83431 4.91003 7.52578 4.90997 7.20743V7.19009C5.10136 7.29657 5.31544 7.35572 5.53435 7.36259C5.2425 7.16753 5.03593 6.86861 4.95669 6.52663C4.87744 6.18466 4.93147 5.82535 5.10778 5.5218C5.45398 5.94775 5.8859 6.29611 6.37548 6.54427C6.86507 6.79244 7.40138 6.93486 7.94958 6.96228C7.88104 6.66674 7.9118 6.35686 8.03709 6.08057C8.16239 5.80428 8.37524 5.57697 8.64271 5.43382C8.91018 5.29066 9.21738 5.23963 9.51677 5.28862C9.81616 5.33762 10.0911 5.4839 10.299 5.70485C10.6077 5.64407 10.9037 5.53096 11.1743 5.3704C11.0715 5.68972 10.8561 5.96077 10.5683 6.13306Z"/>
</svg>
