<svg xmlns="http://www.w3.org/2000/svg" width="16" height="16" viewBox="0 0 16 16">
<path fill-rule="evenodd" clip-rule="evenodd" d="M7.99022 14C11.2906 13.995 13.9623 11.3103 13.9623 7.9986C13.9623 4.74076 11.303 2.05768 8.1258 2.00096C4.7891 1.94145 2.00087 4.64899 2 7.93226C1.99904 11.3101 4.65881 14.0048 7.99022 14V14ZM7.9805 2.29148C11.1492 2.29042 13.6739 4.86488 13.6729 8.09595C13.6718 11.1464 11.0802 13.6982 7.98281 13.6989C4.82723 13.6996 2.28955 11.1411 2.28965 7.95912C2.28984 4.85919 4.867 2.29253 7.9805 2.29148V2.29148ZM5.58899 5.30214C5.6408 5.47479 5.49578 5.53488 5.34162 5.54691C5.17937 5.55943 5.01721 5.57166 4.82886 5.58601C5.45053 7.43809 6.06285 9.26272 6.68971 11.1298C6.73439 11.0567 6.75278 11.0361 6.76087 11.0121C7.10501 9.98347 7.45109 8.95555 7.78647 7.92407C7.81709 7.82999 7.80188 7.70539 7.76837 7.60871C7.5909 7.09644 7.37829 6.59534 7.22268 6.0769C7.11628 5.72197 6.97512 5.49231 6.55557 5.53343C6.48412 5.54046 6.39688 5.38668 6.31686 5.30724C6.41364 5.24947 6.50974 5.14316 6.60738 5.14172C7.46169 5.12859 8.31617 5.12884 9.17048 5.14249C9.2685 5.14412 9.3646 5.25322 9.46137 5.31244C9.37664 5.38986 9.30355 5.50599 9.20447 5.53593C9.04549 5.58389 8.86918 5.57484 8.67891 5.59178L10.5421 11.1343C10.8243 10.1968 11.0869 9.336 11.3422 8.47293C11.5701 7.7025 11.4343 6.98301 11.0224 6.30444C10.8985 6.1004 10.7464 5.90242 10.6762 5.67989C10.5965 5.42674 10.5302 5.13854 10.5725 4.88462C10.6442 4.45429 10.9744 4.24062 11.4212 4.19969C8.97616 1.93048 5.13392 2.7428 3.71814 5.20835C4.26315 5.18322 4.78351 5.15019 5.30426 5.14306C5.40267 5.14181 5.56588 5.22501 5.58899 5.30214V5.30214ZM6.56318 12.8101C6.55182 12.8433 6.55114 12.8803 6.54219 12.9355C7.59591 13.2276 8.62931 13.2065 9.68698 12.8502L8.07121 8.4246C7.55412 9.92781 7.05822 11.3687 6.56318 12.8101ZM5.74893 12.61L3.31458 5.93218C2.21637 8.07737 3.0518 11.3503 5.74893 12.61ZM13.1083 8.31906C13.1856 7.30472 12.8356 5.9003 12.5335 5.70714C12.4998 6.08027 12.5233 6.49539 12.4162 6.87362C12.1642 7.7648 11.8561 8.64048 11.5593 9.51857C11.2367 10.473 10.9014 11.4231 10.5716 12.3752C12.1211 11.4566 12.9727 10.1009 13.1083 8.31906V8.31906Z"/>
</svg>
