<svg width="0" height="0" class="hidden">
  <symbol xmlns="http://www.w3.org/2000/svg" viewBox="0 0 16 16" id="bootstrap">
    <path d="M4.49245 3C3.80773 3 3.30122 3.59952 3.32384 4.24971C3.34559 4.87422 3.31735 5.68326 3.11366 6.34288C2.90949 7.00461 2.56413 7.42277 2 7.47658V8.08593C2.56413 8.13964 2.90949 8.55789 3.11366 9.21962C3.31735 9.87925 3.34549 10.6883 3.32384 11.3128C3.30113 11.963 3.80773 12.5624 4.49245 12.5624H11.5085C12.1932 12.5624 12.6997 11.9629 12.6771 11.3128C12.6554 10.6883 12.6836 9.87925 12.8872 9.21962C13.0914 8.55799 13.4359 8.13973 14 8.08593V7.47658C13.4359 7.42286 13.0915 7.00461 12.8872 6.34288C12.6836 5.68326 12.6554 4.87422 12.6771 4.24971C12.6997 3.59952 12.1932 3 11.5084 3H4.49245ZM10.0368 8.88513C10.0368 9.78041 9.36877 10.3232 8.26026 10.3232H6.21651C6.20408 10.3232 6.19217 10.3182 6.18338 10.3094C6.1746 10.3007 6.16966 10.2887 6.16966 10.2763V5.28418C6.16965 5.27802 6.17085 5.27192 6.1732 5.26622C6.17555 5.26053 6.179 5.25535 6.18335 5.25099C6.1877 5.24663 6.19287 5.24317 6.19856 5.24081C6.20425 5.23845 6.21035 5.23724 6.21651 5.23724H8.24948C9.17386 5.23724 9.78044 5.73773 9.78044 6.50612C9.78044 7.04544 9.3724 7.52819 8.85244 7.61281V7.64105C9.56015 7.71862 10.0368 8.20852 10.0368 8.88513ZM8.05448 5.88227H6.9785V7.4013H7.88485C8.58531 7.4013 8.9716 7.11938 8.9716 6.61536C8.9716 6.14311 8.6395 5.88227 8.05448 5.88227V5.88227ZM6.9785 8.00407V9.67823H8.09426C8.82363 9.67823 9.21002 9.38572 9.21002 8.83581C9.21002 8.28599 8.81285 8.00407 8.04732 8.00407H6.9785Z"></path>
  </symbol>
  <symbol xmlns="http://www.w3.org/2000/svg" viewBox="0 0 16 16" id="airplane">
    <path d="M13.854 2.087a.36.36 0 0 0-.398-.048L2.276 7.572a.48.48 0 0 0-.273.427.514.514 0 0 0 .225.48l3.174 1.78a.24.24 0 0 0-.043.139v3.359a.24.24 0 0 0 .426.153l1.97-2.36 2.398 1.333a.48.48 0 0 0 .62-.072.48.48 0 0 0 .113-.201l3.102-10.13a.38.38 0 0 0-.134-.393ZM2.358 8.24l.124-.236L12.847 2.88l-7.08 7.015-3.285-1.847-.125.192Zm3.48 4.85v-2.595l1.467.82-1.467 1.776Zm4.526-.618-4.162-2.313 7.067-7.025-2.905 9.338Z"></path>
  </symbol>
  <symbol xmlns="http://www.w3.org/2000/svg" viewBox="0 0 16 16" id="briefcase">
    <path d="M3.071 13.286h9.858c.59 0 1.071-.481 1.071-1.072V5.786c0-.59-.48-1.072-1.071-1.072h-2.19l-.226-.902A1.07 1.07 0 0 0 9.473 3H6.526a1.07 1.07 0 0 0-1.04.812l-.225.902h-2.19A1.073 1.073 0 0 0 2 5.786v6.428c0 .59.48 1.072 1.071 1.072Zm9.858-.429H3.07a.644.644 0 0 1-.642-.643V7.787l4.5 1.333v1.38a.214.214 0 0 0 .214.214h1.714a.214.214 0 0 0 .214-.214V9.12l4.5-1.333v4.427a.644.644 0 0 1-.642.643ZM8 9.857a.214.214 0 0 0-.214.214v.215h-.429v-.857h1.286v.857h-.429v-.215A.214.214 0 0 0 8 9.857Zm.643-.897V9H7.357v-.429h1.286v.39Zm-2.74-5.045a.642.642 0 0 1 .624-.486h2.947a.643.643 0 0 1 .624.486l.2.8H5.702l.2-.8Zm-3.474 1.87c0-.354.288-.642.642-.642h9.858c.354 0 .642.288.642.643V7.34l-4.5 1.333v-.316a.214.214 0 0 0-.214-.214H7.143a.214.214 0 0 0-.214.214v.316l-4.5-1.333V5.786Z"></path>
  </symbol>
  <symbol xmlns="http://www.w3.org/2000/svg" viewBox="0 0 16 16" id="caret-right">
    <path d="M5.14023 2.82455C4.95326 2.63478 4.95326 2.32991 5.14023 2.14154C5.3272 1.95317 5.62929 1.95247 5.81626 2.14154L11.2789 7.65863C11.4659 7.84699 11.4659 8.15187 11.2789 8.34163L5.81626 13.8587C5.62929 14.0471 5.3272 14.0471 5.14023 13.8587C4.95326 13.6697 4.95326 13.3641 5.14023 13.1757L10.1222 7.99978L5.14023 2.82455Z"></path>
  </symbol>
  <symbol xmlns="http://www.w3.org/2000/svg" viewBox="0 0 16 16" id="camera">
    <path d="M8 5.625a3 3 0 1 0 0 6 3 3 0 0 0 0-6Zm1.708 4.465a2.25 2.25 0 1 1-3.416-2.927 2.25 2.25 0 0 1 3.416 2.927Z"></path>
    <path d="M8 7.125a1.5 1.5 0 0 0-1.5 1.5.188.188 0 0 0 .375 0C6.875 8.004 7.379 7.5 8 7.5a.188.188 0 0 0 0-.375Z"></path>
    <path d="m13.06 5.266-1.626-.271-.515-1.288A1.12 1.12 0 0 0 9.875 3h-3.75c-.462 0-.872.277-1.045.707l-.514 1.288-1.625.27A1.12 1.12 0 0 0 2 6.376V12c0 .62.505 1.125 1.125 1.125h9.75c.62 0 1.125-.505 1.125-1.125V6.375a1.12 1.12 0 0 0-.94-1.11ZM13.25 12a.375.375 0 0 1-.375.375h-9.75A.375.375 0 0 1 2.75 12V6.375c0-.183.133-.34.313-.37l2.042-.34.672-1.68a.376.376 0 0 1 .348-.235h3.75c.153 0 .29.093.348.236l.672 1.68 2.042.34c.18.03.313.186.313.369V12Z"></path>
  </symbol>
  <symbol xmlns="http://www.w3.org/2000/svg" viewBox="0 0 16 16" id="caret-left">
    <path d="M11.2789 13.1755C11.4659 13.3652 11.4659 13.6701 11.2789 13.8585C11.092 14.0468 10.7899 14.0475 10.6029 13.8585L5.14023 8.34137C4.95325 8.15301 4.95325 7.84813 5.14023 7.65836L10.6029 2.14128C10.7899 1.95291 11.092 1.95291 11.2789 2.14128C11.4659 2.33034 11.4659 2.63592 11.2789 2.82428L6.29694 8.00022L11.2789 13.1755Z"></path>
  </symbol>
  <symbol xmlns="http://www.w3.org/2000/svg" viewBox="0 0 16 16" id="caret-down">
    <path d="M13.1755 5.14023C13.3652 4.95326 13.6701 4.95326 13.8585 5.14023C14.0468 5.3272 14.0475 5.62929 13.8585 5.81626L8.34137 11.2789C8.15301 11.4659 7.84813 11.4659 7.65837 11.2789L2.14128 5.81626C1.95291 5.62929 1.95291 5.3272 2.14128 5.14023C2.33034 4.95326 2.63592 4.95326 2.82428 5.14023L8.00022 10.1222L13.1755 5.14023Z"></path>
  </symbol>
  <symbol xmlns="http://www.w3.org/2000/svg" viewBox="0 0 16 16" id="caret-up">
    <path d="M2.82455 11.2789C2.63478 11.4659 2.32991 11.4659 2.14154 11.2789C1.95317 11.092 1.95247 10.7899 2.14154 10.6029L7.65863 5.14023C7.847 4.95325 8.15187 4.95325 8.34164 5.14023L13.8587 10.6029C14.0471 10.7899 14.0471 11.092 13.8587 11.2789C13.6697 11.4659 13.3641 11.4659 13.1757 11.2789L7.99978 6.29694L2.82455 11.2789Z"></path>
  </symbol>
  <symbol xmlns="http://www.w3.org/2000/svg" viewBox="0 0 16 16" id="close">
    <path d="M12.994 2.324a.667.667 0 0 0-.465.205L8 7.057 3.471 2.53a.667.667 0 1 0-.942.942L7.057 8 2.53 12.529a.667.667 0 1 0 .942.942l4.53-4.528 4.528 4.528a.667.667 0 1 0 .942-.942L8.943 8l4.528-4.529a.667.667 0 0 0-.477-1.147Z"></path>
  </symbol>
  <symbol xmlns="http://www.w3.org/2000/svg" viewBox="0 0 16 16" id="check">
    <path d="M13.736 3.906a.499.499 0 0 1-.02.707l-7.93 7.474a.6.6 0 0 1-.84-.015l-2.68-2.72a.5.5 0 0 1 .712-.703l2.406 2.443 7.645-7.207a.5.5 0 0 1 .707.021Z"></path>
  </symbol>
  <symbol xmlns="http://www.w3.org/2000/svg" viewBox="0 0 16 16" id="facebook-circle">
    <path d="M7.99998 1.59998C4.46558 1.59998 1.59998 4.46558 1.59998 7.99998C1.59998 11.2085 3.96371 13.8581 7.04318 14.321V9.69598H5.45971V8.01384H7.04318V6.89438C7.04318 5.04104 7.94611 4.22771 9.48638 4.22771C10.224 4.22771 10.6144 4.28264 10.7989 4.30718V5.77544H9.74824C9.09438 5.77544 8.86611 6.39571 8.86611 7.09438V8.01384H10.7824L10.5226 9.69598H8.86611V14.3344C11.9898 13.9109 14.4 11.24 14.4 7.99998C14.4 4.46558 11.5344 1.59998 7.99998 1.59998Z"></path>
  </symbol>
  <symbol xmlns="http://www.w3.org/2000/svg" viewBox="0 0 16 16" id="codepen-circle">
    <path fill-rule="evenodd" clip-rule="evenodd" d="M14 8C14 11.3137 11.3137 14 8 14C4.68629 14 2 11.3137 2 8C2 4.68629 4.68629 2 8 2C11.3137 2 14 4.68629 14 8ZM8.19194 4.05789L11.8482 6.49539C11.9419 6.55789 12 6.66952 12 6.78114V9.21864C12 9.3302 11.9419 9.44183 11.8482 9.50427L8.19194 11.9421C8.06606 12.0196 7.93281 12.019 7.80806 11.9421L4.15181 9.50427C4.05806 9.44183 4 9.3302 4 9.21858V6.78108C4 6.66952 4.05806 6.55789 4.15181 6.49539L7.80806 4.05789C7.93394 3.98039 8.06712 3.98102 8.19194 4.05789ZM11.0357 6.78108L8.34381 4.98639L8.34375 4.98652V6.58908L9.83481 7.5847L11.0357 6.78108ZM7.65625 6.58914V4.98639L4.96425 6.78114L6.16512 7.58464L7.65625 6.58914ZM5.54912 7.99983L4.6875 7.42389V8.57577L5.54912 7.99983ZM4.96425 9.21858L7.65625 11.0133V9.41058L6.16512 8.41502L4.96425 9.21858ZM6.78575 7.99983L8 8.81233L9.21425 7.99983L8 7.18733L6.78575 7.99983ZM8.34375 9.41058V11.0133H8.34381L11.0357 9.21858L9.83481 8.41502L8.34375 9.41058ZM10.4509 7.99983L11.3125 8.57577V7.42395L10.4509 7.99983Z"></path>
  </symbol>
  <symbol xmlns="http://www.w3.org/2000/svg" viewBox="0 0 16 16" id="codepen">
    <path d="M13.7723 5.74309L8.28791 2.08684C8.10069 1.97152 7.90091 1.97059 7.71209 2.08684L2.22772 5.74309C2.08709 5.83684 2 6.00427 2 6.17162V9.82787C2 9.99531 2.08709 10.1627 2.22772 10.2564L7.71209 13.9132C7.89922 14.0284 8.09909 14.0295 8.28791 13.9132L13.7723 10.2564C13.9129 10.1627 14 9.99531 14 9.82796V6.17171C14 6.00427 13.9129 5.83684 13.7723 5.74309V5.74309ZM8.51572 3.47959L12.5535 6.17162L10.7522 7.37706L8.51562 5.88362V3.47977L8.51572 3.47959ZM7.48438 3.47959V5.88371L5.24769 7.37696L3.44638 6.17171L7.48438 3.47959V3.47959ZM3.03125 7.13584L4.32369 7.99974L3.03125 8.86365V7.13584V7.13584ZM7.48438 12.5199L3.44638 9.82787L5.24769 8.62252L7.48438 10.1159V12.5199V12.5199ZM8 9.21849L6.17862 7.99974L8 6.78099L9.82138 7.99974L8 9.21849ZM8.51562 12.5199V10.1159L10.7522 8.62252L12.5535 9.82787L8.51572 12.5199H8.51562ZM12.9688 8.86365L11.6763 7.99974L12.9688 7.13593V8.86365Z"></path>
  </symbol>
  <symbol xmlns="http://www.w3.org/2000/svg" viewBox="0 0 16 16" id="chat-bubbles">
    <path d="M13.43 12.159c.361-.524.57-1.139.57-1.797 0-1.214-.71-2.282-1.784-2.898C12.19 4.994 9.913 3 7.11 3 4.287 3 2 5.018 2 7.507c0 .859.272 1.661.744 2.344l-.65 1.205c-.273.454.092.959.539.959a.63.63 0 0 0 .326-.094l1.275-.688a5.52 5.52 0 0 0 2.397.762c.661 1.085 1.959 1.822 3.452 1.822.818 0 1.576-.221 2.204-.599l.977.527a.484.484 0 0 0 .25.072c.343 0 .622-.386.413-.735l-.497-.923Zm-8.886-1.44-.294-.177-.302.162-1.275.688-.012.007-.011.007a.125.125 0 0 1-.017.008.06.06 0 0 1-.032-.03.065.065 0 0 1 .008-.019l.007-.011.007-.013.65-1.205.175-.324-.21-.303a3.504 3.504 0 0 1-.637-2.002c0-2.154 2.022-3.906 4.507-3.906 2.357 0 4.296 1.575 4.492 3.574a4.36 4.36 0 0 0-1.516-.269c-2.163 0-3.917 1.547-3.917 3.456 0 .338.055.674.164.993a4.871 4.871 0 0 1-1.787-.637Zm8.39 1.098-.209.303.175.324.321.596-.648-.35-.302-.163-.294.177a3.669 3.669 0 0 1-1.894.513c-1.828 0-3.315-1.28-3.315-2.855 0-1.574 1.487-2.855 3.315-2.855 1.829 0 3.316 1.281 3.316 2.855a2.554 2.554 0 0 1-.464 1.455Zm-1.64-1.305a.3.3 0 1 1-.087-.213.302.302 0 0 1 .089.213h-.002Zm-.902 0a.3.3 0 1 1-.087-.213.3.3 0 0 1 .089.213h-.002Zm-.901 0a.3.3 0 1 1-.087-.213.3.3 0 0 1 .089.213H9.49Z"></path>
  </symbol>
  <symbol xmlns="http://www.w3.org/2000/svg" viewBox="0 0 16 16" id="computer">
    <path d="M13.4 3H2.6a.6.6 0 0 0-.6.6v7.44a.6.6 0 0 0 .6.6h2.76v1.44H4.4v.48h7.2v-.48h-.96v-1.44h2.76a.6.6 0 0 0 .6-.6V3.6a.6.6 0 0 0-.6-.6Zm-3.24 10.08H5.84v-1.44h4.32v1.44Zm3.36-2.04a.12.12 0 0 1-.12.12H2.6a.12.12 0 0 1-.12-.12V9.72h11.04v1.32Zm0-1.8H2.48V3.6a.12.12 0 0 1 .12-.12h10.8a.12.12 0 0 1 .12.12v5.64Z"></path>
  </symbol>
  <symbol xmlns="http://www.w3.org/2000/svg" viewBox="0 0 16 16" id="eye-off">
    <path d="M2.3725 14L1.99733 13.6248L4.22719 11.395C2.2404 10.1057 1.42666 8.12417 1.41081 8.09775C1.38439 8.03435 1.38439 7.96565 1.41081 7.90225C1.43194 7.85997 3.22851 3.51123 7.99997 3.51123C9.32098 3.51123 10.4148 3.84412 11.3025 4.32497L13.6274 2L14.0026 2.37517L11.7728 4.60502C13.7596 5.89432 14.5733 7.87583 14.5891 7.90225C14.6156 7.96565 14.6156 8.03435 14.5891 8.09775C14.568 8.14531 12.7714 12.4941 7.99997 12.4941C6.67897 12.4941 5.58518 12.1612 4.69746 11.6803L2.3725 14ZM5.07791 11.2946C5.8758 11.6962 6.84277 11.9657 7.99997 11.9657C12.0739 11.9657 13.7701 8.63672 14.0555 8.00264C13.8705 7.5852 13.0779 6.01057 11.4029 4.9749L9.89165 6.48613C10.2351 6.89828 10.4412 7.42668 10.4412 8.00264C10.4412 9.31308 9.37382 10.3804 8.06338 10.3804C7.48742 10.3804 6.95902 10.1744 6.54687 9.83091L5.07791 11.2946ZM1.94449 8.00264C2.12943 8.42008 2.92203 9.99472 4.59707 11.0304L6.1717 9.45575C5.85995 9.05416 5.67501 8.55218 5.67501 8.00793C5.67501 6.69749 6.74238 5.63012 8.05281 5.63012C8.59707 5.63012 9.09905 5.81506 9.50063 6.12682L10.9115 4.71598C10.1241 4.30911 9.15717 4.03963 7.99997 4.03963C3.926 4.03963 2.22983 7.36856 1.94449 8.00264ZM6.91675 9.45575C7.23379 9.70409 7.63009 9.85205 8.0581 9.85205C9.07791 9.85205 9.9075 9.02246 9.9075 8.00264C9.9075 7.57464 9.75955 7.17834 9.5112 6.86129L6.91675 9.45575ZM8.0581 6.15324C7.03828 6.15324 6.20869 6.98283 6.20869 8.00264C6.20869 8.40423 6.33551 8.77411 6.55215 9.0753L9.13075 6.4967C8.82956 6.28005 8.45968 6.15324 8.0581 6.15324Z"></path>
  </symbol>
  <symbol xmlns="http://www.w3.org/2000/svg" viewBox="0 0 16 16" id="chat">
    <path d="M13.4 7.668V7.35A5.054 5.054 0 0 0 8.65 2.6h-.318a4.987 4.987 0 0 0-2.261.536h-.003a5.067 5.067 0 0 0-2.801 4.53v.002c-.002.786.181 1.56.535 2.261a.6.6 0 0 1 .034.46l-.887 2.662 2.661-.887a.6.6 0 0 1 .46.034 4.986 4.986 0 0 0 2.262.535h.001a5.066 5.066 0 0 0 4.53-2.801l.001-.003a4.987 4.987 0 0 0 .536-2.26ZM2 14l1.267-3.8a5.587 5.587 0 0 1-.6-2.533A5.667 5.667 0 0 1 5.8 2.6 5.587 5.587 0 0 1 8.333 2h.334A5.653 5.653 0 0 1 14 7.333v.334a5.587 5.587 0 0 1-.6 2.533 5.666 5.666 0 0 1-5.067 3.133 5.587 5.587 0 0 1-2.533-.6L2 14Z"></path>
  </symbol>
  <symbol xmlns="http://www.w3.org/2000/svg" viewBox="0 0 16 16" id="female">
    <path d="M7.609 2c-3.078 0-4.99 1.78-4.99 4.639 0 .407.06.809.123 1.239.17 1.158.347 2.36-.685 3.66a.24.24 0 0 0-.053.196c.013.07.06.131.123.17.047.03 1.167.708 3.725.971C6.5 13.6 7.243 14 7.96 14c.72 0 1.47-.398 2.117-1.125 2.557-.265 3.746-.933 3.795-.962a.26.26 0 0 0 .123-.18.239.239 0 0 0-.052-.203c-1.048-1.25-.907-2.312-.756-3.44.054-.403.114-.822.114-1.248 0-1.704-.821-3.692-3.127-3.758C9.198 2.187 8.244 2 7.609 2Zm2.275 4.003a3.961 3.961 0 0 1 1.168 2.853c0 2.001-1.34 3.595-1.353 3.611-.002.003.003.005 0 .008-.553.646-1.17 1.003-1.739 1.003-.57 0-1.193-.36-1.748-1.01-.002-.004-.007-.006-.009-.009-.013-.011-1.335-1.18-1.335-2.894 0-1.305 1.208-1.58 2.275-1.818.22-.049.426-.092.615-.146 1.262-.363 1.867-1.134 2.126-1.598Zm-3.47 2.78c-.233 0-.422.175-.422.39 0 .217.19.392.422.392.233 0 .422-.175.422-.391 0-.216-.19-.391-.422-.391Zm3.092 0c-.233 0-.422.175-.422.39 0 .217.19.392.422.392.233 0 .422-.175.422-.391 0-.216-.189-.391-.422-.391Z"></path>
  </symbol>
  <symbol xmlns="http://www.w3.org/2000/svg" viewBox="0 0 16 16" id="envelope">
    <path d="M13.989 4.137V4.13a.214.214 0 0 0-.04-.066.214.214 0 0 0-.063-.046.213.213 0 0 0-.073-.017H2.2a.213.213 0 0 0-.073.017.214.214 0 0 0-.063.046.213.213 0 0 0-.05.074v.009A.211.211 0 0 0 2 4.209v7.428a.214.214 0 0 0 .214.214h11.572a.215.215 0 0 0 .214-.214V4.21a.214.214 0 0 0-.011-.072Zm-.418 6.943-3.534-3.156 3.534-3.23v6.386ZM2.43 4.694 5.857 7.83 2.43 11.004v-6.31Zm7.14 3.069a.203.203 0 0 0-.022.017v.009L8 9.204 2.767 4.423h10.466L9.57 7.763Zm-3.395.356 1.681 1.534a.214.214 0 0 0 .286 0l1.571-1.439 3.599 3.209H2.607l3.569-3.304Z"></path>
  </symbol>
  <symbol xmlns="http://www.w3.org/2000/svg" viewBox="0 0 16 16" id="css3">
    <path d="M2 2L2.96172 12.7968L7.27706 14L11.6045 12.7924L12.5669 2H2ZM10.569 4.47359L10.2489 8.07035L10.2498 8.08976L10.2485 8.13443V8.13405L10.021 10.649L9.99598 10.8724L7.28347 11.6226V11.6227L7.28137 11.6245L4.57354 10.8701L4.39019 8.79085H5.71804L5.81225 9.84812L7.28385 10.247L7.28347 10.2477V10.2475L8.76053 9.84305L8.91662 8.12133H5.82889L5.8024 7.83028L5.74204 7.14842L5.71038 6.78229H9.03398L9.15487 5.44325H4.09273L4.06623 5.15239L4.00598 4.47034L3.97422 4.10421H10.6007L10.569 4.47359V4.47359Z"></path>
  </symbol>
  <symbol xmlns="http://www.w3.org/2000/svg" viewBox="0 0 16 16" id="figma">
    <path d="M6 14C7.10698 14 8 13.107 8 12V10H6C4.89302 10 4 10.893 4 12C4 13.107 4.89302 14 6 14ZM4 8C4 6.89302 4.89302 6 6 6H8V10H6C4.89302 10 4 9.10698 4 8ZM4 4C4 2.89302 4.89302 2 6 2H8V6H6C4.89302 6 4 5.10698 4 4ZM8 2H10C11.107 2 12 2.89302 12 4C12 5.10698 11.107 6 10 6H8V2ZM12 8C12 9.10698 11.107 10 10 10C8.89302 10 8 9.10698 8 8C8 6.89302 8.89302 6 10 6C11.107 6 12 6.89302 12 8Z"></path>
  </symbol>
  <symbol xmlns="http://www.w3.org/2000/svg" viewBox="0 0 16 16" id="eye">
    <path d="M7.99998 12.7635C2.93948 12.7635 1.03409 8.15136 0.994861 8.10653C0.968347 8.03995 0.968347 7.96575 0.994861 7.89918C1.03409 7.84874 2.93948 3.23657 7.99998 3.23657C13.0605 3.23657 14.9659 7.84874 15.0051 7.89357C15.0316 7.96015 15.0316 8.03435 15.0051 8.10092C14.9659 8.15136 13.0605 12.7635 7.99998 12.7635ZM1.55527 8.00005C1.88031 8.67254 3.67922 12.2031 7.99998 12.2031C12.3207 12.2031 14.1196 8.67254 14.4447 8.00005C14.1196 7.32756 12.3207 3.79698 7.99998 3.79698C3.67922 3.79698 1.88031 7.32756 1.55527 8.00005ZM7.99998 10.5219C7.5012 10.5219 7.01363 10.374 6.59892 10.0969C6.1842 9.81978 5.86097 9.42592 5.6701 8.96512C5.47923 8.50431 5.42928 7.99725 5.52659 7.50806C5.6239 7.01887 5.86408 6.56952 6.21676 6.21684C6.56945 5.86415 7.0188 5.62397 7.50799 5.52667C7.99718 5.42936 8.50424 5.4793 8.96504 5.67017C9.42585 5.86104 9.81971 6.18428 10.0968 6.59899C10.3739 7.0137 10.5218 7.50128 10.5218 8.00005C10.5218 8.66888 10.2561 9.31032 9.78319 9.78326C9.31025 10.2562 8.66881 10.5219 7.99998 10.5219ZM7.99998 6.03862C7.61204 6.03862 7.23282 6.15365 6.91026 6.36918C6.58771 6.5847 6.3363 6.89104 6.18785 7.24944C6.03939 7.60785 6.00055 8.00223 6.07623 8.38271C6.15191 8.76319 6.33872 9.11268 6.61303 9.38699C6.88734 9.6613 7.23684 9.84811 7.61732 9.92379C7.9978 9.99948 8.39218 9.96063 8.75058 9.81218C9.10899 9.66372 9.41532 9.41232 9.63085 9.08976C9.84637 8.76721 9.96141 8.38798 9.96141 8.00005C9.96141 7.47985 9.75476 6.98095 9.38692 6.61311C9.01908 6.24527 8.52018 6.03862 7.99998 6.03862Z"></path>
  </symbol>
  <symbol fill="none" xmlns="http://www.w3.org/2000/svg" viewBox="0 0 16 16" id="female-pony">
    <path d="M8.67654 3.8278C8.45171 3.61393 8.57446 3.05652 8.57446 3.05652C8.57446 3.05652 8.58457 3.01588 8.60832 2.94935C8.74496 2.56673 9.3331 1.32765 11.0471 2.03571L10.6161 2.14913C10.6161 2.14913 11.9998 2.22481 11.9998 4.46297C11.9998 6.70113 11.9998 9.74849 11.9998 9.74849C11.9998 9.74849 10.9411 10.6897 9.61795 9.13601C8.2948 7.58229 8.6613 5.25764 8.6613 5.25764C8.6613 5.25764 8.90137 4.04166 8.67654 3.8278Z" fill="#635F5A"></path>
    <path d="M7.78101 3.44214C9.35332 3.44214 10.6279 4.71675 10.6279 6.28906V6.87886C10.6279 8.45118 9.35332 9.72579 7.78101 9.72579C6.20869 9.72579 4.93408 8.45118 4.93408 6.87886V6.28906C4.93408 4.71675 6.20869 3.44214 7.78101 3.44214Z" fill="#635F5A"></path>
    <path d="M4.07206 14.2695C4.07206 14.2695 3.89621 11.8773 6.1477 11.654H7.15717V11.189C7.15717 11.189 7.86726 11.494 8.58631 11.223L8.60899 11.654H9.78859C9.78859 11.654 11.8086 11.7333 11.7168 14.2922L4.07206 14.2695Z" fill="white"></path>
    <path d="M11.7101 14.3648H4.14669H4L4.03661 13.7393C4.10811 12.518 5.07037 11.5859 6.17154 11.5859H7.00959V11.7107H6.23839C5.17709 11.7107 4.24966 12.6079 4.18076 13.7834L4.15533 14.2174H11.6902L11.6761 13.7834C11.6072 12.6079 10.6797 11.7107 9.61844 11.7107H8.58617V11.5859H9.67857C10.7797 11.5859 11.742 12.518 11.8135 13.7393L11.8501 14.3648H11.7101Z" fill="#635F5A"></path>
    <path d="M7.83068 12.9924C7.22305 12.9924 6.73047 12.4998 6.73047 11.8922C6.73047 11.7859 6.74585 11.6832 6.77399 11.5859H6.77584H6.89259H7.09342V11.7107H6.86087C6.84986 11.7695 6.84389 11.8301 6.84389 11.8922C6.84389 12.4372 7.28569 12.879 7.83068 12.879C8.37566 12.879 8.81746 12.4372 8.81746 11.8922C8.81746 11.8301 8.81149 11.7695 8.80048 11.7107H8.56793V11.5859H8.76876H8.88551H8.88736C8.9155 11.6832 8.93088 11.7859 8.93088 11.8922C8.93088 12.4998 8.4383 12.9924 7.83068 12.9924Z" fill="#635F5A"></path>
    <path d="M7.15699 11.1365V11.8361C7.15699 12.1991 7.45152 12.4934 7.81485 12.4934C8.17817 12.4934 8.4727 12.1991 8.4727 11.8361V11.151C8.51088 11.1394 8.5487 11.1267 8.58613 11.1131V11.8409C8.58613 12.2701 8.23827 12.6182 7.80918 12.6182C7.38008 12.6182 7.03223 12.2701 7.03223 11.8409V11.0916C7.07332 11.1078 7.11494 11.1227 7.15699 11.1365Z" fill="#635F5A"></path>
    <path d="M7.83743 4.25879C9.27373 4.25879 10.3663 5.51842 10.3079 6.95977L10.2285 8.91578C10.0038 10.2438 9.08823 11.2025 7.84745 11.3364C6.63712 11.2092 5.70362 10.2434 5.44633 8.91578L5.36699 6.95977C5.30852 5.51842 6.40114 4.25879 7.83743 4.25879Z" fill="white"></path>
    <path fill-rule="evenodd" clip-rule="evenodd" d="M10.467 6.8768L10.3826 8.92058C10.1434 10.3082 9.16895 11.3099 7.84839 11.4498C6.56024 11.3169 5.56672 10.3078 5.29288 8.92058L5.20844 6.8768C5.14622 5.37078 6.30908 4.05463 7.83773 4.05463C9.36637 4.05463 10.5292 5.37078 10.467 6.8768ZM7.8379 4.21342C6.40161 4.21342 5.30899 5.47305 5.36746 6.9144L5.4468 8.87041C5.70409 10.1981 6.63759 11.1638 7.84793 11.291C9.0887 11.1571 10.0042 10.1984 10.229 8.87041L10.3083 6.9144C10.3668 5.47305 9.2742 4.21342 7.8379 4.21342Z" fill="#635F5A"></path>
    <path d="M9.06269 9.62598C8.85653 9.80499 8.39087 9.97531 7.84907 9.97531C7.30726 9.97531 6.8416 9.80499 6.63544 9.62598C6.63544 9.62598 6.61434 9.56794 6.64529 9.53699C6.67681 9.50547 6.72617 9.51233 6.72617 9.51233C6.93212 9.69147 7.30705 9.8392 7.84907 9.8392C8.39108 9.8392 8.76601 9.69147 8.97196 9.51233C8.97196 9.51233 9.02233 9.49362 9.04681 9.51809C9.09394 9.56523 9.06269 9.62598 9.06269 9.62598Z" fill="#635F5A"></path>
    <path d="M7.47461 10.2476H8.20052V10.361H7.47461V10.2476Z" fill="#635F5A"></path>
    <path d="M5.22709 7.12681C5.22678 7.12683 5.19924 7.10484 5.14725 7.08847C5.12126 7.0803 5.08896 7.07358 5.05214 7.07193C5.04295 7.07151 5.03349 7.07141 5.02381 7.07169C5.01412 7.07196 5.00422 7.07261 4.99415 7.07369C4.97402 7.07584 4.95323 7.0797 4.93231 7.08572C4.84854 7.10979 4.76309 7.16832 4.7129 7.28913C4.68771 7.34954 4.67109 7.42552 4.66669 7.52059C4.6656 7.54436 4.66526 7.56932 4.66574 7.59552C4.66622 7.62173 4.66753 7.64919 4.6697 7.67795C4.67404 7.73546 4.68189 7.79819 4.69358 7.86654C4.69332 7.86647 4.68268 8.0731 4.75654 8.31052C4.82599 8.54264 4.99274 8.82779 5.30063 8.90928C5.26522 8.31967 5.26412 7.71901 5.22709 7.12681Z" fill="white"></path>
    <path d="M5.2624 7.1506C5.2624 7.1506 4.72604 6.98441 4.74491 7.53582C4.74491 7.53582 4.82477 8.33538 4.85944 8.40907C4.85944 8.40907 5.07009 8.8746 5.41772 8.89524L5.42194 9.04529C5.42194 9.04529 4.81093 8.96695 4.69292 8.26281L4.59977 7.62314C4.59977 7.62314 4.52745 6.77659 5.22899 6.99183L5.2624 7.1506Z" fill="#635F5A"></path>
    <path d="M5.08505 8.26147C5.08505 8.26147 5.05503 8.28415 5.02925 8.28415C5.00346 8.28415 4.97381 8.26147 4.97381 8.26147L4.91846 7.70367C4.91846 7.70367 4.99483 7.42897 5.31891 7.57414L5.32657 7.73364C5.32657 7.73364 5.04224 7.6328 5.04812 7.75836C5.05378 7.87923 5.08505 8.26147 5.08505 8.26147Z" fill="#635F5A"></path>
    <path fill-rule="evenodd" clip-rule="evenodd" d="M10.4639 7.13805C10.6046 7.11376 10.9371 7.10191 10.9221 7.53686C10.9221 7.53686 10.8419 8.33588 10.8071 8.40952C10.8071 8.40952 10.6541 8.74599 10.3936 8.85932C10.4091 8.58748 10.4177 8.31342 10.4263 8.03903C10.4358 7.73825 10.4453 7.43709 10.4639 7.13805Z" fill="white"></path>
    <path d="M10.5805 8.26195C10.5805 8.26195 10.6106 8.28462 10.6365 8.28462C10.6624 8.28462 10.6922 8.26195 10.6922 8.26195L10.7478 7.70453C10.7478 7.70453 10.6711 7.43002 10.3456 7.57509L10.3379 7.73448C10.3379 7.73448 10.6235 7.63371 10.6176 7.75919C10.6119 7.87997 10.5805 8.26195 10.5805 8.26195Z" fill="#635F5A"></path>
    <path fill-rule="evenodd" clip-rule="evenodd" d="M8.04782 8.21729C8.06105 8.21729 8.07428 8.21729 8.08751 8.21729C8.16959 8.32875 8.20298 8.50004 8.24631 8.64829C8.25973 8.69424 8.24671 8.7746 8.23496 8.80709C8.19196 8.92606 8.05692 8.92393 7.94573 8.97722C7.91588 8.99153 7.89366 9.01624 7.855 9.02259C7.82979 9.00038 7.79935 8.99602 7.78694 8.96021C7.75631 8.91803 7.79579 8.89169 7.82664 8.87514C7.88263 8.84511 8.05548 8.81552 8.07617 8.76172C8.10178 8.73259 8.08475 8.64501 8.07617 8.61427C8.0542 8.53552 8.04365 8.46978 8.01379 8.39876C7.99395 8.35159 7.95913 8.30185 7.97976 8.24564C7.99686 8.2383 8.03381 8.22995 8.04782 8.21729Z" fill="#635F5A"></path>
    <path d="M6.47666 7.34393H6.63546C6.72316 7.34393 6.79425 7.41503 6.79425 7.50273C6.79425 7.59042 6.72316 7.66152 6.63546 7.66152H6.47666C6.38896 7.66152 6.31787 7.59042 6.31787 7.50273C6.31787 7.41503 6.38896 7.34393 6.47666 7.34393Z" fill="#635F5A"></path>
    <path d="M9.0626 7.34393H9.22139C9.30909 7.34393 9.38019 7.41503 9.38019 7.50273C9.38019 7.59042 9.30909 7.66152 9.22139 7.66152H9.0626C8.9749 7.66152 8.90381 7.59042 8.90381 7.50273C8.90381 7.41503 8.9749 7.34393 9.0626 7.34393Z" fill="#635F5A"></path>
    <path d="M9.20983 8.09253C9.36643 8.09253 9.49339 8.21948 9.49339 8.37609C9.49339 8.53269 9.36643 8.65965 9.20983 8.65965C9.05322 8.65965 8.92627 8.53269 8.92627 8.37609C8.92627 8.21948 9.05322 8.09253 9.20983 8.09253Z" fill="#FBF6F1"></path>
    <path d="M6.4652 8.09253C6.6218 8.09253 6.74876 8.21948 6.74876 8.37609C6.74876 8.53269 6.6218 8.65965 6.4652 8.65965C6.30859 8.65965 6.18164 8.53269 6.18164 8.37609C6.18164 8.21948 6.30859 8.09253 6.4652 8.09253Z" fill="#FBF6F1"></path>
    <path fill-rule="evenodd" clip-rule="evenodd" d="M10.3087 7.00896C10.2933 7.14002 10.2799 7.30039 10.2515 7.44377C10.1668 7.87252 9.79838 8.26976 9.16931 8.31502C8.54024 8.36028 8.00485 8.04359 7.97347 7.60768C7.96815 7.53377 7.95392 7.45082 7.943 7.37019C7.85398 7.32083 7.76222 7.32072 7.66773 7.36985C7.6567 7.45231 7.64193 7.53744 7.63649 7.61312C7.60501 8.05048 7.06793 8.36822 6.43688 8.32281C5.80583 8.27739 5.43625 7.87884 5.35124 7.44867C5.32282 7.30481 5.3093 7.14391 5.2939 7.01242L5.20117 7.00574L5.2142 6.82473L5.23682 6.82636L5.81072 6.86766L6.29516 6.90252L6.78049 6.93745L7.53644 6.99185C7.58858 6.99844 7.62325 7.0208 7.64557 7.05418C7.75414 7.1017 7.85957 7.10189 7.96188 7.05474C7.984 7.01921 8.01914 6.9953 8.0732 6.98846L8.82677 6.93424L9.31058 6.89943L9.79349 6.86468L10.3656 6.82352L10.3881 6.8219L10.4011 7.00231L10.3087 7.00896ZM7.33345 7.20456L5.85191 7.09794C5.65813 7.08124 5.58945 7.29899 5.57751 7.46495C5.55233 7.81484 5.94218 8.128 6.44828 8.16442C6.95437 8.20084 7.38505 7.94672 7.41022 7.59683C7.42217 7.43087 7.47637 7.32838 7.33345 7.20456ZM10.026 7.46C10.0141 7.29459 9.9456 7.07755 9.75244 7.0942L8.27555 7.20047C8.13308 7.32388 8.18712 7.42604 8.19902 7.59145C8.22412 7.94018 8.65345 8.19346 9.15795 8.15716C9.66245 8.12086 10.0511 7.80873 10.026 7.46Z" fill="#635F5A"></path>
    <path d="M5.41007 5.3703L6.23806 4.31546L6.98666 3.96385L7.99613 3.80505L9.15304 3.87311L10.7069 5.48372L10.2873 7.00359C10.2873 7.00359 10.1911 6.33329 9.67479 5.8013C9.19319 5.30508 8.88083 5.18315 8.88083 5.18315C8.88083 5.18315 8.6987 5.9181 7.48572 5.89204C5.31003 5.84531 5.40667 7.3904 5.33068 7.52534C5.32233 7.54017 5.31934 6.87883 5.31934 6.87883L5.41007 5.3703Z" fill="#635F5A"></path>
  </symbol>
  <symbol xmlns="http://www.w3.org/2000/svg" viewBox="0 0 16 16" id="menu">
    <path d="M2 3.643A.643.643 0 0 1 2.643 3h10.714a.643.643 0 1 1 0 1.286H2.643A.643.643 0 0 1 2 3.643Zm0 4.286a.643.643 0 0 1 .643-.643h10.714a.643.643 0 1 1 0 1.285H2.643A.643.643 0 0 1 2 7.93Zm.643 3.642a.643.643 0 0 0 0 1.286h10.714a.643.643 0 1 0 0-1.286H2.643Z"></path>
  </symbol>
  <symbol xmlns="http://www.w3.org/2000/svg" viewBox="0 0 16 16" id="github">
    <path fill-rule="evenodd" clip-rule="evenodd" d="M8 14c3.3137 0 6-2.6863 6-6 0-3.31371-2.6863-6-6-6-3.31371 0-6 2.68629-6 6 0 3.3137 2.68629 6 6 6Zm0-9.2771c-.79775.00032-1.56937.28443-2.17685.80152-.60747.51708-1.01118 1.23342-1.13892 2.02088-.12773.78746.02884 1.59468.44172 2.27728.41287.68262 1.05512 1.19602 1.81186 1.44852.16782.0309.22969-.0729.22969-.1617 0-.0387-.00071-.1203-.00163-.2259v-.0009c-.00099-.1132-.00221-.2538-.00305-.3988-.93469.2032-1.13204-.3963-1.13204-.3963-.15281-.38835-.37312-.49218-.37312-.49218-.30469-.20859.02344-.20414.02344-.20414.33726.02344.51562.34641.51562.34641.29977.51351.78609.36511.97781.27911.03024-.21724.11719-.36536.21328-.44927-.74718-.08437-1.53187-.37219-1.53187-1.66008-.0047-.33392.11925-.65685.34617-.90187-.03492-.08461-.15-.42633.03258-.88922 0 0 .28125-.09023.92414.34453.55081-.15074 1.132-.15074 1.68281 0 .64125-.43476.92321-.34453.92321-.34453.18281.46289.06773.80461.03304.88922.22701.24495.35081.56797.34571.90187 0 1.29071-.7861 1.57454-1.53422 1.65797.12047.1043.22781.30867.22781.62228 0 .3005-.00167.5618-.00279.7351v.0001l-.00001.0013v.0008c-.00054.0849-.00095.1484-.00095.1847 0 .0896.06047.1943.23086.1613.75674-.2527 1.3989-.7663 1.8116-1.4491.4128-.68276.5691-1.49009.4411-2.27756-.128-.78748-.532-1.50373-1.1397-2.02063C9.5696 5.00671 8.79781 4.72289 8 4.7229ZM5.85497 9.55717c.0239.01148.05015.00633.05765-.01031v-.00024c.00844-.01664-.00562-.03914-.03-.05062-.02437-.01148-.05015-.00633-.05789.01055-.00773.01687.00633.03914.03024.05062Zm.19383.14182c-.01594.01476-.04688.00797-.06867-.01547-.0218-.02344-.02602-.05484-.00985-.07031.01617-.01547.04688-.00797.06891.01547.02203.02343.02625.05484.00961.07031Zm.05743.16455c.02062.02906.05437.04336.075.02906h.00023c.02039-.01477.02133-.05133 0-.08086s-.05461-.04242-.07523-.02812c-.02063.01429-.02063.05086 0 .07992Zm.25635.21586c-.01851.0204-.05765.0148-.08625-.0129-.02859-.0276-.0375-.0656-.01921-.08577.01828-.02016.05812-.01453.08695.01289.02883.02738.03797.06558.01851.08578Zm.16648.1357c.03703.0112.0757-.0008.0839-.027h-.00023c.00797-.027-.01758-.057-.05485-.0689-.03726-.012-.07664.0002-.08414.0269-.0075.0268.01828.0577.05532.069Zm.35901-.0071c0 .0277-.0314.0506-.07031.0513-.03891.0007-.07266-.0215-.07313-.049-.00046-.0274.03141-.0506.07172-.0513.04032-.0007.07266.0216.07266.049h-.00094Zm.19334.0188c.03914-.0073.06727-.0352.06258-.0621v-.0003c-.00516-.0274-.04148-.044-.08039-.0367-.03891.0072-.06726.036-.06234.0628.00492.0267.04101.0436.08015.0363Z"></path>
  </symbol>
  <symbol xmlns="http://www.w3.org/2000/svg" viewBox="0 0 16 16" id="moon">
    <path d="M8.15 14a6.127 6.127 0 0 1-6.078-5.197 6.133 6.133 0 0 1 4.23-6.79.24.24 0 0 1 .273.364 5.145 5.145 0 0 0 .754 6.312 5.129 5.129 0 0 0 6.305.751.237.237 0 0 1 .274.015.24.24 0 0 1 .08.263A6.097 6.097 0 0 1 8.15 14ZM5.857 2.698a5.65 5.65 0 0 0-3.291 5.951 5.655 5.655 0 0 0 4.803 4.81 5.641 5.641 0 0 0 5.944-3.295 5.61 5.61 0 0 1-6.33-1.128 5.626 5.626 0 0 1-1.126-6.338Z"></path>
  </symbol>
  <symbol xmlns="http://www.w3.org/2000/svg" viewBox="0 0 16 16" id="jira">
    <path d="M13.5028 2H7.72559C7.72559 3.44 8.89159 4.606 10.3315 4.606H11.394V5.63425C11.394 7.07425 12.56 8.24025 14 8.24025V2.49712C13.9999 2.36529 13.9475 2.23886 13.8543 2.14564C13.7611 2.05242 13.6347 2.00003 13.5028 2Z"></path>
    <path d="M10.6402 4.88001H4.86279C4.86279 6.31988 6.02842 7.48588 7.46829 7.48588H8.53129V8.51413C8.53129 9.95413 9.69729 11.1201 11.1373 11.1201V5.37701C11.1371 5.24522 11.0847 5.11889 10.9915 5.02571C10.8983 4.93252 10.772 4.88008 10.6402 4.87988V4.88001Z"></path>
    <path d="M7.77738 7.75977H2C2 9.19977 3.1655 10.3658 4.6055 10.3658H5.6685V11.394C5.6685 12.8345 6.8345 14 8.27437 14V8.25739C8.27424 8.12557 8.22185 7.99918 8.12869 7.90593C8.03553 7.81267 7.90919 7.76016 7.77738 7.75989V7.75977Z"></path>
  </symbol>
  <symbol xmlns="http://www.w3.org/2000/svg" viewBox="0 0 16 16" id="pdf">
    <path d="M9.253 2h-4.69A1.562 1.562 0 0 0 3 3.563v9.374A1.563 1.563 0 0 0 4.563 14.5h6.875A1.563 1.563 0 0 0 13 12.937V5.75L9.253 2Zm2.543 3.438H10.5a.938.938 0 0 1-.938-.938V3.198l2.234 2.24Zm.579 7.5a.938.938 0 0 1-.938.937H4.564a.938.938 0 0 1-.938-.938V3.563a.938.938 0 0 1 .938-.938h4.375V4.5A1.563 1.563 0 0 0 10.5 6.063h1.875v6.875Z"></path>
    <path d="M10.186 10.877c-.008-.079-.084-.47-.75-.453a6.3 6.3 0 0 0-.769.05c-.1-.107-.449-.493-.6-.807.042-.13.206-.667.197-1.03-.007-.326-.068-.7-.471-.7h-.007a.358.358 0 0 0-.275.112c-.105.117-.135.308-.102.641.031.318.17.676.21.775-.032.1-.155.477-.31.847a8.303 8.303 0 0 1-.29.634c-.128.046-.639.24-.885.474-.23.219-.438.478-.244.747.064.09.184.143.322.145h.005c.247 0 .51-.163.722-.447.32-.43.49-.722.541-.811.122-.034.574-.16.728-.199.131-.032.285-.06.355-.073.12.116.595.537 1.069.521.22-.008.379-.066.472-.172a.34.34 0 0 0 .083-.255Zm-3.968 1.106a.11.11 0 0 1-.095-.01c-.027-.017-.03-.03-.025-.05.036-.159.42-.425.663-.552-.14.237-.364.56-.543.612ZM7.772 8.21c.027 0 .09 0 .093.238.001.16-.06.419-.11.596a1.727 1.727 0 0 1-.086-.508c0-.24.062-.326.102-.326Zm.214 2.417a3.437 3.437 0 0 0-.317.095l.056-.129c.08-.186.162-.41.213-.557.115.18.242.353.38.517a5.86 5.86 0 0 0-.332.074Zm1.677.33c-.141.06-.455-.03-.72-.235.278-.036.638-.045.755.052a.083.083 0 0 1 .033.069c0 .06-.022.095-.068.114Z"></path>
  </symbol>
  <symbol xmlns="http://www.w3.org/2000/svg" viewBox="0 0 16 16" id="html5">
    <path d="M3 2L3.96438 12.8047L8.29192 14L12.6314 12.806L13.5968 2H3ZM11.5909 4.5581L11.5304 5.24941L11.5038 5.56644H6.42744L6.54861 6.9159H11.3832L11.3508 7.25047L11.0391 10.732L11.0162 10.9508L8.29838 11.6977V11.6979L8.2951 11.6996L5.57911 10.9841L5.39472 8.94009H6.72635L6.82071 9.99258L8.29423 10.3859H8.29838V10.3333L9.77845 9.95981L9.93306 8.26536H5.33544L5.00935 4.59126L4.97764 4.21697H11.6227L11.5909 4.5581Z"></path>
  </symbol>
  <symbol xmlns="http://www.w3.org/2000/svg" viewBox="0 0 16 16" id="jquery">
    <path d="M8.124 11.915c-.08-.018-.158-.042-.236-.066l-.058-.017a6.934 6.934 0 0 1-.227-.074l-.03-.011a6.765 6.765 0 0 1-.2-.074l-.057-.023a6.226 6.226 0 0 1-.215-.09l-.043-.018a8.745 8.745 0 0 1-.182-.085l-.053-.025c-.047-.023-.094-.048-.14-.072l-.095-.049a5.463 5.463 0 0 1-.168-.095l-.057-.031a7.584 7.584 0 0 1-.22-.135l-.06-.04a5.476 5.476 0 0 1-.155-.103l-.05-.036a8.95 8.95 0 0 1-.149-.106l-.065-.05a6.338 6.338 0 0 1-.133-.104l-.06-.048a8.436 8.436 0 0 1-.166-.14l-.018-.015a7.944 7.944 0 0 1-.174-.159l-.05-.047a5.491 5.491 0 0 1-.125-.123l-.05-.05a6.943 6.943 0 0 1-.153-.162l-.008-.008a6.341 6.341 0 0 1-.156-.178l-.04-.048a6.485 6.485 0 0 1-.113-.14l-.041-.05a7.565 7.565 0 0 1-.13-.173c-1.17-1.597-1.591-3.799-.655-5.607l-.83 1.052c-1.062 1.527-.93 3.514-.119 5.136l.06.116.038.073.024.042.042.076.077.133.045.072c.029.048.059.094.09.141l.038.06c.042.062.085.125.13.187l.004.005.022.03c.038.053.078.105.118.157l.045.057c.036.046.073.09.11.135l.042.05c.05.06.1.117.152.175l.004.003.006.006c.05.056.102.11.155.164l.05.05c.04.041.082.082.124.122l.05.048c.056.053.113.104.17.155l.003.002.03.025c.05.044.102.088.154.13l.064.052c.042.034.085.067.129.1l.068.052c.048.036.096.07.145.104l.052.037.015.01c.046.032.093.063.14.093l.06.04c.073.046.146.091.22.135l.06.034c.055.032.11.063.166.093l.09.047.119.061.027.013.048.024.187.086.04.018c.072.031.144.061.218.09l.053.021c.068.026.136.052.205.076l.026.01c.076.026.153.05.23.074l.055.017c.078.024.156.052.237.067 5.138.937 6.63-3.088 6.63-3.088-1.253 1.633-3.478 2.064-5.586 1.584ZM6.273 7.751c.115.165.242.361.395.494.056.061.114.12.173.179l.045.045c.057.056.116.11.176.163l.007.006.002.002c.067.059.136.115.206.17l.046.037c.07.054.142.106.215.157l.007.005.098.064.046.031c.053.034.106.066.16.098l.022.013.141.079.05.026.1.05.014.008c.068.033.136.065.206.095l.045.02.169.068.072.026c.052.02.103.036.155.054l.07.022c.074.023.147.052.224.065C13.084 10.385 14 7.331 14 7.331c-.826 1.189-2.425 1.756-4.13 1.313a4.872 4.872 0 0 1-.225-.065l-.068-.022a4.45 4.45 0 0 1-.157-.054l-.07-.026a5.529 5.529 0 0 1-.17-.068l-.046-.02a4.603 4.603 0 0 1-.206-.096c-.036-.017-.07-.035-.104-.053l-.06-.03a4.286 4.286 0 0 1-.132-.075l-.03-.017a4.625 4.625 0 0 1-.16-.098l-.048-.032a5.62 5.62 0 0 1-.317-.225l-.049-.037c-.746-.59-1.338-1.396-1.62-2.31-.295-.947-.231-2.01.28-2.874l-.628.886c-.768 1.106-.726 2.586-.127 3.755.1.197.214.387.34.568Zm4.181-1.368.099.034.043.014c.047.015.093.032.141.04 2.19.424 2.785-1.123 2.943-1.351-.52.75-1.395.93-2.468.669a3.21 3.21 0 0 1-1.109-.538c-.96-.73-1.557-2.119-.93-3.251l-.34.467c-.452.667-.497 1.495-.182 2.23.331.782 1.01 1.395 1.803 1.686Z"></path>
  </symbol>
  <symbol xmlns="http://www.w3.org/2000/svg" fill="none" viewBox="0 0 16 16" id="github-circle">
    <path fill-rule="evenodd" clip-rule="evenodd" d="M8 14C11.3137 14 14 11.3137 14 8C14 4.68629 11.3137 2 8 2C4.68629 2 2 4.68629 2 8C2 11.3137 4.68629 14 8 14ZM8 4.7229C7.20225 4.72322 6.43063 5.00733 5.82315 5.52442C5.21568 6.0415 4.81197 6.75784 4.68423 7.5453C4.5565 8.33276 4.71307 9.13998 5.12595 9.82258C5.53882 10.5052 6.18107 11.0186 6.93781 11.2711C7.10563 11.302 7.1675 11.1982 7.1675 11.1094C7.1675 11.0707 7.16679 10.9891 7.16587 10.8835V10.8826C7.16488 10.7694 7.16366 10.6288 7.16282 10.4838C6.22813 10.687 6.03078 10.0875 6.03078 10.0875C5.87797 9.69915 5.65766 9.59532 5.65766 9.59532C5.35297 9.38673 5.6811 9.39118 5.6811 9.39118C6.01836 9.41462 6.19672 9.73759 6.19672 9.73759C6.49649 10.2511 6.98281 10.1027 7.17453 10.0167C7.20477 9.79946 7.29172 9.65134 7.38781 9.56743C6.64063 9.48306 5.85594 9.19524 5.85594 7.90735C5.85124 7.57343 5.97519 7.2505 6.20211 7.00548C6.16719 6.92087 6.05211 6.57915 6.23469 6.11626C6.23469 6.11626 6.51594 6.02603 7.15883 6.46079C7.70964 6.31005 8.29083 6.31005 8.84164 6.46079C9.48289 6.02603 9.76485 6.11626 9.76485 6.11626C9.94766 6.57915 9.83258 6.92087 9.79789 7.00548C10.0249 7.25043 10.1487 7.57345 10.1436 7.90735C10.1436 9.19806 9.3575 9.48189 8.60938 9.56532C8.72985 9.66962 8.83719 9.87399 8.83719 10.1876C8.83719 10.4881 8.83552 10.7494 8.8344 10.9227V10.9228L8.83439 10.9241V10.9249C8.83385 11.0098 8.83344 11.0733 8.83344 11.1096C8.83344 11.1992 8.89391 11.3039 9.0643 11.2709C9.82104 11.0182 10.4632 10.5046 10.8759 9.8218C11.2887 9.13904 11.445 8.33171 11.317 7.54424C11.189 6.75676 10.785 6.04051 10.1773 5.52361C9.5696 5.00671 8.79781 4.72289 8 4.7229V4.7229ZM5.85497 9.55717C5.87887 9.56865 5.90512 9.5635 5.91262 9.54686V9.54662C5.92106 9.52998 5.907 9.50748 5.88262 9.496C5.85825 9.48452 5.83247 9.48967 5.82473 9.50655C5.817 9.52342 5.83106 9.54569 5.85497 9.55717V9.55717ZM6.0488 9.69899C6.03286 9.71375 6.00192 9.70696 5.98013 9.68352C5.95833 9.66008 5.95411 9.62868 5.97028 9.61321C5.98645 9.59774 6.01716 9.60524 6.03919 9.62868C6.06122 9.65211 6.06544 9.68352 6.0488 9.69899ZM6.10623 9.86354C6.12685 9.8926 6.1606 9.9069 6.18123 9.8926H6.18146C6.20185 9.87783 6.20279 9.84127 6.18146 9.81174C6.16013 9.78221 6.12685 9.76932 6.10623 9.78362C6.0856 9.79791 6.0856 9.83448 6.10623 9.86354ZM6.36258 10.0794C6.34407 10.0998 6.30493 10.0942 6.27633 10.0665C6.24774 10.0389 6.23883 10.0009 6.25712 9.98073C6.2754 9.96057 6.31524 9.9662 6.34407 9.99362C6.3729 10.021 6.38204 10.0592 6.36258 10.0794ZM6.52906 10.2151C6.56609 10.2263 6.60476 10.2143 6.61296 10.1881H6.61273C6.6207 10.1611 6.59515 10.1311 6.55788 10.1192C6.52062 10.1072 6.48124 10.1194 6.47374 10.1461C6.46624 10.1729 6.49202 10.2038 6.52906 10.2151V10.2151ZM6.88807 10.208C6.88807 10.2357 6.85667 10.2586 6.81776 10.2593C6.77885 10.26 6.7451 10.2378 6.74463 10.2103C6.74417 10.1829 6.77604 10.1597 6.81635 10.159C6.85667 10.1583 6.88901 10.1806 6.88901 10.208H6.88807ZM7.08141 10.2268C7.12055 10.2195 7.14868 10.1916 7.14399 10.1647V10.1644C7.13883 10.137 7.10251 10.1204 7.0636 10.1277C7.02469 10.1349 6.99634 10.1637 7.00126 10.1905C7.00618 10.2172 7.04227 10.2341 7.08141 10.2268V10.2268Z" fill="black"></path>
  </symbol>
  <symbol xmlns="http://www.w3.org/2000/svg" viewBox="0 0 16 16" id="storybook">
    <path d="M11.9909 2.00119L11.325 2.0427L11.3769 3.42744C11.3796 3.50401 11.2912 3.54871 11.231 3.50122L10.7851 3.14967L10.2568 3.55054C10.2432 3.56087 10.2269 3.56711 10.2099 3.56854C10.1929 3.56996 10.1758 3.56652 10.1607 3.5586C10.1456 3.55067 10.133 3.53861 10.1245 3.52381C10.1159 3.50901 10.1118 3.49209 10.1125 3.47502L10.172 2.11475L3.56581 2.52785C3.40866 2.53764 3.26157 2.60847 3.15594 2.72523C3.0503 2.84199 2.99449 2.99541 3.00043 3.15275L3.37221 13.0577C3.37789 13.2091 3.44027 13.3527 3.54697 13.4602C3.65367 13.5677 3.79689 13.6311 3.94818 13.6378L12.0014 13.9994C12.0828 14.003 12.1641 13.9901 12.2404 13.9615C12.3167 13.9328 12.3864 13.8891 12.4453 13.8328C12.5042 13.7765 12.5511 13.7088 12.5831 13.6339C12.6152 13.559 12.6317 13.4783 12.6318 13.3969V2.60336C12.6318 2.52095 12.615 2.4394 12.5822 2.36376C12.5495 2.28811 12.5016 2.21998 12.4416 2.16358C12.3815 2.10714 12.3106 2.06362 12.233 2.03568C12.1555 2.00775 12.0731 1.99601 11.9909 2.00119V2.00119ZM7.99761 4.04184C9.56834 4.04184 10.4261 4.88201 10.4261 6.48048C10.2138 6.64547 8.63272 6.75787 8.63272 6.52315C8.66605 5.6274 8.26508 5.5882 8.0423 5.5882C7.8306 5.5882 7.47413 5.65196 7.47413 6.13181C7.47413 7.31535 10.5264 7.25149 10.5264 9.64004C10.5264 10.9837 9.43465 11.7258 8.0423 11.7258C6.60526 11.7258 5.34958 11.1444 5.49136 9.12879C5.54703 8.89214 7.37387 8.94839 7.37387 9.12879C7.35171 9.96048 7.54097 10.2051 8.01986 10.2051C8.3875 10.2051 8.5547 10.0026 8.5547 9.66132C8.5547 8.44572 5.54703 8.40314 5.54703 6.17458C5.54703 4.89501 6.42717 4.04184 7.99771 4.04184H7.99761Z"></path>
  </symbol>
  <symbol xmlns="http://www.w3.org/2000/svg" viewBox="0 0 16 16" id="javascript">
    <path d="M2 2V14H14V2H2ZM8.34742 12.2252C8.1703 12.5852 7.83219 12.8216 7.44042 12.9357C6.8384 13.074 6.26259 12.9952 5.83424 12.7381C5.54758 12.5622 5.32371 12.2915 5.17174 11.9796L6.08566 11.4199C6.09363 11.4233 6.11763 11.4667 6.1497 11.5227C6.26624 11.718 6.36675 11.8562 6.56432 11.9533C6.75843 12.0195 7.18458 12.0619 7.34912 11.7203C7.44963 11.5465 7.41766 10.988 7.41766 10.37C7.41757 9.39901 7.42208 8.432 7.42208 7.472H8.54614C8.54614 8.528 8.5519 9.52813 8.54614 10.5586C8.54854 11.1903 8.60336 11.7534 8.34742 12.2252ZM13.0105 11.9077C12.6198 13.2442 10.4414 13.2876 9.57085 12.4046C9.38691 12.1967 9.27162 12.0882 9.16189 11.8483C9.62451 11.5821 9.62451 11.5821 10.0747 11.3217C10.3192 11.6975 10.5452 11.9042 10.952 11.9888C11.5038 12.0562 12.059 11.8666 11.9345 11.2805C11.8065 10.8019 10.8045 10.6854 10.1227 10.1735C9.4304 9.70861 9.26816 8.57888 9.83706 7.93338C10.0267 7.69462 10.35 7.51645 10.6892 7.43082L11.0433 7.38502C11.7231 7.3713 12.148 7.55082 12.4599 7.8991C12.5467 7.98704 12.6175 8.08189 12.75 8.28742C12.3879 8.51821 12.389 8.516 11.8703 8.85181C11.7596 8.61315 11.5757 8.46339 11.3814 8.3983C11.0798 8.30691 10.6994 8.40627 10.6205 8.72499C10.5932 8.8232 10.5988 8.91459 10.6423 9.07683C10.7645 9.35552 11.1746 9.47667 11.5425 9.64573C12.6015 10.0752 12.9591 10.5357 13.047 11.0839C13.1317 11.5558 13.0266 11.862 13.0105 11.9077V11.9077Z"></path>
  </symbol>
  <symbol xmlns="http://www.w3.org/2000/svg" viewBox="0 0 16 16" id="tailwind">
    <path d="M8 4C6.39997 4 5.40031 4.79969 5 6.39972C5.59981 5.59994 6.30003 5.30003 7.09981 5.5C7.55647 5.61381 7.88281 5.94494 8.24422 6.31188C8.83241 6.90878 9.51322 7.59981 11 7.59981C12.5999 7.59981 13.5997 6.80003 14 5.19963C13.4001 5.99988 12.7 6.29978 11.9001 6.09981C11.4435 5.98591 11.1176 5.65488 10.7557 5.28794C10.1679 4.69103 9.48725 4 8 4V4ZM5 7.59981C3.40006 7.59981 2.40031 8.39959 2 10C2.59981 9.19975 3.29994 8.89984 4.09981 9.09981C4.55647 9.21372 4.88281 9.54475 5.24422 9.91169C5.83241 10.5086 6.51322 11.1996 8 11.1996C9.59994 11.1996 10.5997 10.3999 11 8.79991C10.4001 9.59969 9.69997 9.89959 8.90009 9.69963C8.44353 9.58581 8.11756 9.25469 7.75569 8.88775C7.16787 8.29084 6.48725 7.59981 5 7.59981Z"></path>
  </symbol>
  <symbol xmlns="http://www.w3.org/2000/svg" viewBox="0 0 16 16" id="nuxt">
    <path id="left" d="M5.68134 11.7509L5.65472 11.6977C5.60156 11.5913 5.60156 11.4849 5.62818 11.3519H2.75553L7.0114 3.79792L8.79353 7.01643L9.37864 6.59079L7.59651 3.37229C7.56997 3.31913 7.35716 3 7.0114 3C6.85174 3 6.61239 3.05316 6.4262 3.39891L2.11717 11.0328C2.09055 11.1126 1.90435 11.4584 2.06392 11.7509C2.17033 11.9106 2.32999 12.0701 2.70237 12.0701H6.31979C5.94741 12.0701 5.76122 11.9106 5.68134 11.751V11.7509Z"></path>
    <path id="right" d="M13.8737 11.059L10.4158 4.83492C10.3626 4.78176 10.1765 4.43591 9.83061 4.43591C9.67104 4.43591 9.43169 4.5157 9.2455 4.83492L8.79333 5.57969V7.01606L9.8307 5.23393L13.2619 11.3516H11.9586C11.9804 11.4783 11.9618 11.6085 11.9053 11.724L11.8787 11.7506C11.7191 12.0431 11.3201 12.0698 11.267 12.0698H13.2885C13.3682 12.0698 13.7406 12.0432 13.9268 11.7506C14.0066 11.6176 14.0599 11.3782 13.8737 11.059V11.059Z"></path>
    <path id="center" d="M11.9855 11.7509V11.7243L12.0121 11.6711C12.0386 11.5647 12.0653 11.4583 12.0386 11.3519L11.9323 11.0328L9.21932 6.29822L8.82031 5.58008H8.79369L8.39468 6.29822L5.68168 11.0327L5.57537 11.3519C5.5496 11.4872 5.56825 11.6271 5.62853 11.7509C5.73493 11.9105 5.8945 12.0701 6.26688 12.0701H11.3207C11.4005 12.0701 11.7995 12.0435 11.9857 11.7509H11.9855ZM8.79359 7.01636L11.2673 11.3519H6.31995L8.79359 7.01636Z"></path>
  </symbol>
  <symbol xmlns="http://www.w3.org/2000/svg" viewBox="0 0 16 16" id="sun">
    <path d="M10.127 5.873A3.026 3.026 0 0 0 8 4.983a2.96 2.96 0 0 0-2.127.89c-.54.54-.89 1.302-.89 2.127 0 .825.35 1.587.89 2.127.54.54 1.302.89 2.127.89a2.96 2.96 0 0 0 2.127-.89c.54-.54.89-1.302.89-2.127a2.96 2.96 0 0 0-.89-2.127Zm-.571 3.683A2.195 2.195 0 0 1 8 10.19a2.195 2.195 0 0 1-1.556-.635A2.195 2.195 0 0 1 5.81 8c0-.604.238-1.159.635-1.556A2.195 2.195 0 0 1 8 5.81c.604 0 1.159.238 1.556.635s.635.952.635 1.556c0 .604-.238 1.159-.635 1.556Zm4.032-1.968h-1.223a.42.42 0 0 0-.413.412c0 .222.19.412.413.412h1.223A.42.42 0 0 0 14 8a.42.42 0 0 0-.412-.412ZM8 11.952a.42.42 0 0 0-.412.413v1.223c0 .222.19.412.412.412a.42.42 0 0 0 .412-.412v-1.223A.42.42 0 0 0 8 11.952Zm4.238-.286-.873-.873c-.143-.158-.413-.158-.572 0a.403.403 0 0 0 0 .572l.873.873a.402.402 0 0 0 .572 0 .402.402 0 0 0 0-.572ZM8 2a.42.42 0 0 0-.412.412v1.223c0 .222.19.413.412.413a.42.42 0 0 0 .412-.413V2.412A.42.42 0 0 0 8 2Zm4.254 1.762a.402.402 0 0 0-.571 0l-.873.873a.402.402 0 0 0 0 .572c.143.158.412.158.57 0l.874-.873a.402.402 0 0 0 0-.572ZM3.635 7.588H2.412A.42.42 0 0 0 2 8a.41.41 0 0 0 .412.412h1.223A.42.42 0 0 0 4.048 8a.42.42 0 0 0-.413-.412Zm1.555 3.205c-.142-.158-.412-.158-.57 0l-.874.873a.402.402 0 0 0 0 .572.402.402 0 0 0 .571 0l.873-.873a.402.402 0 0 0 0-.572Zm0-6.158-.873-.873a.402.402 0 0 0-.57 0 .402.402 0 0 0 0 .572l.872.873a.403.403 0 1 0 .571-.572Z"></path>
  </symbol>
  <symbol xmlns="http://www.w3.org/2000/svg" viewBox="0 0 16 16" id="git">
    <path d="M13.7739 7.46426L8.53561 2.22624C8.23415 1.92459 7.74488 1.92459 7.44294 2.22624L6.35541 3.31407L7.73519 4.69385C8.05595 4.5856 8.42356 4.65821 8.67912 4.91377C8.80092 5.03567 8.88594 5.18939 8.92448 5.35734C8.96302 5.52529 8.95351 5.7007 8.89705 5.8635L10.2268 7.19349C10.5486 7.08258 10.9199 7.15424 11.1767 7.4116C11.5359 7.77057 11.5359 8.3525 11.1767 8.71165C11.0913 8.79706 10.9899 8.86482 10.8784 8.91105C10.7668 8.95728 10.6472 8.98107 10.5265 8.98107C10.4057 8.98107 10.2861 8.95728 10.1745 8.91105C10.063 8.86482 9.96162 8.79706 9.87624 8.71165C9.74798 8.58331 9.66054 8.41989 9.62494 8.24196C9.58935 8.06403 9.60717 7.87955 9.67618 7.71174L8.43611 6.47157L8.43592 9.73532C8.52589 9.77963 8.60804 9.83831 8.67912 9.90905C9.03828 10.268 9.03828 10.8498 8.67912 11.2095C8.31997 11.5684 7.73785 11.5684 7.37908 11.2095C7.02002 10.8499 6.99056 10.2681 7.34952 9.90905C7.43829 9.82038 7.52582 9.75338 7.62086 9.70852V6.41454C7.52582 6.36968 7.43838 6.30316 7.34943 6.21391C7.07752 5.9421 7.02667 5.54293 7.16619 5.20878L5.81349 3.84847L2.22536 7.44002C1.92361 7.74196 1.92551 8.23123 2.22727 8.53298L7.46642 13.771C7.76798 14.0726 8.25762 14.0726 8.55966 13.771L13.7735 8.55731C14.0753 8.25546 14.0756 7.76591 13.7739 7.46426V7.46426Z"></path>
  </symbol>
  <symbol xmlns="http://www.w3.org/2000/svg" viewBox="0 0 16 16" id="sass">
    <path fill-rule="evenodd" clip-rule="evenodd" d="M2 7.74239C2 7.80958 2.01978 7.85393 2.03087 7.89703C2.10313 8.17736 2.25844 8.41792 2.44271 8.63737C2.70516 8.95009 3.02659 9.20184 3.35585 9.43858C3.64143 9.64388 3.93284 9.84459 4.21957 10.0484C4.26879 10.0833 4.31534 10.1236 4.36877 10.1665C4.32279 10.1913 4.28456 10.2132 4.2448 10.2334C3.86642 10.4253 3.50237 10.6405 3.1668 10.9011C2.96456 11.0582 2.76901 11.2252 2.6309 11.4434C2.40868 11.7944 2.33003 12.1682 2.49566 12.5675C2.54402 12.6841 2.61781 12.7848 2.72189 12.8593C2.75563 12.8833 2.79348 12.9072 2.83295 12.9166C2.93407 12.9404 3.0371 12.956 3.13946 12.9748L3.42935 12.9746C3.74991 12.946 4.0417 12.8362 4.3054 12.6543C4.71752 12.3698 4.99517 11.9885 5.11455 11.499C5.20133 11.1433 5.20487 10.7872 5.1026 10.4331C5.09281 10.4003 5.08152 10.3679 5.06877 10.3361C5.05634 10.3043 5.04172 10.2733 5.02452 10.2337L5.6817 9.85578L5.69154 9.86419C5.6796 9.90328 5.66688 9.94227 5.65608 9.98175C5.578 10.2669 5.5261 10.5571 5.54474 10.8531C5.56462 11.1685 5.65264 11.4638 5.8373 11.7273C5.98659 11.9404 6.34232 11.9483 6.50098 11.7344C6.55727 11.6584 6.61185 11.579 6.65285 11.4942C6.75999 11.273 6.8592 11.0478 6.96156 10.8242L6.97944 10.7832C6.97208 10.8891 6.96347 10.9821 6.95956 11.0752C6.95344 11.2206 6.96194 11.3651 7.01164 11.5034C7.05418 11.6217 7.12653 11.7101 7.26205 11.7257C7.35476 11.7363 7.42864 11.6939 7.49679 11.6401C7.60236 11.5567 7.68987 11.4526 7.75399 11.3343C7.93568 11.0007 8.12224 10.669 8.28692 10.327C8.46507 9.95699 8.62086 9.57621 8.78631 9.19993L8.81364 9.13322C8.85273 9.28681 8.87997 9.43725 8.93015 9.57966C8.98845 9.74491 9.06061 9.90624 9.13918 10.0631C9.17635 10.1372 9.17205 10.1852 9.12054 10.2474C8.90492 10.5073 8.69302 10.7704 8.48094 11.0333C8.43401 11.0913 8.38728 11.1504 8.34818 11.2137C8.32447 11.2537 8.30888 11.298 8.30231 11.3441C8.29573 11.3865 8.30582 11.4298 8.33046 11.4649C8.3551 11.5 8.39239 11.5242 8.43449 11.5325C8.51947 11.5508 8.6066 11.557 8.69331 11.5509C8.98931 11.5291 9.25807 11.4252 9.49567 11.2492C9.80353 11.0211 9.90235 10.7099 9.8278 10.3411C9.80764 10.241 9.77199 10.1437 9.73729 10.0473C9.72171 10.0038 9.72066 9.97333 9.74905 9.93281C9.99516 9.58138 10.2054 9.20853 10.401 8.82709C10.4087 8.81208 10.4166 8.79708 10.4302 8.78102C10.4936 9.11076 10.589 9.42855 10.7599 9.7169C10.6727 9.80092 10.5864 9.87709 10.5083 9.96101C10.3364 10.1459 10.1873 10.3466 10.1095 10.5913C10.076 10.6968 10.0503 10.8041 10.0652 10.9168C10.0883 11.0918 10.2317 11.2055 10.4038 11.1657C10.7722 11.0804 11.0902 10.9068 11.3225 10.5994C11.4789 10.3923 11.4931 10.1614 11.4277 9.91952C11.4097 9.85377 11.3884 9.78906 11.3654 9.71365C11.4563 9.68546 11.5449 9.65162 11.6366 9.63069C12.1125 9.52212 12.5832 9.54104 13.0418 9.71289C13.3095 9.81324 13.5257 9.98117 13.654 10.2453C13.8107 10.5683 13.7241 10.8747 13.4197 11.0789C13.3913 11.0979 13.3588 11.1129 13.3353 11.1367C13.3277 11.1454 13.3221 11.1556 13.3187 11.1666C13.3154 11.1777 13.3143 11.1893 13.3157 11.2007C13.3177 11.2125 13.3487 11.2272 13.3666 11.227C13.4667 11.2262 13.5478 11.1738 13.6257 11.1199C13.8209 10.9848 13.9633 10.8031 13.994 10.5639L14 10.5459L13.9926 10.3901C13.9897 10.3812 13.9948 10.3723 13.9942 10.3655C13.9527 10.0171 13.7666 9.74691 13.4959 9.53512C13.1824 9.28996 12.8123 9.18903 12.4208 9.17307C12.1033 9.15941 11.7862 9.20822 11.4875 9.31672C11.4018 9.34779 11.3168 9.38458 11.2306 9.41928C11.219 9.39835 11.2066 9.37828 11.1964 9.35754C11.1079 9.17632 11.0006 9.00314 10.9769 8.79536C10.9601 8.64779 10.9395 8.50041 10.9745 8.35446C11.0083 8.21406 11.0522 8.07605 11.0936 7.93756C11.1149 7.86626 11.0999 7.82631 11.0319 7.79419C11.0082 7.78237 10.9829 7.77406 10.9568 7.76953C10.7895 7.74526 10.6245 7.75912 10.4625 7.80624C10.4052 7.82296 10.3635 7.85507 10.3508 7.91854C10.3435 7.95495 10.3287 7.98984 10.3184 8.02577C10.2761 8.17516 10.246 8.32741 10.1776 8.46973C10.0061 8.8267 9.81041 9.17021 9.61008 9.51122C9.58838 9.54802 9.56554 9.58415 9.53821 9.62878C9.46786 9.48159 9.39283 9.34951 9.37009 9.19467C9.34438 9.01958 9.32412 8.84477 9.3677 8.67101C9.4001 8.54141 9.44244 8.4142 9.48143 8.28632C9.49988 8.22553 9.49137 8.19361 9.43632 8.16159C9.40851 8.14544 9.37706 8.1311 9.34572 8.12642C9.17421 8.10029 8.99898 8.11463 8.834 8.16828C8.7821 8.1851 8.75486 8.21865 8.739 8.27217C8.69236 8.43006 8.6526 8.59178 8.58713 8.74193C8.322 9.34979 8.04922 9.95451 7.77673 10.5591C7.71987 10.6854 7.65325 10.8072 7.58912 10.9302C7.57287 10.9613 7.54917 10.9887 7.5289 11.018C7.51266 10.9988 7.50635 10.9856 7.50644 10.9724C7.50692 10.8947 7.49765 10.8147 7.51246 10.7396C7.55796 10.5124 7.60824 10.2862 7.66328 10.0611C7.70821 9.87508 7.76049 9.69081 7.81028 9.50606C7.82701 9.44422 7.82729 9.3864 7.78285 9.33441C7.7082 9.24734 7.55222 9.22822 7.45971 9.29532L7.4188 9.31845L7.42673 9.2525C7.44623 9.11114 7.45015 8.97026 7.41134 8.83101C7.36298 8.65744 7.23912 8.55756 7.05905 8.5631C6.97513 8.56568 6.88701 8.58002 6.80931 8.61061C6.48253 8.73868 6.23126 8.96548 6.01736 9.23835C5.99753 9.26369 5.97296 9.28492 5.94501 9.30086C5.66851 9.45416 5.39115 9.60556 5.11388 9.75752L4.80526 9.9266C4.72249 9.84765 4.64728 9.76574 4.56193 9.69626C4.30129 9.4837 4.03645 9.27639 3.77399 9.06622C3.54136 8.87994 3.31599 8.68592 3.14357 8.43924C3.01531 8.25573 2.93263 8.05492 2.9247 7.82803C2.91467 7.53891 2.99667 7.27473 3.14386 7.02882C3.33214 6.71418 3.58896 6.46167 3.87129 6.23295C4.16997 5.99114 4.49301 5.78585 4.82782 5.59842C5.29624 5.33625 5.77804 5.10419 6.29463 4.95099C6.82431 4.79386 7.36174 4.70392 7.91608 4.76662C8.134 4.79128 8.3456 4.84117 8.53991 4.94774C8.68872 5.02926 8.81077 5.13602 8.86755 5.3029C8.92355 5.4671 8.92183 5.6335 8.88303 5.80028C8.80418 6.13804 8.61924 6.41646 8.38651 6.66524C8.00478 7.07307 7.53913 7.35072 7.01489 7.53413C6.71347 7.63972 6.39986 7.70662 6.08159 7.73321C5.82076 7.7551 5.56538 7.73197 5.31841 7.64127C5.15488 7.58115 5.01247 7.48921 4.89797 7.35578C4.87752 7.33189 4.85133 7.30599 4.8132 7.32835C4.77583 7.35034 4.76923 7.38589 4.78175 7.42192C4.80268 7.48175 4.82199 7.54407 4.85458 7.59759C4.93649 7.73188 5.05596 7.82927 5.18747 7.9128C5.44008 8.07347 5.72241 8.12747 6.01516 8.13999C6.4594 8.1592 6.89284 8.09287 7.32016 7.97368C7.93023 7.80356 8.46068 7.50307 8.88609 7.02901C9.24029 6.63428 9.49329 6.1888 9.54748 5.65089C9.57395 5.38834 9.54576 5.13115 9.42285 4.89163C9.28952 4.63214 9.07753 4.43917 8.82406 4.30623C8.45494 4.11268 8.05658 4 7.64541 4H7.23348C6.73552 4 6.25411 4.1427 5.78616 4.31292C5.43196 4.44185 5.08463 4.59401 4.74744 4.76241C4.01313 5.12933 3.32928 5.57175 2.76757 6.1801C2.48773 6.48317 2.25079 6.81759 2.1145 7.21137C2.07336 7.32893 2.03793 7.44841 2.00832 7.5694L2 7.74239ZM4.66907 11.0114C4.63724 11.4376 4.44408 11.7831 4.12839 12.0629C3.95081 12.2202 3.74714 12.3323 3.50992 12.3716C3.4239 12.3859 3.33587 12.3893 3.25243 12.3537C3.13344 12.3028 3.10677 12.1972 3.10448 12.0847C3.10094 11.9054 3.16374 11.7433 3.24985 11.5891C3.36225 11.388 3.52702 11.2347 3.70298 11.0915C3.98015 10.8658 4.28084 10.6749 4.58878 10.4946L4.61201 10.4851C4.6596 10.6609 4.68226 10.8346 4.66907 11.0114V11.0114ZM7.07358 9.15922C7.05112 9.29532 7.02302 9.43151 6.98326 9.56341C6.84582 10.02 6.66929 10.4624 6.47842 10.8989C6.44316 10.9797 6.39183 11.0533 6.3472 11.1299C6.3396 11.1417 6.33051 11.1524 6.32015 11.1618C6.26491 11.2164 6.21253 11.2135 6.18462 11.1421C6.15213 11.0592 6.13215 10.9704 6.11495 10.8826C6.10338 10.8236 6.10615 10.7616 6.10252 10.7012C6.10625 10.2717 6.23728 9.88139 6.4596 9.51801C6.55125 9.36814 6.65103 9.22535 6.80348 9.13054C6.8509 9.10106 6.90221 9.07834 6.95592 9.06306C7.03716 9.04022 7.08705 9.07778 7.07358 9.15922V9.15922ZM8.71405 11.2493L9.30366 10.5608C9.32823 10.8165 8.89364 11.3269 8.71405 11.2493ZM10.5972 10.786C10.5555 10.8099 10.5101 10.8271 10.4674 10.8492C10.4283 10.8695 10.4154 10.849 10.4143 10.8154C10.4137 10.7921 10.4167 10.7688 10.4231 10.7465C10.5028 10.4656 10.6493 10.2259 10.8673 10.031L10.8826 10.0231C10.9863 10.3132 10.8664 10.6318 10.5972 10.786Z"></path>
  </symbol>
  <symbol xmlns="http://www.w3.org/2000/svg" viewBox="0 0 16 16" id="typescript">
    <path d="M2 8V14H14V2H2V8ZM11.6701 7.52C11.9575 7.5867 12.2187 7.73702 12.4208 7.952C12.5321 8.06782 12.6288 8.19677 12.7088 8.336C12.7088 8.35136 12.1904 8.70176 11.8746 8.8976C11.863 8.90528 11.817 8.85536 11.7661 8.77952C11.7084 8.68003 11.6265 8.59677 11.528 8.53751C11.4294 8.47825 11.3175 8.44492 11.2026 8.44064C10.8387 8.41568 10.6045 8.60672 10.6064 8.92064C10.6034 8.9988 10.6213 9.07634 10.6582 9.14528C10.7379 9.31136 10.8867 9.41024 11.3533 9.61184C12.2125 9.98144 12.5802 10.2253 12.8086 10.5718C13.064 10.9558 13.1206 11.576 12.9478 12.0349C12.7558 12.5341 12.2854 12.873 11.6202 12.9853C11.3163 13.0201 11.0093 13.0169 10.7062 12.9757C10.2437 12.9006 9.81708 12.6804 9.488 12.3469C9.3776 12.225 9.16256 11.9072 9.176 11.8842C9.21105 11.8581 9.24794 11.8347 9.2864 11.8141L9.728 11.5606L10.0726 11.361L10.1446 11.4675C10.2662 11.6413 10.4208 11.7894 10.5997 11.9034C10.9837 12.105 11.5078 12.0771 11.767 11.8438C11.8541 11.7584 11.9084 11.6451 11.9205 11.5237C11.9326 11.4023 11.9017 11.2805 11.8333 11.1795C11.7373 11.0461 11.5453 10.9338 11.0086 10.6995C10.3894 10.4326 10.1226 10.2675 9.87872 10.0045C9.7265 9.8309 9.61411 9.62611 9.54944 9.40448C9.5012 9.15127 9.49407 8.89195 9.52832 8.63648C9.656 8.0384 10.1043 7.6208 10.759 7.49696C11.0622 7.45944 11.3694 7.46786 11.6701 7.52192V7.52ZM8.85344 8.02304V8.51456H7.29536V12.9526H6.1904V8.5136H4.62848V8.0336C4.62429 7.86836 4.62877 7.70301 4.64192 7.53824C4.64768 7.53056 5.60192 7.52672 6.75392 7.52864H8.84768L8.85344 8.02304Z"></path>
  </symbol>
  <symbol xmlns="http://www.w3.org/2000/svg" viewBox="0 0 16 16" id="graduation-cap">
    <path d="M14.6719 6.30399L8.12794 3.64799C8.09594 3.63199 8.04794 3.63199 8.01594 3.64799L1.53594 6.30399C1.47194 6.31999 1.43994 6.38399 1.43994 6.43199C1.43994 6.49599 1.47194 6.54399 1.53594 6.57599L2.28794 6.91199V6.92799V9.27999L1.27994 11.36C1.23194 11.472 1.23194 11.6 1.29594 11.712C1.35994 11.824 1.47194 11.888 1.59994 11.888H3.16794C3.29594 11.888 3.40794 11.824 3.47194 11.712C3.53594 11.6 3.55194 11.472 3.48794 11.36L2.47994 9.27999V7.00799H2.51194L3.71194 7.53599V10.224C3.71194 10.816 4.17594 11.376 5.03994 11.776C5.85594 12.16 6.94394 12.368 8.09594 12.368C9.24794 12.368 10.3359 12.16 11.1519 11.776C11.9999 11.376 12.4799 10.816 12.4799 10.224V7.51999L14.6559 6.57599C14.7039 6.55999 14.7519 6.49599 14.7519 6.43199C14.7679 6.38399 14.7359 6.31999 14.6719 6.30399ZM3.29594 11.584C3.26394 11.632 3.21594 11.648 3.16794 11.648H1.59994C1.55194 11.648 1.50394 11.616 1.47194 11.584C1.43994 11.536 1.43994 11.488 1.47194 11.44L2.39994 9.53599L3.31194 11.44C3.32794 11.488 3.31194 11.536 3.29594 11.584ZM12.2079 10.224C12.2079 10.464 12.1119 10.688 11.9199 10.912C11.7119 11.136 11.4239 11.344 11.0559 11.52C10.2719 11.888 9.23194 12.096 8.11194 12.096C6.99194 12.096 5.95194 11.888 5.16794 11.52C4.79994 11.344 4.51194 11.136 4.30394 10.912C4.11194 10.688 4.01594 10.464 4.01594 10.224V7.66399L8.01594 9.42399C8.03194 9.43999 8.04794 9.43999 8.07994 9.43999C8.09594 9.43999 8.12794 9.43999 8.14394 9.42399L12.2239 7.64799V10.224H12.2079ZM12.2879 7.29599L8.06394 9.13599L3.91994 7.31199L3.07194 6.94399L7.90394 6.28799C7.95194 6.35199 8.01594 6.39999 8.11194 6.39999C8.23994 6.39999 8.35194 6.28799 8.35194 6.15999C8.35194 6.03199 8.23994 5.91999 8.11194 5.91999C7.99994 5.91999 7.91994 5.98399 7.88794 6.07999L2.71994 6.78399L1.98394 6.46399L8.09594 3.95199L14.2399 6.44799L12.2879 7.29599Z"></path>
  </symbol>
  <symbol xmlns="http://www.w3.org/2000/svg" viewBox="0 0 16 16" id="gear">
    <path fill-rule="evenodd" clip-rule="evenodd" d="M8 6.333C7.081 6.333 6.3335 7.081 6.3335 8C6.3335 8.919 7.081 9.6665 8 9.6665C8.919 9.6665 9.6665 8.919 9.6665 8C9.6665 7.081 8.919 6.333 8 6.333ZM8 10.1665C6.805 10.1665 5.8335 9.195 5.8335 8C5.8335 6.805 6.805 5.833 8 5.833C9.195 5.833 10.1665 6.805 10.1665 8C10.1665 9.195 9.195 10.1665 8 10.1665ZM7.4035 13.5H8.5965C8.786 12.948 8.9305 12.2745 9.65 11.975C10.398 11.6665 10.983 12.073 11.4675 12.311L12.3105 11.467C12.0565 10.9435 11.6775 10.3675 11.976 9.6465C12.2595 8.962 12.8455 8.815 13.5 8.597V7.403C12.8825 7.1925 12.2645 7.049 11.9765 6.354C11.6905 5.664 12.005 5.1565 12.311 4.5325L11.4675 3.6895C10.909 3.963 10.357 4.318 9.6465 4.0235C8.9595 3.738 8.8185 3.1565 8.5965 2.5H7.4035C7.1915 3.1155 7.0515 3.734 6.354 4.023C6.1715 4.0995 5.995 4.136 5.8155 4.136C5.394 4.136 5.046 3.94 4.5325 3.6895L3.689 4.5325C3.976 5.12 4.3145 5.651 4.0235 6.354C3.738 7.0415 3.1565 7.181 2.5 7.403V8.597C3.113 8.806 3.734 8.9495 4.0235 9.646C4.314 10.3475 3.986 10.862 3.689 11.4675L4.5325 12.311C5.2575 11.9485 5.71 11.709 6.3535 11.9765C7.0425 12.2625 7.181 12.8455 7.4035 13.5ZM8.9505 14H7.049C6.7085 13.041 6.6565 12.6435 6.1625 12.4385C5.66 12.229 5.297 12.5045 4.4295 12.9145L3.085 11.57C3.5215 10.6515 3.7685 10.3375 3.5615 9.8375C3.3555 9.342 2.9655 9.294 2 8.951V7.049C2.953 6.71 3.356 6.658 3.5615 6.1625C3.767 5.667 3.526 5.356 3.085 4.4295L4.4295 3.0855C5.3 3.4995 5.6625 3.768 6.162 3.562C6.658 3.356 6.703 2.9695 7.0495 2H8.9505C9.2915 2.959 9.3445 3.357 9.8375 3.5615C10.338 3.7695 10.692 3.502 11.571 3.0855L12.9145 4.4295C12.4755 5.353 12.234 5.668 12.4385 6.162C12.644 6.658 13.0345 6.7055 14 7.049V8.9515C13.047 9.29 12.6435 9.3425 12.438 9.838C12.2365 10.3255 12.46 10.6185 12.915 11.57L11.571 12.9145C10.707 12.5045 10.3375 12.2295 9.843 12.437C9.349 12.642 9.303 13.01 8.9505 14Z"></path>
  </symbol>
  <symbol xmlns="http://www.w3.org/2000/svg" viewBox="0 0 16 16" id="heart">
    <path d="M8 4.71755C7.0055 2.01805 2 2.41905 2 6.50155C2 8.53555 3.53 11.2421 8 14.0001C12.47 11.2421 14 8.53555 14 6.50155C14 2.44255 9 2.00205 8 4.71755V4.71755Z" fill="black"></path>
  </symbol>
  <symbol xmlns="http://www.w3.org/2000/svg" viewBox="0 0 16 16" id="vuetify">
    <path d="M5.22894 2L8.02409 7.796L10.8012 2H5.22894ZM2 3.75003L8.02409 14L14 3.75003H10.8915L8.02409 9.5L5.12647 3.75003H2Z"></path>
  </symbol>
  <symbol xmlns="http://www.w3.org/2000/svg" viewBox="0 0 16 16" id="jest">
    <path d="M13.6596 7.90958C13.6596 7.18698 13.1121 6.5789 12.3771 6.40539L14.0232 2H5.86533L7.51523 6.41929C6.80334 6.6068 6.27858 7.20427 6.27858 7.91325C6.27858 8.43424 6.56585 8.89625 7.00221 9.18108C6.83011 9.40344 6.63086 9.60851 6.40512 9.80297C5.98022 10.1645 5.50901 10.4422 5.00004 10.6265C4.54066 10.345 4.34169 9.84816 4.5215 9.40335C5.22202 9.20889 5.73146 8.6148 5.73146 7.91653C5.73146 7.05857 4.9619 6.36349 4.01985 6.36349C3.07423 6.36349 2.30513 7.06185 2.30513 7.9201C2.30513 8.34406 2.49631 8.73298 2.80274 9.01076C2.77588 9.05961 2.7492 9.10799 2.72233 9.16013C2.46587 9.6398 2.17484 10.1817 2.06361 10.7898C1.84163 12.0055 2.20527 12.982 3.08194 13.5343C3.57588 13.8437 4.11971 14 4.70543 14C5.71192 14 6.73429 13.5413 7.7218 13.0965C8.42637 12.7805 9.15366 12.4502 9.86959 12.2906C10.1338 12.2316 10.4094 12.1967 10.7004 12.1586C11.2897 12.0822 11.8985 12.0022 12.446 11.7138C13.0853 11.377 13.5217 10.814 13.6482 10.1678C13.7436 9.67089 13.6482 9.17075 13.403 8.73298C13.5705 8.4911 13.66 8.20378 13.6595 7.90958H13.6596ZM12.9132 7.90958C12.9132 8.39244 12.4805 8.78512 11.9484 8.78512C11.4163 8.78512 10.9836 8.39244 10.9836 7.90958C10.9836 7.75317 11.0296 7.6039 11.1099 7.47538C11.1404 7.42653 11.1789 7.37815 11.217 7.33635C11.2573 7.29336 11.3023 7.25495 11.351 7.22184L11.3551 7.21817C11.3855 7.19732 11.42 7.17637 11.4545 7.15579C11.4545 7.15579 11.4582 7.15579 11.4582 7.15213C11.4735 7.14518 11.489 7.13485 11.5045 7.12789C11.5081 7.12789 11.5118 7.12423 11.5157 7.12423C11.5312 7.11765 11.5503 7.1107 11.5693 7.10366C11.5874 7.09733 11.6053 7.09038 11.6229 7.0828C11.6267 7.0828 11.6306 7.07904 11.6343 7.07904C11.6497 7.07585 11.6651 7.0688 11.6802 7.06552C11.6843 7.06552 11.692 7.06185 11.6956 7.06185C11.7147 7.05856 11.7301 7.0549 11.7492 7.05152H11.7532L11.8105 7.0409C11.8145 7.0409 11.8218 7.0409 11.8258 7.03762C11.8412 7.03762 11.8564 7.03395 11.8718 7.03395H11.8908C11.9099 7.03395 11.9294 7.03066 11.9521 7.03066H12.002C12.017 7.03066 12.0288 7.03066 12.0439 7.03395H12.0516C12.0824 7.03771 12.1128 7.0409 12.1436 7.04795C12.58 7.13118 12.9132 7.48572 12.9132 7.90958V7.90958ZM6.93316 2.6947H12.955L11.573 6.39477C11.5157 6.40539 11.4581 6.42258 11.4009 6.43987L9.94634 3.7475L8.48762 6.42249C8.43003 6.4053 8.36878 6.39468 8.30781 6.38435L6.93316 2.6947ZM9.67034 7.60709C9.59772 7.28045 9.41388 6.98877 9.15366 6.77336L9.94634 5.3213L10.7463 6.80455C10.5089 7.01995 10.3367 7.29445 10.2677 7.60709H9.67034ZM7.75262 7.05847C7.77169 7.05471 7.78709 7.05152 7.80616 7.04786H7.81753C7.83294 7.04457 7.84844 7.04457 7.86347 7.04081H7.87887C7.89428 7.04081 7.90565 7.03752 7.92105 7.03752H8.07042C8.08545 7.03752 8.09719 7.04081 8.10856 7.04081C8.11626 7.04081 8.11993 7.04081 8.12763 7.04457C8.14304 7.04786 8.1544 7.04786 8.16991 7.05152C8.17348 7.05152 8.17751 7.05152 8.18522 7.05481C8.20438 7.05847 8.22345 7.06176 8.23876 7.06542H8.24252C8.25793 7.06871 8.27334 7.072 8.28837 7.07904C8.29241 7.07904 8.29607 7.08271 8.30377 7.08271C8.31514 7.086 8.33055 7.08966 8.34191 7.09661C8.34595 7.09661 8.34962 7.0999 8.35366 7.0999C8.36869 7.10694 8.38419 7.11061 8.39959 7.11756H8.40326C8.42233 7.12414 8.43773 7.13109 8.45314 7.1418H8.4569C8.47221 7.14875 8.48762 7.15899 8.50302 7.16594C8.50678 7.16594 8.50678 7.1697 8.51035 7.1697C8.52576 7.17627 8.53722 7.18689 8.55262 7.19384L8.55666 7.19713C8.60251 7.22841 8.64469 7.26326 8.68649 7.29812L8.69053 7.3014C8.72876 7.33954 8.7669 7.38135 8.79772 7.42653C8.8972 7.56557 8.95479 7.72893 8.95479 7.90611C8.95479 8.38906 8.52209 8.78136 7.99001 8.78136C7.45792 8.78136 7.02523 8.38906 7.02523 7.90611C7.02128 7.49953 7.33138 7.1557 7.75262 7.05847V7.05847ZM3.98537 7.03386C4.51755 7.03386 4.95015 7.42653 4.95015 7.90939C4.95015 8.39235 4.51755 8.78493 3.98537 8.78493C3.45329 8.78493 3.02059 8.39235 3.02059 7.90939C3.02059 7.42653 3.45329 7.03386 3.98537 7.03386V7.03386ZM12.8901 10.0463C12.806 10.4906 12.5032 10.88 12.0593 11.1126C11.642 11.3317 11.129 11.401 10.5892 11.4704C10.2946 11.5086 9.98448 11.5504 9.68575 11.6164C8.8895 11.7937 8.12397 12.1412 7.38127 12.4744C6.43189 12.9019 5.53578 13.3048 4.70543 13.3048C4.27274 13.3048 3.88598 13.1937 3.51867 12.961C2.67649 12.433 2.71829 11.4429 2.81815 10.9009C2.90984 10.3934 3.16639 9.91749 3.41148 9.46244C3.42651 9.43454 3.43826 9.4103 3.45329 9.3824C3.53774 9.4103 3.62576 9.43125 3.71755 9.44515C3.57222 10.1817 3.98537 10.9424 4.78942 11.3178L4.93503 11.3871L5.09182 11.335C5.7619 11.1196 6.38201 10.7688 6.9295 10.2997C7.2396 10.0356 7.50386 9.75084 7.72584 9.44149C7.81387 9.45548 7.90198 9.45915 7.99001 9.45915C8.78635 9.45915 9.45606 8.9622 9.64761 8.29512H10.2905C10.4821 8.96558 11.1521 9.45905 11.9484 9.45905C12.2662 9.45905 12.5609 9.3792 12.8133 9.24374C12.9132 9.50424 12.9436 9.77507 12.8901 10.0463V10.0463Z"></path>
  </symbol>
  <symbol xmlns="http://www.w3.org/2000/svg" viewBox="0 0 16 16" id="phone">
    <path d="M11.636 1H4.364c-.362 0-.709.138-.965.384-.255.247-.399.58-.399.929v11.374c0 .349.144.682.4.929.255.246.602.384.964.384h7.272C12.39 15 13 14.412 13 13.687V2.313a1.29 1.29 0 0 0-.4-.929A1.391 1.391 0 0 0 11.637 1Zm.455 12.688a.447.447 0 0 1-.455.437H4.364a.464.464 0 0 1-.322-.128.43.43 0 0 1-.133-.31v-.876h8.182v.877Zm0-1.315H3.909V3.625h8.182v8.748Zm0-9.185H3.909v-.876a.43.43 0 0 1 .133-.309.464.464 0 0 1 .322-.128h7.272c.25 0 .455.196.455.438v.874Z"></path>
    <path d="M8.91 2.531a.215.215 0 0 1-.067.155.232.232 0 0 1-.161.064H7.318a.232.232 0 0 1-.16-.064.215.215 0 0 1 0-.31.232.232 0 0 1 .16-.063h1.364a.23.23 0 0 1 .16.064.215.215 0 0 1 .067.154Zm-.455 10.936c0 .12-.103.219-.228.219h-.454a.232.232 0 0 1-.16-.064.215.215 0 0 1-.001-.31.232.232 0 0 1 .16-.064h.455c.06 0 .118.023.161.064a.215.215 0 0 1 .067.155Z"></path>
  </symbol>
  <symbol xmlns="http://www.w3.org/2000/svg" viewBox="0 0 16 16" id="twitter">
    <path fill-rule="evenodd" clip-rule="evenodd" d="M14 8C14 11.3137 11.3137 14 8 14C4.68629 14 2 11.3137 2 8C2 4.68629 4.68629 2 8 2C11.3137 2 14 4.68629 14 8ZM10.5683 6.13306C10.8415 6.10067 11.1084 6.02751 11.36 5.91602C11.1755 6.19269 10.9432 6.43428 10.674 6.62946C10.6766 6.68853 10.6779 6.74798 10.6779 6.80782C10.6779 8.62986 9.29114 10.7306 6.75521 10.7306C6.00589 10.7313 5.2722 10.5162 4.64185 10.1111C4.75075 10.1239 4.86031 10.1303 4.96997 10.1303C5.59081 10.1314 6.19395 9.92351 6.68231 9.54017C6.39443 9.53498 6.11538 9.43989 5.88423 9.26821C5.65308 9.09652 5.48141 8.85685 5.39325 8.58275C5.59991 8.62242 5.8129 8.6144 6.01599 8.55931C5.70396 8.49619 5.42336 8.3271 5.22178 8.08071C5.0202 7.83431 4.91003 7.52578 4.90997 7.20743V7.19009C5.10136 7.29657 5.31544 7.35572 5.53435 7.36259C5.2425 7.16753 5.03593 6.86861 4.95669 6.52663C4.87744 6.18466 4.93147 5.82535 5.10778 5.5218C5.45398 5.94775 5.8859 6.29611 6.37548 6.54427C6.86507 6.79244 7.40138 6.93486 7.94958 6.96228C7.88104 6.66674 7.9118 6.35686 8.03709 6.08057C8.16239 5.80428 8.37524 5.57697 8.64271 5.43382C8.91018 5.29066 9.21738 5.23963 9.51677 5.28862C9.81616 5.33762 10.0911 5.4839 10.299 5.70485C10.6077 5.64407 10.9037 5.53096 11.1743 5.3704C11.0715 5.68972 10.8561 5.96077 10.5683 6.13306Z"></path>
  </symbol>
  <symbol xmlns="http://www.w3.org/2000/svg" viewBox="0 0 16 16" id="linkedin-circle">
    <path fill-rule="evenodd" clip-rule="evenodd" d="M8 14C11.3137 14 14 11.3137 14 8C14 4.68629 11.3137 2 8 2C4.68629 2 2 4.68629 2 8C2 11.3137 4.68629 14 8 14ZM4.72574 6.85156H6.11957V11.3319H4.72574V6.85156ZM5.423 4.625C5.58268 4.62509 5.73874 4.67253 5.87145 4.7613C6.00417 4.85008 6.10759 4.97621 6.16863 5.12376C6.22967 5.2713 6.24559 5.43364 6.21438 5.59023C6.18318 5.74682 6.10624 5.89065 5.9933 6.00352C5.88036 6.11639 5.73649 6.19325 5.57988 6.22436C5.42327 6.25548 5.26095 6.23946 5.11344 6.17834C4.96593 6.11721 4.83985 6.01372 4.75115 5.88095C4.66245 5.74818 4.61511 5.59209 4.61511 5.43242C4.61514 5.32636 4.63606 5.22134 4.67668 5.12336C4.7173 5.02539 4.77682 4.93637 4.85184 4.86139C4.92685 4.78642 5.01591 4.72695 5.11391 4.68639C5.21191 4.64583 5.31694 4.62497 5.423 4.625ZM8.32812 6.8516H6.99219V11.331H8.38437V9.11496C8.38437 8.53043 8.495 7.96418 9.21945 7.96418C9.93406 7.96418 9.94297 8.63262 9.94297 9.15223V11.3319H11.3352V8.87496C11.3352 7.6684 11.0748 6.74051 9.66477 6.74051C8.98742 6.74051 8.53297 7.1127 8.34734 7.46426H8.32812V6.8516Z"></path>
  </symbol>
  <symbol xmlns="http://www.w3.org/2000/svg" viewBox="0 0 16 16" id="vue">
    <path d="M2 3L6.67374 3.01481L8.01434 5.30368L9.35495 3.01481L14 3L8.01556 13.3249L2 3ZM13.9048 3.05972L11.6202 3.06169L8.01341 9.25406L4.40859 3.06169L2.08831 3.05981L8.01434 13.1743L13.9048 3.05972Z"></path>
  </symbol>
  <symbol xmlns="http://www.w3.org/2000/svg" viewBox="0 0 16 16" id="search">
    <path d="M6.5 2a4.5 4.5 0 0 1 3.977 6.603l3.129 3.128-.003.002a1.323 1.323 0 1 1-1.87 1.87h.001l-3.128-3.128A4.5 4.5 0 1 1 6.5 2Zm5.702 11.134a.661.661 0 1 0 .933-.933l.003-.002-3.024-3.025c-.265.357-.58.672-.936.937l3.024 3.023ZM6.5 10.25a3.75 3.75 0 1 0-.001-7.5 3.75 3.75 0 0 0 .001 7.5Z"></path>
    <path d="M6.5 3.875A2.625 2.625 0 0 1 9.125 6.5a.188.188 0 0 1-.375 0A2.25 2.25 0 0 0 6.5 4.25a.188.188 0 0 1 0-.375Z"></path>
  </symbol>
  <symbol xmlns="http://www.w3.org/2000/svg" viewBox="0 0 16 16" id="vscode">
    <path d="M10.9951 2L13.9611 3.19611V12.7942L10.9757 14L6.2107 9.26418L3.19611 11.6078L2 11.0049V4.99514L3.19611 4.42139L6.2107 6.78444L10.9951 2ZM3.19611 6.22042V9.8671L4.99514 8.01945L3.19611 6.22042ZM7.87358 8.01945L10.9757 10.4603V5.56888L7.87358 8.01945Z"></path>
  </symbol>
  <symbol xmlns="http://www.w3.org/2000/svg" viewBox="0 0 16 16" id="wordpress">
    <path fill-rule="evenodd" clip-rule="evenodd" d="M7.99022 14C11.2906 13.995 13.9623 11.3103 13.9623 7.9986C13.9623 4.74076 11.303 2.05768 8.1258 2.00096C4.7891 1.94145 2.00087 4.64899 2 7.93226C1.99904 11.3101 4.65881 14.0048 7.99022 14V14ZM7.9805 2.29148C11.1492 2.29042 13.6739 4.86488 13.6729 8.09595C13.6718 11.1464 11.0802 13.6982 7.98281 13.6989C4.82723 13.6996 2.28955 11.1411 2.28965 7.95912C2.28984 4.85919 4.867 2.29253 7.9805 2.29148V2.29148ZM5.58899 5.30214C5.6408 5.47479 5.49578 5.53488 5.34162 5.54691C5.17937 5.55943 5.01721 5.57166 4.82886 5.58601C5.45053 7.43809 6.06285 9.26272 6.68971 11.1298C6.73439 11.0567 6.75278 11.0361 6.76087 11.0121C7.10501 9.98347 7.45109 8.95555 7.78647 7.92407C7.81709 7.82999 7.80188 7.70539 7.76837 7.60871C7.5909 7.09644 7.37829 6.59534 7.22268 6.0769C7.11628 5.72197 6.97512 5.49231 6.55557 5.53343C6.48412 5.54046 6.39688 5.38668 6.31686 5.30724C6.41364 5.24947 6.50974 5.14316 6.60738 5.14172C7.46169 5.12859 8.31617 5.12884 9.17048 5.14249C9.2685 5.14412 9.3646 5.25322 9.46137 5.31244C9.37664 5.38986 9.30355 5.50599 9.20447 5.53593C9.04549 5.58389 8.86918 5.57484 8.67891 5.59178L10.5421 11.1343C10.8243 10.1968 11.0869 9.336 11.3422 8.47293C11.5701 7.7025 11.4343 6.98301 11.0224 6.30444C10.8985 6.1004 10.7464 5.90242 10.6762 5.67989C10.5965 5.42674 10.5302 5.13854 10.5725 4.88462C10.6442 4.45429 10.9744 4.24062 11.4212 4.19969C8.97616 1.93048 5.13392 2.7428 3.71814 5.20835C4.26315 5.18322 4.78351 5.15019 5.30426 5.14306C5.40267 5.14181 5.56588 5.22501 5.58899 5.30214V5.30214ZM6.56318 12.8101C6.55182 12.8433 6.55114 12.8803 6.54219 12.9355C7.59591 13.2276 8.62931 13.2065 9.68698 12.8502L8.07121 8.4246C7.55412 9.92781 7.05822 11.3687 6.56318 12.8101ZM5.74893 12.61L3.31458 5.93218C2.21637 8.07737 3.0518 11.3503 5.74893 12.61ZM13.1083 8.31906C13.1856 7.30472 12.8356 5.9003 12.5335 5.70714C12.4998 6.08027 12.5233 6.49539 12.4162 6.87362C12.1642 7.7648 11.8561 8.64048 11.5593 9.51857C11.2367 10.473 10.9014 11.4231 10.5716 12.3752C12.1211 11.4566 12.9727 10.1009 13.1083 8.31906V8.31906Z"></path>
  </symbol>
</svg>